SplineFontDB: 3.2
FontName: Porsoville-Bold
FullName: Porsoville Bold
FamilyName: Porsoville
Weight: Bold
Copyright: Copyright (c) 2012, Pablo Impallari (www.impallari.com|impallari@gmail.com), \nCopyright (c) 2012, Rodrigo Fuenzalida (www.rfuenzalida.com|hello :rfuenzalida.com)\nCopyright (c) 2016--2019, Michael Sharpe (msharpe@ucsd.edu)\nCopyright (c) 2025, Ioannes Bracledes.
Version: 1.000
ItalicAngle: 0
UnderlinePosition: -104
UnderlineWidth: 50
Ascent: 775
Descent: 225
InvalidEm: 0
sfntRevision: 0x00010000
LayerCount: 2
Layer: 0 0 "Atr+AOEA-s" 1
Layer: 1 0 "Anterior" 0
XUID: [1021 18 461060207 9517059]
StyleMap: 0x0020
FSType: 0
OS2Version: 2
OS2_WeightWidthSlopeOnly: 0
OS2_UseTypoMetrics: 0
CreationTime: 1354221900
ModificationTime: 1764391189
PfmFamily: 17
TTFWeight: 700
TTFWidth: 5
LineGap: 0
VLineGap: 0
Panose: 2 0 0 0 0 0 0 0 0 0
OS2TypoAscent: 970
OS2TypoAOffset: 0
OS2TypoDescent: -270
OS2TypoDOffset: 0
OS2TypoLinegap: 0
OS2WinAscent: 970
OS2WinAOffset: 0
OS2WinDescent: 270
OS2WinDOffset: 0
HheadAscent: 970
HheadAOffset: 0
HheadDescent: -270
HheadDOffset: 0
OS2SubXSize: 700
OS2SubYSize: 650
OS2SubXOff: 0
OS2SubYOff: 140
OS2SupXSize: 700
OS2SupYSize: 650
OS2SupXOff: 0
OS2SupYOff: 477
OS2StrikeYSize: 50
OS2StrikeYPos: 250
OS2CapHeight: 770
OS2XHeight: 530
OS2Vendor: 'pyrs'
OS2CodePages: 00000093.00000000
OS2UnicodeRanges: a00000bf.5000005b.00000000.00000000
Lookup: 1 0 0 "'smcp' Lowercase to Small Capitals in Latin lookup 0" { "'smcp' Lowercase to Small Capitals in Latin lookup 0 subtable"  } ['smcp' ('DFLT' <'dflt' > 'latn' <'dflt' > ) ]
Lookup: 1 0 0 "'c2sc' Capitals to Small Capitals in Latin lookup 1" { "'c2sc' Capitals to Small Capitals in Latin lookup 1 subtable"  } ['c2sc' ('DFLT' <'dflt' > 'latn' <'dflt' > ) ]
Lookup: 4 0 1 "'liga' Standard Ligatures in Latin lookup 2" { "'liga' Standard Ligatures in Latin lookup 2 subtable"  } ['liga' ('latn' <'dflt' > ) ]

StartChar: .notdef
Encoding: 65536 -1 0
Width: 682
GlyphClass: 1
Flags: MW
HStem: -235 55<217 465 217 565> 822 54<217 465 217 217>
VStem: 117 100<-180 -180 -180 822> 465 100<-180 822 822 822>
LayerCount: 2
Fore
SplineSet
117 876 m 1
 565 876 l 1
 565 -235 l 1
 117 -235 l 1
 117 876 l 1
217 -180 m 1
 465 -180 l 1
 465 822 l 1
 217 822 l 1
 217 -180 l 1
EndSplineSet
EndChar

StartChar: exclam
Encoding: 33 33 2
Width: 280
GlyphClass: 2
Flags: MW
HStem: -9 136<122.5 160> 684 20G<116.5 163.5>
VStem: 72 137<40 78> 113 54<187 214.5>
LayerCount: 2
Fore
SplineSet
113 187 m 1xd0
 113 242 111 288 107 326 c 0
 101 385 96 428 86 477 c 0
 77 525 70 567 70 623 c 0
 70 677 93 704 140 704 c 0
 187 704 210 677 210 623 c 0
 210 547 196 492 185 426 c 0
 172 352 167 283 167 187 c 1
 113 187 l 1xd0
141 -9 m 0
 104 -9 72 21 72 59 c 0
 72 97 104 127 141 127 c 0
 179 127 209 97 209 59 c 0xe0
 209 20 179 -9 141 -9 c 0
EndSplineSet
Substitution2: "'c2sc' Capitals to Small Capitals in Latin lookup 1 subtable" exclam.sc
Substitution2: "'smcp' Lowercase to Small Capitals in Latin lookup 0 subtable" exclam.sc
EndChar

StartChar: quotedbl
Encoding: 34 34 3
Width: 353
GlyphClass: 2
Flags: MW
HStem: 500 249<88.5 112 88.5 115 78 112 88.5 240 242 273 88.5 277>
VStem: 43 106<692.5 703.5> 78 37<500 500> 205 105<692.5 710.5 682.5 711> 240 37<500 500>
LayerCount: 2
Fore
SplineSet
96 749 m 0xc0
 128 749 149 726 149 695 c 0xc0
 149 688 148 677 144 662 c 0
 142 647 139 630 135 612 c 0
 128 577 121 533 115 500 c 1
 78 500 l 1xa0
 72 533 63 577 56 612 c 0
 52 631 50 648 47 663 c 0
 44 678 43 689 43 696 c 0
 43 711 49 724 58 735 c 0
 69 744 81 749 96 749 c 0xc0
258 749 m 0
 288 749 310 726 310 695 c 0x90
 310 670 304 638 298 612 c 0
 291 578 283 533 277 500 c 1
 240 500 l 1x88
 231 550 216 612 209 663 c 0
 205 678 205 689 205 696 c 0x90
 205 726 226 749 258 749 c 0
EndSplineSet
Substitution2: "'c2sc' Capitals to Small Capitals in Latin lookup 1 subtable" quotedbl.sc
Substitution2: "'smcp' Lowercase to Small Capitals in Latin lookup 0 subtable" quotedbl.sc
EndChar

StartChar: numbersign
Encoding: 35 35 4
Width: 633
GlyphClass: 2
Flags: MW
HStem: 0 21G<130 196 130 130 333 398 333 333> 226 54<42 165 32 177 243 366 443 564> 424 54<71 198 62 208 273 396 474 591> 675 20G<240 306 306 306 440 505 505 505>
VStem: 130 66<0 0> 240 66<695 695> 333 65<0 0> 440 65<695 695>
LayerCount: 2
Fore
SplineSet
564 226 m 1
 432 226 l 1
 398 0 l 1
 333 0 l 1
 366 226 l 1
 231 226 l 1
 196 0 l 1
 130 0 l 1
 165 226 l 1
 32 226 l 1
 42 280 l 1
 177 280 l 1
 198 424 l 1
 62 424 l 1
 71 478 l 1
 208 478 l 1
 240 695 l 1
 306 695 l 1
 273 478 l 1
 408 478 l 1
 440 695 l 1
 505 695 l 1
 474 478 l 1
 601 478 l 1
 591 424 l 1
 464 424 l 1
 443 280 l 1
 573 280 l 1
 564 226 l 1
264 424 m 1
 243 280 l 1
 376 280 l 1
 396 424 l 1
 264 424 l 1
EndSplineSet
Substitution2: "'c2sc' Capitals to Small Capitals in Latin lookup 1 subtable" numbersign.sc
Substitution2: "'smcp' Lowercase to Small Capitals in Latin lookup 0 subtable" numbersign.sc
EndChar

StartChar: dollar
Encoding: 36 36 5
Width: 581
GlyphClass: 2
Flags: MW
HStem: -8 27<268 268> 673 30<255.5 268>
VStem: 33 124 58 102<546 554.5> 268 40<-150 -8 -150 -8 -150 -8 20 280 452 673 703 812> 397 123 433 115<149 158.5>
LayerCount: 2
Fore
SplineSet
33 161 m 0xea
 33 199 51 226 87 226 c 0
 104 226 117 219 128 206 c 0
 138 192 148 167 157 132 c 0xea
 171 80 215 24 268 19 c 1
 268 296 l 1
 198 324 138 355 106 388 c 0
 74 421 58 461 58 507 c 0
 58 602 114 664 184 690 c 0
 207 699 243 703 268 703 c 1
 268 812 l 1
 308 812 l 1
 308 702 l 1
 396 702 469 660 504 607 c 0
 515 589 520 571 520 551 c 0
 520 521 498 498 468 498 c 0
 422 498 410 538 397 572 c 0xdc
 384 609 371 667 308 673 c 1
 308 434 l 1
 349 418 393 394 422 377 c 0
 473 348 515 318 534 265 c 0
 543 245 548 223 548 199 c 0
 548 99 486 43 413 14 c 0
 385 2 343 -5 308 -8 c 1
 308 -150 l 1
 268 -153 l 1
 268 -8 l 1
 174 -2 89 34 51 97 c 0
 39 117 33 138 33 161 c 0xea
308 20 m 1
 395 25 433 81 433 146 c 0
 433 171 424 199 407 217 c 0
 390 236 350 262 308 280 c 1
 308 20 l 1
160 566 m 0xd8
 160 526 203 482 268 452 c 1
 268 673 l 1
 203 667 160 637 160 566 c 0xd8
EndSplineSet
Substitution2: "'c2sc' Capitals to Small Capitals in Latin lookup 1 subtable" dollar.sc
Substitution2: "'smcp' Lowercase to Small Capitals in Latin lookup 0 subtable" dollar.sc
EndChar

StartChar: percent
Encoding: 37 37 6
Width: 642
GlyphClass: 2
Flags: MW
HStem: -9 32<442.5 457.5 442.5 457.5> 0 21G<28 100 28 28> 245 31<442.5 457.5> 419 31<186.5 201.5 186.5 202> 672 32<186.5 201.5> 675 20G<551 616 616 616>
VStem: 28 72<0 0> 78 67<550 580 537 582> 243 67<537 570.5 529.5 580> 334 68<122 152 109 154.5> 499 68<109 142.5 101 152> 551 65<695 695>
LayerCount: 2
Fore
SplineSet
100 0 m 1x76d0
 28 0 l 1
 551 695 l 1
 616 695 l 1
 100 0 l 1x76d0
194 704 m 0x39c0
 253 704 285 660 301 616 c 0
 307 599 310 581 310 560 c 0
 310 499 282 451 240 430 c 0
 226 423 210 419 194 419 c 0
 137 419 103 461 87 504 c 0
 82 522 78 540 78 560 c 0
 78 604 93 637 112 663 c 0
 130 684 159 704 194 704 c 0x39c0
194 450 m 0
 209 450 222 458 230 473 c 0
 238 488 243 516 243 558 c 0
 243 602 238 632 230 648 c 0
 222 664 209 672 194 672 c 0
 179 672 166 664 158 648 c 0
 150 632 145 602 145 558 c 0
 145 516 150 488 158 473 c 0
 166 458 179 450 194 450 c 0
450 276 m 0
 507 276 543 233 558 189 c 0
 563 172 567 153 567 132 c 0
 567 70 537 23 495 2 c 0
 481 -5 465 -9 450 -9 c 0xb0e0
 392 -9 361 34 343 76 c 0
 338 94 334 112 334 132 c 0
 334 177 349 209 368 235 c 0
 386 256 415 276 450 276 c 0
450 23 m 0
 465 23 479 30 487 45 c 0
 495 60 499 88 499 130 c 0
 499 174 495 204 487 220 c 0
 479 236 465 245 450 245 c 0
 435 245 422 236 414 220 c 0
 406 204 402 174 402 130 c 0
 402 88 406 60 414 45 c 0
 422 30 435 23 450 23 c 0
EndSplineSet
Substitution2: "'c2sc' Capitals to Small Capitals in Latin lookup 1 subtable" percent.sc
Substitution2: "'smcp' Lowercase to Small Capitals in Latin lookup 0 subtable" percent.sc
EndChar

StartChar: ampersand
Encoding: 38 38 7
Width: 804
GlyphClass: 2
Flags: MW
HStem: -9 36<222.5 277.5> -9 58<677 682> 406 20<540 555.5 731.5 758> 676 28<327 359>
VStem: 18 142<132 171.5> 166 93<531.5 567.5> 395 102<554 580 554 580.5> 759 24<95 101>
LayerCount: 2
Fore
SplineSet
395 557 m 0x3f
 395 604 391 676 327 676 c 0
 278 676 259 613 259 558 c 0
 259 505 293 458 321 427 c 1
 347 447 366 467 377 488 c 0
 390 509 395 533 395 557 c 0x3f
160 162 m 0
 160 102 193 27 252 27 c 0xbf
 325 27 388 78 425 109 c 1
 255 320 l 1
 205 286 160 235 160 162 c 0
445 87 m 1
 391 37 337 -9 218 -9 c 0xbf
 160 -9 108 9 74 36 c 0
 44 61 18 98 18 151 c 0
 18 192 35 229 67 264 c 0
 100 298 153 333 224 368 c 1
 204 396 190 424 181 448 c 0
 171 472 166 498 166 525 c 0
 166 610 209 665 269 691 c 0
 291 699 314 704 340 704 c 0
 411 704 462 672 486 624 c 0
 494 608 497 590 497 570 c 0
 497 538 486 507 463 477 c 0
 440 448 404 417 353 384 c 1
 501 193 l 1
 533 225 598 322 598 363 c 0
 598 389 571 406 540 406 c 1
 540 426 l 1
 758 426 l 1
 758 406 l 1
 705 406 678 365 653 334 c 2
 653 334 584 232 521 165 c 1
 548 130 579 94 607 76 c 0
 635 58 664 49 690 49 c 0
 730 49 742 72 759 101 c 1
 783 95 l 1
 771 29 721 -9 643 -9 c 0x7f
 605 -9 581 -1 554 10 c 0
 539 16 523 27 503 40 c 0
 486 51 465 70 445 87 c 1
EndSplineSet
Substitution2: "'c2sc' Capitals to Small Capitals in Latin lookup 1 subtable" ampersand.sc
Substitution2: "'smcp' Lowercase to Small Capitals in Latin lookup 0 subtable" ampersand.sc
EndChar

StartChar: quotesingle
Encoding: 39 39 8
Width: 192
GlyphClass: 2
Flags: MW
HStem: 500 249<88.5 112 88.5 115 78 112>
VStem: 43 106<692.5 703.5> 78 37<500 500>
LayerCount: 2
Fore
SplineSet
96 749 m 0xc0
 128 749 149 726 149 695 c 0xc0
 149 688 148 677 144 662 c 0
 142 647 139 630 135 612 c 0
 128 577 121 533 115 500 c 1
 78 500 l 1xa0
 72 533 63 577 56 612 c 0
 52 631 50 648 47 663 c 0
 44 678 43 689 43 696 c 0
 43 711 49 724 58 735 c 0
 69 744 81 749 96 749 c 0xc0
EndSplineSet
Substitution2: "'c2sc' Capitals to Small Capitals in Latin lookup 1 subtable" quotesingle.sc
Substitution2: "'smcp' Lowercase to Small Capitals in Latin lookup 0 subtable" quotesingle.sc
EndChar

StartChar: parenleft
Encoding: 40 40 9
Width: 309
GlyphClass: 2
Flags: MW
VStem: 32 121<289.5 325 289.5 333>
LayerCount: 2
Fore
SplineSet
292 725 m 1
 229 631 177 535 161 404 c 0
 156 372 153 341 153 309 c 0
 153 270 157 230 162 190 c 0
 167 148 175 109 188 70 c 0
 213 -12 250 -86 300 -145 c 1
 270 -175 l 1
 191 -105 132 -31 92 47 c 0
 51 126 32 208 32 292 c 0
 32 374 50 453 89 530 c 0
 128 607 186 680 263 750 c 1
 292 725 l 1
EndSplineSet
Substitution2: "'sups' Superscript in Latin lookup 9 subtable" parenleft.superior
Substitution2: "'c2sc' Capitals to Small Capitals in Latin lookup 1 subtable" parenleft.sc
Substitution2: "'smcp' Lowercase to Small Capitals in Latin lookup 0 subtable" parenleft.sc
EndChar

StartChar: parenright
Encoding: 41 41 10
Width: 309
GlyphClass: 2
Flags: MW
VStem: 156 122<250 333 250 398.5>
LayerCount: 2
Fore
SplineSet
10 -145 m 1
 100 -37 156 115 156 309 c 0
 156 488 93 612 18 725 c 1
 47 750 l 1
 124 680 181 607 220 530 c 0
 259 453 278 374 278 292 c 0
 278 208 258 126 218 47 c 0
 177 -31 119 -105 40 -175 c 1
 10 -145 l 1
EndSplineSet
Substitution2: "'sups' Superscript in Latin lookup 9 subtable" parenright.superior
Substitution2: "'c2sc' Capitals to Small Capitals in Latin lookup 1 subtable" parenright.sc
Substitution2: "'smcp' Lowercase to Small Capitals in Latin lookup 0 subtable" parenright.sc
EndChar

StartChar: asterisk
Encoding: 42 42 11
Width: 444
GlyphClass: 2
Flags: MW
HStem: 388 99<96 104.5> 532 98<90 111 334.5 341.5> 684 20G<206.5 235.5>
VStem: 174 94<352 375> 203 38<476 476>
LayerCount: 2
Fore
SplineSet
395 434 m 0xf0
 395 409 376 388 351 388 c 0
 337 388 327 392 319 399 c 0
 311 405 303 413 297 423 c 0
 291 433 283 442 274 453 c 0
 267 462 255 471 241 477 c 1xe8
 243 443 245 424 255 405 c 0
 264 392 268 387 268 366 c 0
 268 337 251 315 222 315 c 0
 194 315 174 338 174 366 c 0xf0
 174 384 182 397 189 409 c 0
 199 426 203 446 203 476 c 1xe8
 177 465 159 442 144 422 c 0
 131 405 118 388 91 388 c 0
 66 388 47 409 47 434 c 0
 47 463 70 483 96 487 c 0
 103 488 110 487 119 487 c 0
 143 490 160 496 183 509 c 1
 168 516 155 521 143 525 c 0
 131 530 118 532 104 532 c 0
 76 532 47 556 47 583 c 0
 47 609 67 630 93 630 c 0
 137 630 142 596 164 572 c 0
 171 562 185 552 202 542 c 1
 200 576 198 593 188 613 c 0
 180 625 174 632 174 652 c 0
 174 680 192 704 221 704 c 0
 250 704 269 681 269 652 c 0
 269 644 267 636 264 630 c 0
 252 603 240 583 240 542 c 1
 270 559 284 576 300 601 c 0
 311 618 320 630 349 630 c 0
 374 630 395 609 395 583 c 0
 395 560 375 544 359 536 c 0
 353 533 345 532 338 532 c 0
 303 532 285 523 259 509 c 1
 282 496 299 490 323 487 c 0
 344 487 353 489 367 479 c 0
 386 467 395 453 395 434 c 0xf0
EndSplineSet
EndChar

StartChar: plus
Encoding: 43 43 12
Width: 505
GlyphClass: 2
Flags: MW
HStem: 277 56<31 222 31 222 283 475>
VStem: 222 61<78 277 78 277 333 533>
LayerCount: 2
Fore
SplineSet
222 78 m 1
 222 277 l 1
 31 277 l 1
 31 333 l 1
 222 333 l 1
 222 533 l 1
 283 533 l 1
 283 333 l 1
 475 333 l 1
 475 277 l 1
 283 277 l 1
 283 78 l 1
 222 78 l 1
EndSplineSet
EndChar

StartChar: comma
Encoding: 44 44 13
Width: 236
GlyphClass: 2
Flags: MW
HStem: 0 127<97 100>
VStem: 122 64<-1 67>
LayerCount: 2
Fore
SplineSet
116 127 m 0
 162 127 186 91 186 43 c 0
 186 11 175 -20 153 -51 c 0
 131 -80 98 -110 53 -140 c 1
 27 -102 l 1
 59 -80 83 -60 99 -43 c 0
 113 -26 122 -9 122 7 c 1
 117 3 105 0 95 0 c 0
 67 0 49 29 49 58 c 0
 49 95 78 127 116 127 c 0
EndSplineSet
Substitution2: "'sups' Superscript in Latin lookup 9 subtable" comma.superior
EndChar

StartChar: hyphen
Encoding: 45 45 14
Width: 412
GlyphClass: 2
Flags: MW
HStem: 199 84<60 353 60 353>
VStem: 60 293<199 283 199 283>
LayerCount: 2
Fore
SplineSet
60 199 m 1
 60 283 l 1
 353 283 l 1
 353 199 l 1
 60 199 l 1
EndSplineSet
Substitution2: "'sups' Superscript in Latin lookup 9 subtable" hyphen.superior
EndChar

StartChar: period
Encoding: 46 46 15
Width: 274
GlyphClass: 2
Flags: MW
HStem: -9 136<117.5 155>
VStem: 69 137<39.5 77>
LayerCount: 2
Fore
SplineSet
136 -9 m 0
 99 -9 69 21 69 58 c 0
 69 96 98 127 136 127 c 0
 175 127 206 97 206 58 c 0
 206 20 174 -9 136 -9 c 0
EndSplineSet
Substitution2: "'sups' Superscript in Latin lookup 9 subtable" period.superior
EndChar

StartChar: slash
Encoding: 47 47 16
Width: 430
GlyphClass: 2
Flags: MW
HStem: 0 21G<21 85 21 21> 675 20G<356 411 411 411>
LayerCount: 2
Fore
SplineSet
85 0 m 1
 21 0 l 1
 356 695 l 1
 411 695 l 1
 85 0 l 1
EndSplineSet
Substitution2: "'sups' Superscript in Latin lookup 9 subtable" slash.superior
Substitution2: "'c2sc' Capitals to Small Capitals in Latin lookup 1 subtable" slash.sc
Substitution2: "'smcp' Lowercase to Small Capitals in Latin lookup 0 subtable" slash.sc
EndChar

StartChar: zero
Encoding: 48 48 17
Width: 610
GlyphClass: 2
Flags: MW
HStem: -9 28<256.5 351> 676 28<256.5 351 256.5 359>
VStem: 37 147<290 395.5> 422 152<289 396.5 289 410>
LayerCount: 2
Fore
SplineSet
303 704 m 0
 399 704 459 654 506 599 c 0
 557 539 574 451 574 342 c 0
 574 236 556 153 506 94 c 0
 459 39 399 -9 303 -9 c 0
 210 -9 150 39 105 94 c 0
 55 152 37 238 37 342 c 0
 37 449 54 539 105 599 c 0
 150 654 210 704 303 704 c 0
303 19 m 0
 413 19 422 201 422 339 c 0
 422 481 415 676 303 676 c 0
 192 676 184 478 184 339 c 0
 184 204 198 19 303 19 c 0
EndSplineSet
Substitution2: "'onum' Oldstyle Figures lookup 14 subtable" zero.oldstyle
Substitution2: "'pnum' Proportional Numbers in Latin lookup 13 subtable" zero.prop
Substitution2: "'dnom' Denominators lookup 11 subtable" zero.denominator
Substitution2: "'sinf' Scientific Inferiors in Latin lookup 10 subtable" zeroinferior
Substitution2: "'sups' Superscript in Latin lookup 9 subtable" zero.superior
EndChar

StartChar: one
Encoding: 49 49 18
Width: 610
GlyphClass: 2
Flags: MW
HStem: 0 20<122 491 122 122> 646 20<117 134> 684 20G<393 393>
VStem: 260 133<126 132 132 469 469 486.5>
LayerCount: 2
Fore
SplineSet
393 132 m 2
 393 75 394 36 440 26 c 0
 453 23 469 21 491 20 c 1
 491 0 l 1
 122 0 l 1
 122 20 l 1
 177 22 248 26 255 74 c 0
 259 87 260 105 260 126 c 2
 260 469 l 2
 260 504 260 533 259 556 c 0
 259 599 249 616 225 632 c 0
 209 643 151 646 117 646 c 1
 117 666 l 1
 157 668 232 672 270 679 c 0
 310 684 360 694 393 704 c 1
 393 132 l 2
EndSplineSet
Substitution2: "'onum' Oldstyle Figures lookup 14 subtable" one.oldstyle
Substitution2: "'pnum' Proportional Numbers in Latin lookup 13 subtable" one.prop
Substitution2: "'dnom' Denominators lookup 11 subtable" one.denominator
Substitution2: "'sinf' Scientific Inferiors in Latin lookup 10 subtable" oneinferior
Substitution2: "'sups' Superscript in Latin lookup 9 subtable" one.superior
EndChar

StartChar: two
Encoding: 50 50 19
Width: 610
GlyphClass: 2
Flags: MW
HStem: 0 107<196 400 400 426.5 196 518> 382 57<145.5 259> 676 28<265.5 327>
VStem: 54 119<507.5 548> 398 145<491 523.5 491 550.5>
LayerCount: 2
Fore
SplineSet
259 439 m 1
 253 405 224 382 185 382 c 0
 106 382 54 438 54 517 c 0
 54 579 86 622 125 651 c 0
 169 683 229 704 302 704 c 0
 411 704 489 659 526 588 c 0
 537 564 543 538 543 509 c 0
 543 473 535 437 519 403 c 0
 502 369 479 335 450 303 c 0
 384 232 282 169 195 111 c 1
 196 107 l 1
 400 107 l 2
 453 107 480 123 502 159 c 0
 510 172 519 189 525 210 c 1
 554 210 l 1
 518 0 l 1
 45 0 l 1
 45 42 l 1
 116 103 175 156 221 200 c 0
 267 245 303 285 330 321 c 0
 371 377 398 426 398 511 c 0
 398 590 367 676 287 676 c 0
 212 676 173 601 173 536 c 0
 173 479 204 439 259 439 c 1
EndSplineSet
Substitution2: "'onum' Oldstyle Figures lookup 14 subtable" two.oldstyle
Substitution2: "'pnum' Proportional Numbers in Latin lookup 13 subtable" two.prop
Substitution2: "'dnom' Denominators lookup 11 subtable" two.denominator
Substitution2: "'sinf' Scientific Inferiors in Latin lookup 10 subtable" twoinferior
Substitution2: "'sups' Superscript in Latin lookup 9 subtable" two.superior
EndChar

StartChar: three
Encoding: 51 51 20
Width: 610
GlyphClass: 2
Flags: MW
HStem: -9 28<260.5 331> 325 74<226 243 225.5 252> 351 28<306 341 306 342> 472 21G<171.5 207.5> 676 28<268.5 329.5>
VStem: 53 133<140.5 160 110 179.5> 81 127<566 598.5> 391 138<508 555 508 561> 407 145<155 211 155 235>
LayerCount: 2
Fore
SplineSet
291 19 m 0xbc80
 377 19 407 113 407 195 c 0
 407 275 379 351 305 351 c 1xbc80
 287 343 263 325 241 325 c 0
 211 325 188 337 188 365 c 0
 188 390 212 399 239 399 c 0xdc80
 247 399 257 398 267 395 c 0
 278 393 298 382 306 379 c 0
 376 379 391 448 391 524 c 0
 391 598 364 676 295 676 c 0
 242 676 208 630 208 581 c 0
 208 551 228 524 257 524 c 1
 249 493 227 472 188 472 c 0
 155 472 131 485 113 503 c 0
 96 520 81 544 81 576 c 0
 81 621 109 650 141 669 c 0
 178 694 235 704 296 704 c 0
 398 704 477 674 513 609 c 0
 524 589 529 567 529 543 c 0xbb
 529 473 491 430 451 400 c 0
 435 389 418 381 399 376 c 1
 399 371 l 1
 445 359 482 333 510 301 c 0
 534 273 552 235 552 187 c 0
 552 123 519 75 479 46 c 0
 434 13 370 -9 292 -9 c 0
 192 -9 110 26 71 87 c 0
 59 107 53 129 53 152 c 0
 53 207 87 247 127 264 c 0
 141 270 157 274 173 274 c 0
 213 274 241 250 249 217 c 1
 210 217 186 180 186 140 c 0
 186 80 230 19 291 19 c 0xbc80
EndSplineSet
Substitution2: "'onum' Oldstyle Figures lookup 14 subtable" three.oldstyle
Substitution2: "'pnum' Proportional Numbers in Latin lookup 13 subtable" three.prop
Substitution2: "'dnom' Denominators lookup 11 subtable" three.denominator
Substitution2: "'sinf' Scientific Inferiors in Latin lookup 10 subtable" threeinferior
Substitution2: "'sups' Superscript in Latin lookup 9 subtable" three.superior
EndChar

StartChar: four
Encoding: 52 52 21
Width: 610
GlyphClass: 2
Flags: MW
HStem: 0 26<231 500 231 231> 202 43<68 309 68 309 436 462> 684 20G<351 436 436 436>
VStem: 309 127<141 147 147 202 109 202 245 537 537 583 583 583>
LayerCount: 2
Fore
SplineSet
21 242 m 1
 351 704 l 1
 436 704 l 1
 436 245 l 1
 460 245 532 245 576 245 c 1
 576 201 l 1
 530 201 488 202 436 202 c 1
 436 147 l 2
 436 71 449 28 500 26 c 1
 500 0 l 1
 231 0 l 1
 231 26 l 1
 299 29 309 65 309 141 c 2
 309 202 l 1
 21 202 l 1
 21 242 l 1
309 537 m 1
 309 583 l 1
 68 245 l 1
 309 245 l 1
 309 537 l 1
EndSplineSet
Substitution2: "'onum' Oldstyle Figures lookup 14 subtable" four.oldstyle
Substitution2: "'pnum' Proportional Numbers in Latin lookup 13 subtable" four.prop
Substitution2: "'dnom' Denominators lookup 11 subtable" four.denominator
Substitution2: "'sinf' Scientific Inferiors in Latin lookup 10 subtable" fourinferior
Substitution2: "'sups' Superscript in Latin lookup 9 subtable" four.superior
EndChar

StartChar: five
Encoding: 53 53 22
Width: 610
GlyphClass: 2
Flags: MW
HStem: -9 29<219 286> 434 31<303 351> 588 100<245 397> 684 20G<239 239 518 518>
VStem: 49 110 137 62 393 144<213.5 262.5 206.5 309.5>
LayerCount: 2
Fore
SplineSet
518 704 m 1xd6
 502 630 442 588 352 588 c 2
 245 588 l 1
 193 395 l 1
 224 428 l 2
 243 448 283 465 323 465 c 0
 425 465 490 407 521 334 c 0
 532 307 537 278 537 247 c 0
 537 166 499 105 452 65 c 0
 404 22 330 -9 242 -9 c 0
 159 -9 97 17 63 65 c 0
 53 81 49 98 49 116 c 0
 49 153 66 176 103 176 c 0
 144 176 149 139 159 108 c 0xea
 168 67 193 20 245 20 c 0
 359 20 393 159 393 268 c 0
 393 351 393 434 309 434 c 0
 256 434 217 380 199 331 c 0
 191 310 186 297 162 297 c 0
 145 297 137 305 137 320 c 0
 137 323 137 326 138 331 c 2
 239 704 l 1xd6
 256 699 274 695 295 691 c 0
 316 689 341 688 369 688 c 0xe6
 425 688 477 692 513 705 c 1
 518 704 l 1xd6
EndSplineSet
Substitution2: "'onum' Oldstyle Figures lookup 14 subtable" five.oldstyle
Substitution2: "'pnum' Proportional Numbers in Latin lookup 13 subtable" five.prop
Substitution2: "'dnom' Denominators lookup 11 subtable" five.denominator
Substitution2: "'sinf' Scientific Inferiors in Latin lookup 10 subtable" fiveinferior
Substitution2: "'sups' Superscript in Latin lookup 9 subtable" five.superior
EndChar

StartChar: six
Encoding: 54 54 23
Width: 610
GlyphClass: 2
Flags: MW
HStem: -9 30<268 346.5> 430 33<308 362> 674 30<312 367>
VStem: 43 150<256.5 275 275 324 222.5 362> 412 122 422 146<196.5 269.5 196.5 277>
LayerCount: 2
Fore
SplineSet
198 400 m 1xf8
 232 439 268 463 334 463 c 0
 405 463 464 435 500 397 c 0
 539 360 568 305 568 234 c 0xf4
 568 159 532 101 492 61 c 0
 451 21 385 -9 308 -9 c 0
 221 -9 159 28 117 79 c 0
 73 133 43 209 43 304 c 0
 43 420 84 520 137 587 c 0
 186 648 262 704 362 704 c 0
 411 704 455 694 484 675 c 0
 509 661 534 638 534 603 c 0
 534 567 511 547 475 547 c 0
 436 547 422 575 412 601 c 0
 400 632 400 674 334 674 c 0
 239 674 195 506 195 402 c 1
 198 400 l 1xf8
422 230 m 0
 422 324 403 430 321 430 c 0
 295 430 272 422 252 405 c 0
 232 388 212 361 193 324 c 1
 193 275 l 2
 193 170 225 21 311 21 c 0
 402 21 422 126 422 230 c 0
EndSplineSet
Substitution2: "'onum' Oldstyle Figures lookup 14 subtable" six.oldstyle
Substitution2: "'pnum' Proportional Numbers in Latin lookup 13 subtable" six.prop
Substitution2: "'dnom' Denominators lookup 11 subtable" six.denominator
Substitution2: "'sinf' Scientific Inferiors in Latin lookup 10 subtable" sixinferior
Substitution2: "'sups' Superscript in Latin lookup 9 subtable" six.superior
EndChar

StartChar: seven
Encoding: 55 55 24
Width: 610
GlyphClass: 2
Flags: MW
HStem: -9 21G<201.5 230.5> 588 107<229 241 241 477>
VStem: 119 30<749 749>
LayerCount: 2
Fore
SplineSet
220 -9 m 0
 183 -9 163 12 163 48 c 0
 163 75 169 85 180 107 c 0
 186 121 195 139 209 162 c 0
 240 211 315 315 344 361 c 0
 394 442 430 503 477 588 c 1
 241 588 l 2
 217 588 195 587 180 586 c 0
 135 583 110 566 96 532 c 2
 80 496 l 1
 52 496 l 1
 119 749 l 1
 149 749 l 1
 147 741 144 731 144 723 c 0
 144 712 150 705 160 700 c 0
 170 696 189 695 217 695 c 2
 552 695 l 1
 552 659 l 1
 513 579 483 516 449 443 c 0
 436 415 424 389 414 365 c 0
 391 311 374 259 352 200 c 0
 340 168 327 131 313 88 c 0
 301 53 288 28 274 13 c 0
 260 -1 241 -9 220 -9 c 0
EndSplineSet
Substitution2: "'onum' Oldstyle Figures lookup 14 subtable" seven.oldstyle
Substitution2: "'pnum' Proportional Numbers in Latin lookup 13 subtable" seven.prop
Substitution2: "'dnom' Denominators lookup 11 subtable" seven.denominator
Substitution2: "'sinf' Scientific Inferiors in Latin lookup 10 subtable" seveninferior
Substitution2: "'sups' Superscript in Latin lookup 9 subtable" seven.superior
EndChar

StartChar: eight
Encoding: 56 56 25
Width: 610
GlyphClass: 2
Flags: MW
HStem: -9 28<252.5 338> 676 28<254 330 237 340>
VStem: 62 113<135 180> 78 104<535 577.5> 412 101<530 566> 441 109<165.5 174.5>
LayerCount: 2
Fore
SplineSet
175 175 m 0xe4
 175 95 203 19 302 19 c 0
 380 19 441 85 441 162 c 0
 441 187 432 209 413 228 c 0
 394 247 367 268 326 283 c 2
 238 315 l 1
 188 288 175 243 175 175 c 0xe4
78 519 m 0xd0
 78 636 174 704 300 704 c 0
 360 704 412 689 450 666 c 0
 486 642 513 600 513 544 c 0xd8
 513 516 507 492 493 470 c 0
 479 448 440 430 408 407 c 1
 448 382 495 348 517 312 c 0
 539 277 550 240 550 199 c 0
 550 132 518 81 479 49 c 0
 437 14 376 -9 300 -9 c 0
 181 -9 62 48 62 163 c 0xe4
 62 197 73 229 94 259 c 0
 115 289 158 311 198 332 c 1
 141 371 78 432 78 519 c 0xd0
367 421 m 1
 396 445 412 484 412 531 c 0
 412 601 385 676 295 676 c 0
 213 676 182 617 182 556 c 0
 182 514 220 478 297 448 c 2
 367 421 l 1
EndSplineSet
Substitution2: "'onum' Oldstyle Figures lookup 14 subtable" eight.oldstyle
Substitution2: "'pnum' Proportional Numbers in Latin lookup 13 subtable" eight.prop
Substitution2: "'dnom' Denominators lookup 11 subtable" eight.denominator
Substitution2: "'sinf' Scientific Inferiors in Latin lookup 10 subtable" eightinferior
Substitution2: "'sups' Superscript in Latin lookup 9 subtable" eight.superior
EndChar

StartChar: nine
Encoding: 57 57 26
Width: 610
GlyphClass: 2
Flags: MW
HStem: -9 30<244 299> 232 33<249 303 249 310> 674 30<264.5 343>
VStem: 43 146<425.5 498.5> 77 122 418 150<371 420 420 438.5 333 472.5>
LayerCount: 2
Fore
SplineSet
413 295 m 1xec
 379 256 343 232 277 232 c 0
 206 232 147 260 111 298 c 0
 72 335 43 390 43 461 c 0xf4
 43 536 79 594 119 634 c 0
 160 674 226 704 303 704 c 0
 390 704 452 667 494 616 c 0
 538 562 568 486 568 391 c 0
 568 275 527 175 474 108 c 0
 425 47 349 -9 249 -9 c 0
 200 -9 156 1 127 20 c 0
 102 34 77 57 77 92 c 0
 77 128 100 148 136 148 c 0
 175 148 189 120 199 94 c 0
 211 63 211 21 277 21 c 0
 372 21 416 189 416 293 c 1
 413 295 l 1xec
189 465 m 0
 189 371 208 265 290 265 c 0
 316 265 339 273 359 290 c 0
 379 307 399 334 418 371 c 1
 418 420 l 2
 418 525 386 674 300 674 c 0
 209 674 189 569 189 465 c 0
EndSplineSet
Substitution2: "'onum' Oldstyle Figures lookup 14 subtable" nine.oldstyle
Substitution2: "'pnum' Proportional Numbers in Latin lookup 13 subtable" nine.prop
Substitution2: "'dnom' Denominators lookup 11 subtable" nine.denominator
Substitution2: "'sinf' Scientific Inferiors in Latin lookup 10 subtable" nineinferior
Substitution2: "'sups' Superscript in Latin lookup 9 subtable" nine.superior
EndChar

StartChar: colon
Encoding: 58 58 27
Width: 256
GlyphClass: 2
Flags: MW
HStem: -9 136<108.5 146> 276 136<108.5 146>
VStem: 60 137<39 77.5 324 362.5>
LayerCount: 2
Fore
SplineSet
127 -9 m 0
 90 -9 60 20 60 58 c 0
 60 97 89 127 127 127 c 0
 166 127 197 97 197 58 c 0
 197 20 165 -9 127 -9 c 0
127 276 m 0
 90 276 60 305 60 343 c 0
 60 382 89 412 127 412 c 0
 166 412 197 382 197 343 c 0
 197 305 165 276 127 276 c 0
EndSplineSet
EndChar

StartChar: semicolon
Encoding: 59 59 28
Width: 266
GlyphClass: 2
Flags: MW
HStem: 0 127<115 116.5> 276 136<115.5 152.5>
VStem: 66 137<43.5 67 27 77.5 324 362.5> 139 64<-1 67>
LayerCount: 2
Fore
SplineSet
134 127 m 0xe0
 180 127 203 91 203 43 c 0xe0
 203 11 193 -20 171 -51 c 0
 149 -80 115 -110 70 -140 c 1
 44 -102 l 1
 76 -80 102 -60 116 -43 c 0
 132 -26 139 -9 139 7 c 1xd0
 134 3 121 0 112 0 c 0
 84 0 66 29 66 58 c 0
 66 97 96 127 134 127 c 0xe0
134 276 m 0
 97 276 66 305 66 343 c 0
 66 382 96 412 134 412 c 0
 173 412 203 382 203 343 c 0
 203 305 171 276 134 276 c 0
EndSplineSet
EndChar

StartChar: less
Encoding: 60 60 29
Width: 535
GlyphClass: 2
Flags: MW
VStem: 32 55<303 303 303 332 303 332>
LayerCount: 2
Fore
SplineSet
466 127 m 1
 466 65 l 1
 32 274 l 1
 32 332 l 1
 466 542 l 1
 466 479 l 1
 87 303 l 1
 466 127 l 1
EndSplineSet
EndChar

StartChar: equal
Encoding: 61 61 30
Width: 557
GlyphClass: 2
Flags: MW
HStem: 218 55<64 494 64 494> 381 54<64 494 64 494>
LayerCount: 2
Fore
SplineSet
494 381 m 1
 64 381 l 1
 64 435 l 1
 494 435 l 1
 494 381 l 1
494 218 m 1
 64 218 l 1
 64 273 l 1
 494 273 l 1
 494 218 l 1
EndSplineSet
EndChar

StartChar: greater
Encoding: 62 62 31
Width: 535
GlyphClass: 2
Flags: MW
VStem: 449 54<303 303>
LayerCount: 2
Fore
SplineSet
449 303 m 1
 70 479 l 1
 70 542 l 1
 503 332 l 1
 503 274 l 1
 70 65 l 1
 70 127 l 1
 449 303 l 1
EndSplineSet
EndChar

StartChar: question
Encoding: 63 63 32
Width: 363
GlyphClass: 2
Flags: MW
HStem: -9 136<115.5 152.5> 325 105<168 179 107 217> 606 98<96 186>
VStem: 65 137<40 77.5 40 78> 107 61<216 325 216 430> 284 38
LayerCount: 2
Fore
SplineSet
322 478 m 0xf4
 322 381 266 325 168 325 c 1
 168 216 l 1
 107 216 l 1
 107 430 l 1xec
 138 430 l 2
 220 430 282 447 284 514 c 0
 285 549 266 584 237 598 c 0
 228 603 192 606 180 606 c 0
 158 606 129 596 108 596 c 0
 91 596 77 601 65 610 c 0
 54 621 49 634 49 649 c 0
 49 687 76 704 116 704 c 0
 180 704 227 672 260 635 c 0
 292 598 322 544 322 478 c 0xf4
134 -9 m 0
 97 -9 65 21 65 59 c 0
 65 97 97 127 134 127 c 0
 171 127 202 96 202 59 c 0xf4
 202 21 171 -9 134 -9 c 0
EndSplineSet
Substitution2: "'c2sc' Capitals to Small Capitals in Latin lookup 1 subtable" question.sc
Substitution2: "'smcp' Lowercase to Small Capitals in Latin lookup 0 subtable" question.sc
EndChar

StartChar: at
Encoding: 64 64 33
Width: 957
GlyphClass: 2
Flags: MW
HStem: -121 52<489.5 555> 70 49<408 418> 440 47<499 547> 458 20G<644 753 753 753> 654 50<478.5 588.5>
VStem: 36 114<207.5 329.5 188 340> 252 120<225.5 244.5 182 274> 860 52<343.5 421>
LayerCount: 2
Fore
SplineSet
513 487 m 0xef
 581 487 603 456 619 399 c 1
 623 399 l 1
 644 478 l 1
 753 478 l 1xdf
 690 273 l 2
 681 243 675 219 670 200 c 0
 666 181 664 168 664 160 c 0
 664 136 682 124 706 124 c 0
 754 124 790 169 811 204 c 0
 838 247 860 310 860 377 c 0
 860 465 819 533 769 576 c 0
 714 622 638 654 539 654 c 0
 418 654 326 607 262 543 c 0
 199 482 150 388 150 271 c 0
 150 105 242 0 367 -44 c 0
 412 -60 462 -69 517 -69 c 0
 621 -69 717 -38 806 22 c 1
 835 -15 l 1
 807 -34 779 -49 753 -63 c 0
 683 -100 607 -121 503 -121 c 0
 362 -121 246 -78 168 -11 c 0
 93 51 36 143 36 272 c 0
 36 408 103 510 179 579 c 0
 262 651 381 704 530 704 c 0
 649 704 741 669 807 615 c 0
 866 563 912 488 912 381 c 0
 912 247 848 144 761 95 c 0
 731 78 700 70 668 70 c 0
 600 70 568 110 562 173 c 1
 559 173 l 1
 539 140 515 115 487 97 c 0
 460 79 433 70 403 70 c 0
 331 70 285 118 264 172 c 0
 256 193 252 214 252 237 c 0
 252 311 292 372 334 410 c 0
 373 449 440 487 513 487 c 0xef
588 355 m 0
 588 404 570 440 524 440 c 0xef
 474 440 441 404 419 371 c 0
 393 332 372 276 372 213 c 0
 372 151 390 119 426 119 c 0
 473 119 511 165 534 198 c 0
 560 237 588 295 588 355 c 0
EndSplineSet
Substitution2: "'sups' Superscript in Latin lookup 9 subtable" at.superior
Substitution2: "'c2sc' Capitals to Small Capitals in Latin lookup 1 subtable" at.sc
Substitution2: "'smcp' Lowercase to Small Capitals in Latin lookup 0 subtable" at.sc
EndChar

StartChar: A
Encoding: 65 65 34
Width: 730
GlyphClass: 2
Flags: MW
HStem: 0 20<415 415 415 756> 218 38<181 425 181 440 168 425> 684 20G<329 396 396 396>
LayerCount: 2
Fore
SplineSet
415 20 m 1
 457 21 489 40 489 75 c 0
 489 83 488 93 483 107 c 0
 478 121 473 137 466 156 c 2
 440 218 l 1
 168 218 l 1
 140 154 121 102 121 78 c 0
 121 37 190 19 236 19 c 1
 236 0 l 1
 -12 0 l 1
 -12 19 l 1
 45 27 73 61 92 109 c 2
 329 704 l 1
 396 704 l 1
 612 177 l 2
 633 128 643 89 672 60 c 0
 695 39 716 24 756 20 c 1
 756 0 l 1
 415 0 l 1
 415 20 l 1
181 256 m 1
 425 256 l 1
 308 538 l 1
 295 538 l 1
 181 256 l 1
EndSplineSet
Substitution2: "'sups' Superscript in Latin lookup 9 subtable" A.superior
Substitution2: "Single Substitution lookup 8 subtable" ordfeminine
Substitution2: "'c2sc' Capitals to Small Capitals in Latin lookup 1 subtable" a.sc
EndChar

StartChar: B
Encoding: 66 66 35
Width: 719
GlyphClass: 2
Flags: MW
HStem: 0 20<30 377 30 30> 0 28<342 377> 351 28<258 301 258 311> 667 28<268.5 274 274 338> 675 20<49 338>
VStem: 125 133<124 131 131 351 379 571 571 589> 476 146<490.5 560.5> 529 155<148 196.5 148 249.5>
LayerCount: 2
Fore
SplineSet
338 695 m 2x35
 486 695 622 657 622 526 c 0x36
 622 455 571 405 468 375 c 1
 468 371 l 1
 568 371 639 328 669 258 c 0
 679 235 684 210 684 183 c 0
 684 113 647 71 598 45 c 0
 545 15 471 0 377 0 c 2x75
 30 0 l 1
 30 20 l 1
 82 22 113 29 122 73 c 0
 125 87 125 103 125 124 c 2
 125 571 l 2
 125 607 125 634 112 652 c 0
 100 668 77 673 49 675 c 1
 49 695 l 1xad
 338 695 l 2x35
258 131 m 2
 258 51 300 28 384 28 c 0
 481 28 529 98 529 186 c 0x65
 529 313 433 351 301 351 c 2
 258 351 l 1
 258 131 l 2
476 515 m 0x36
 476 606 430 667 338 667 c 2
 274 667 l 2
 263 667 258 662 258 652 c 2
 258 379 l 1
 311 379 l 2
 405 379 476 424 476 515 c 0x36
EndSplineSet
Substitution2: "'sups' Superscript in Latin lookup 9 subtable" B.superior
Substitution2: "'c2sc' Capitals to Small Capitals in Latin lookup 1 subtable" b.sc
EndChar

StartChar: C
Encoding: 67 67 36
Width: 742
GlyphClass: 2
Flags: MW
HStem: -9 28<345.5 450.5> 0 21G<667 700 667 667> 675 20G<648 682 682 682> 676 28<356 459.5 356 479.5>
VStem: 42 157<310 393.5> 638 26<467 467> 667 33<0 245>
LayerCount: 2
Fore
SplineSet
414 704 m 0x9e
 505 704 557 679 621 639 c 1
 648 695 l 1
 682 695 l 1x2e
 664 467 l 1
 638 467 l 1
 615 565 537 676 422 676 c 0
 259 676 199 505 199 341 c 0
 199 170 264 19 426 19 c 0x9e
 562 19 639 130 670 245 c 1
 700 245 l 1
 700 0 l 1
 667 0 l 1x4e
 644 71 l 1
 578 18 498 -9 403 -9 c 0
 288 -9 201 27 141 85 c 0
 109 114 85 151 69 193 c 0
 51 235 42 284 42 336 c 0
 42 451 85 543 146 602 c 0
 206 662 298 704 414 704 c 0x9e
EndSplineSet
Substitution2: "'sups' Superscript in Latin lookup 9 subtable" C.superior
Substitution2: "'c2sc' Capitals to Small Capitals in Latin lookup 1 subtable" c.sc
EndChar

StartChar: D
Encoding: 68 68 37
Width: 829
GlyphClass: 2
Flags: MW
HStem: 0 20<32 32 32 408> 0 28<351 408> 667 28<269 274 274 387> 675 20<46 389>
VStem: 126 133<123 131 131 572 572 599> 637 151<281 393 281 404.5>
LayerCount: 2
Fore
SplineSet
32 0 m 1x8c
 32 20 l 1
 52 21 67 23 79 26 c 0
 123 33 126 71 126 123 c 2
 126 572 l 2
 126 626 125 655 87 669 c 0
 77 671 63 674 46 675 c 1
 46 695 l 1x9c
 389 695 l 2
 511 695 609 653 675 593 c 0
 738 536 788 450 788 336 c 0
 788 226 741 149 682 94 c 0
 618 38 525 0 408 0 c 2x6c
 32 0 l 1x8c
392 28 m 0x6c
 558 28 637 162 637 334 c 0
 637 475 589 603 491 646 c 0
 460 660 426 667 387 667 c 2
 274 667 l 2
 264 667 259 662 259 652 c 2
 259 131 l 2
 259 54 310 28 392 28 c 0x6c
EndSplineSet
Substitution2: "'sups' Superscript in Latin lookup 9 subtable" D.superior
Substitution2: "'c2sc' Capitals to Small Capitals in Latin lookup 1 subtable" d.sc
EndChar

StartChar: E
Encoding: 69 69 38
Width: 689
GlyphClass: 2
Flags: MW
HStem: 0 20<32 644 32 32> 0 28<387 444.5 387 644> 349 28<259 291> 667 28<278 293 293 395> 675 20<42 612>
VStem: 126 133<123 131 131 349 377 572 572 598.5> 447 27<230 495 230 495> 589 29<518 518> 632 26<207 207>
LayerCount: 2
Fore
SplineSet
293 667 m 2x3780
 263 667 259 664 259 634 c 2
 259 377 l 1
 340 377 414 379 434 434 c 0
 439 448 444 471 447 495 c 1
 474 495 l 1
 474 230 l 1
 447 230 l 1
 440 273 433 313 403 330 c 0
 366 349 323 349 259 349 c 1
 259 131 l 2
 259 94 269 64 292 50 c 0
 321 31 361 28 413 28 c 0x7780
 476 28 527 33 560 60 c 0
 595 88 621 152 632 207 c 1
 658 207 l 1
 644 0 l 1
 32 0 l 1
 32 20 l 1
 84 23 114 28 123 72 c 0
 126 86 126 102 126 123 c 2
 126 572 l 2
 126 625 123 656 85 669 c 0
 74 671 60 674 42 675 c 1
 42 695 l 1
 612 695 l 1xaf80
 618 518 l 1
 589 518 l 1
 578 588 546 649 477 661 c 0
 454 666 427 667 395 667 c 2
 293 667 l 2x3780
EndSplineSet
Substitution2: "'sups' Superscript in Latin lookup 9 subtable" E.superior
Substitution2: "'c2sc' Capitals to Small Capitals in Latin lookup 1 subtable" e.sc
EndChar

StartChar: F
Encoding: 70 70 39
Width: 621
GlyphClass: 2
Flags: MW
HStem: 0 20<32 391 32 32> 330 29<259 276.5> 667 28<269.5 275 275 400> 675 20<42 594>
VStem: 126 133<123 129 129 330 359 572 572 598.5> 440 27<203 486 203 486> 577 28<505 505>
LayerCount: 2
Fore
SplineSet
259 129 m 2xee
 259 90 262 58 282 42 c 0
 306 22 344 22 391 20 c 1
 391 0 l 1
 32 0 l 1
 32 20 l 1
 84 23 114 28 123 72 c 0
 126 86 126 102 126 123 c 2
 126 572 l 2
 126 625 123 656 85 669 c 0
 74 671 60 674 42 675 c 1
 42 695 l 1
 594 695 l 1xde
 605 505 l 1
 577 505 l 1
 570 553 550 611 522 637 c 0
 494 660 453 667 400 667 c 2
 275 667 l 2
 264 667 259 662 259 652 c 2
 259 359 l 1
 341 359 405 367 427 423 c 0
 433 438 437 462 440 486 c 1
 467 486 l 1
 467 203 l 1
 440 203 l 1
 429 274 412 317 340 326 c 0
 317 329 294 330 259 330 c 1
 259 129 l 2xee
EndSplineSet
Substitution2: "'sups' Superscript in Latin lookup 9 subtable" F.superior
Substitution2: "'c2sc' Capitals to Small Capitals in Latin lookup 1 subtable" f.sc
EndChar

StartChar: G
Encoding: 71 71 40
Width: 790
GlyphClass: 2
Flags: MW
HStem: -9 28<338.5 430> 295 25<485 777 746 777> 675 20G<649 672 672 672> 676 28<348 452.5 348 476>
VStem: 42 157<308.5 393> 579 120<151.5 206 75 230.5> 636 36<467 695>
LayerCount: 2
Fore
SplineSet
777 295 m 1xdc
 715 295 699 269 699 206 c 2
 699 75 l 1
 685 75 674 74 665 74 c 0
 656 72 647 71 639 69 c 0
 614 58 595 48 569 32 c 0
 523 5 465 -9 395 -9 c 0
 223 -9 117 69 67 191 c 0
 51 234 42 282 42 335 c 0
 42 451 84 542 144 602 c 0
 204 662 290 704 406 704 c 0xdc
 499 704 555 679 622 639 c 1
 649 695 l 1
 672 695 l 1
 672 467 l 1
 636 467 l 1xea
 614 570 535 676 417 676 c 0
 261 676 199 510 199 342 c 0
 199 175 260 19 417 19 c 0
 515 19 579 104 579 199 c 0
 579 262 547 290 485 295 c 1
 485 320 l 1
 777 320 l 1
 777 295 l 1xdc
EndSplineSet
Substitution2: "'sups' Superscript in Latin lookup 9 subtable" G.superior
Substitution2: "'c2sc' Capitals to Small Capitals in Latin lookup 1 subtable" g.sc
EndChar

StartChar: H
Encoding: 72 72 41
Width: 852
GlyphClass: 2
Flags: MW
HStem: 0 20<32 362 32 32> 338 36<259 594 259 594> 675 20<42 353 42 353>
VStem: 126 133<123 129 129 338 374 566> 594 133<123 129 129 338 338 338 374 566>
LayerCount: 2
Fore
SplineSet
727 129 m 2
 727 72 728 36 773 26 c 0
 785 23 800 21 821 20 c 1
 821 0 l 1
 490 0 l 1
 490 20 l 1
 529 22 557 24 576 41 c 0
 592 57 594 88 594 123 c 2
 594 338 l 1
 259 338 l 1
 259 129 l 2
 259 71 263 36 309 26 c 0
 322 23 339 21 362 20 c 1
 362 0 l 1
 32 0 l 1
 32 20 l 1
 84 22 114 28 123 72 c 0
 126 86 126 102 126 123 c 2
 126 572 l 2
 126 625 123 656 85 669 c 0
 74 671 60 674 42 675 c 1
 42 695 l 1
 353 695 l 1
 353 675 l 1
 319 673 289 672 275 653 c 0
 260 633 259 605 259 566 c 2
 259 374 l 1
 594 374 l 1
 594 572 l 2
 594 607 591 636 577 653 c 0
 564 671 533 673 499 675 c 1
 499 695 l 1
 811 695 l 1
 811 675 l 1
 780 673 755 671 742 653 c 0
 727 633 727 606 727 566 c 2
 727 129 l 2
EndSplineSet
Substitution2: "'sups' Superscript in Latin lookup 9 subtable" H.superior
Substitution2: "'c2sc' Capitals to Small Capitals in Latin lookup 1 subtable" h.sc
EndChar

StartChar: I
Encoding: 73 73 42
Width: 387
GlyphClass: 2
Flags: MW
HStem: 0 20<32 355 32 32> 675 20<42 346 42 346>
VStem: 127 133<150 545>
LayerCount: 2
Fore
SplineSet
355 0 m 1
 32 0 l 1
 32 20 l 1
 67 22 97 24 110 44 c 0
 126 69 127 102 127 150 c 2
 127 545 l 2
 127 605 126 650 87 668 c 0
 75 672 61 674 42 675 c 1
 42 695 l 1
 346 695 l 1
 346 675 l 1
 311 673 288 668 275 647 c 0
 269 637 266 624 264 608 c 0
 261 591 260 570 260 545 c 2
 260 150 l 2
 260 122 261 99 264 83 c 0
 270 30 298 23 355 20 c 1
 355 0 l 1
EndSplineSet
Substitution2: "'sups' Superscript in Latin lookup 9 subtable" I.superior
Substitution2: "'c2sc' Capitals to Small Capitals in Latin lookup 1 subtable" i.sc
EndChar

StartChar: J
Encoding: 74 74 43
Width: 367
GlyphClass: 2
Flags: MW
HStem: -235 37<28.5 80 28.5 96> 675 20<32 336 32 336>
VStem: 117 133<-21 -2 -2 566>
LayerCount: 2
Fore
SplineSet
47 -198 m 0
 113 -198 117 -99 117 -21 c 2
 117 572 l 2
 117 625 114 656 76 669 c 0
 65 671 51 674 32 675 c 1
 32 695 l 1
 336 695 l 1
 336 675 l 1
 304 673 277 671 264 653 c 0
 250 634 250 603 250 566 c 2
 250 -2 l 2
 250 -153 172 -235 20 -235 c 0
 -35 -235 -78 -226 -107 -207 c 0
 -138 -188 -152 -164 -152 -135 c 0
 -152 -102 -125 -81 -94 -81 c 0
 -80 -81 -69 -85 -61 -92 c 0
 -52 -99 -43 -113 -31 -133 c 0
 -13 -163 10 -198 47 -198 c 0
EndSplineSet
Substitution2: "'sups' Superscript in Latin lookup 9 subtable" J.superior
Substitution2: "'c2sc' Capitals to Small Capitals in Latin lookup 1 subtable" j.sc
EndChar

StartChar: K
Encoding: 75 75 44
Width: 741
GlyphClass: 2
Flags: MW
HStem: 0 20<32 345 32 32> 674 21<42 353 42 353 452 463.5>
VStem: 126 133<123 129 129 269 565 571 571 584.5>
LayerCount: 2
Fore
SplineSet
427 20 m 1
 458 21 500 20 500 44 c 0
 500 58 493 68 485 78 c 0
 480 83 475 91 468 99 c 2
 304 316 l 1
 259 269 l 1
 259 129 l 2
 259 76 260 37 300 26 c 0
 312 23 326 21 345 20 c 1
 345 0 l 1
 32 0 l 1
 32 20 l 1
 84 23 114 28 123 72 c 0
 126 86 126 102 126 123 c 2
 126 571 l 2
 126 621 124 658 85 668 c 0
 74 671 60 673 42 674 c 1
 42 695 l 1
 353 695 l 1
 353 674 l 1
 319 672 289 671 275 652 c 0
 260 632 259 604 259 565 c 2
 260 309 l 1
 493 568 l 2
 507 583 514 613 514 623 c 0
 514 629 510 647 500 658 c 0
 494 665 475 674 452 674 c 1
 452 695 l 1
 699 695 l 1
 699 675 l 1
 650 672 630 670 601 644 c 0
 588 632 573 618 555 599 c 2
 394 416 l 1
 660 67 l 2
 685 38 710 22 761 20 c 1
 761 0 l 1
 427 0 l 1
 427 20 l 1
EndSplineSet
Substitution2: "'sups' Superscript in Latin lookup 9 subtable" K.superior
Substitution2: "'c2sc' Capitals to Small Capitals in Latin lookup 1 subtable" k.sc
EndChar

StartChar: L
Encoding: 76 76 45
Width: 681
GlyphClass: 2
Flags: MW
HStem: 0 20<32 653 32 32> 0 28<394 454 394 653> 675 20<42 353 42 353>
VStem: 126 133<126 149 149 566> 632 36<205 205>
LayerCount: 2
Fore
SplineSet
653 0 m 1xb8
 32 0 l 1
 32 20 l 1xb8
 84 23 114 28 123 72 c 0
 126 86 126 102 126 123 c 2
 126 572 l 2
 126 625 123 656 85 669 c 0
 74 671 60 674 42 675 c 1
 42 695 l 1
 353 695 l 1
 353 675 l 1
 319 673 289 672 275 653 c 0
 260 633 259 605 259 566 c 2
 259 149 l 2
 259 103 266 68 293 50 c 0
 325 31 366 28 422 28 c 0x78
 486 28 534 32 569 57 c 0
 604 86 621 148 632 205 c 1
 668 205 l 1
 653 0 l 1xb8
EndSplineSet
Substitution2: "'sups' Superscript in Latin lookup 9 subtable" L.superior
Substitution2: "'c2sc' Capitals to Small Capitals in Latin lookup 1 subtable" l.sc
EndChar

StartChar: M
Encoding: 77 77 46
Width: 997
GlyphClass: 2
Flags: MW
HStem: -9 21G<441 488 441 441> 0 20<27 305 27 27> 675 20<37 55 942 960>
VStem: 152 30<150 156 156 545 545 566.5> 735 133<150 156 156 539>
LayerCount: 2
Fore
SplineSet
528 169 m 1x78
 737 695 l 1
 960 695 l 1
 960 675 l 1
 924 675 897 669 884 648 c 0
 868 622 868 587 868 539 c 2
 868 156 l 2
 868 91 866 37 917 26 c 0
 930 23 947 21 970 20 c 1
 970 0 l 1
 631 0 l 1
 631 20 l 1x78
 671 22 699 24 717 44 c 0
 735 67 735 104 735 150 c 2
 735 588 l 1
 730 588 l 1
 488 -9 l 1
 441 -9 l 1xb8
 190 588 l 1
 182 588 l 1
 182 156 l 2
 182 91 201 38 251 26 c 0
 265 23 282 21 305 20 c 1
 305 0 l 1
 27 0 l 1
 27 20 l 1
 66 22 106 24 124 44 c 0
 142 67 152 104 152 150 c 2
 152 545 l 2
 152 588 140 624 125 648 c 0
 113 670 73 675 37 675 c 1
 37 695 l 1
 294 695 l 1
 505 169 l 1
 528 169 l 1x78
EndSplineSet
Substitution2: "'sups' Superscript in Latin lookup 9 subtable" M.superior
Substitution2: "'c2sc' Capitals to Small Capitals in Latin lookup 1 subtable" m.sc
EndChar

StartChar: N
Encoding: 78 78 47
Width: 808
GlyphClass: 2
Flags: MW
HStem: -9 21G<585 585 585 666> 0 20<27 295 27 27> 675 20<36 268>
VStem: 151 30<150 156 156 545 545 561> 635 31<173 539 539 545 -9 570.5>
LayerCount: 2
Fore
SplineSet
585 -9 m 1xb8
 185 561 l 1
 181 561 l 1
 181 156 l 2
 181 92 198 37 247 26 c 0
 259 23 275 21 295 20 c 1
 295 0 l 1
 27 0 l 1
 27 20 l 1x78
 65 22 106 24 122 44 c 0
 141 66 151 104 151 150 c 2
 151 545 l 2
 151 588 139 622 124 647 c 0
 111 669 73 673 36 675 c 1
 36 695 l 1
 268 695 l 1
 632 173 l 1
 635 173 l 1
 635 539 l 2
 635 602 618 657 570 669 c 0
 557 672 541 674 521 675 c 1
 521 695 l 1
 789 695 l 1
 789 675 l 1
 749 673 712 671 694 651 c 0
 676 628 666 592 666 545 c 2
 666 -9 l 1
 585 -9 l 1xb8
EndSplineSet
Substitution2: "'sups' Superscript in Latin lookup 9 subtable" N.superior
Substitution2: "'c2sc' Capitals to Small Capitals in Latin lookup 1 subtable" n.sc
EndChar

StartChar: O
Encoding: 79 79 48
Width: 851
GlyphClass: 2
Flags: MW
HStem: -9 29<367.5 484> 675 29<367 485 367 507.5>
VStem: 41 157<286.5 399> 654 157<317 399 286.5 422.5>
LayerCount: 2
Fore
SplineSet
426 704 m 0
 544 704 636 658 700 599 c 0
 762 541 811 456 811 342 c 0
 811 231 761 150 699 94 c 0
 637 36 542 -9 426 -9 c 0
 309 -9 217 36 153 94 c 0
 91 149 41 231 41 342 c 0
 41 456 90 541 152 599 c 0
 216 658 308 704 426 704 c 0
426 20 m 0
 546 20 610 124 639 218 c 0
 649 254 654 295 654 339 c 0
 654 506 589 675 426 675 c 0
 263 675 198 506 198 339 c 0
 198 177 267 20 426 20 c 0
EndSplineSet
Substitution2: "'sups' Superscript in Latin lookup 9 subtable" O.superior
Substitution2: "Single Substitution lookup 8 subtable" ordmasculine
Substitution2: "'c2sc' Capitals to Small Capitals in Latin lookup 1 subtable" o.sc
EndChar

StartChar: P
Encoding: 80 80 49
Width: 647
GlyphClass: 2
Flags: MW
HStem: 0 20<367 390 32 32> 302 38<259 318 318 336 259 318> 667 28<269.5 275 275 345> 675 20<42 354>
VStem: 126 133<123 128 128 302 340 572 572 598.5> 487 145<469.5 549>
LayerCount: 2
Fore
SplineSet
354 695 m 2xec
 511 695 632 647 632 502 c 0
 632 437 607 387 556 354 c 0
 505 320 433 302 336 302 c 2
 259 302 l 1
 259 128 l 2
 259 87 261 56 283 39 c 0
 306 20 344 20 390 20 c 1
 390 0 l 1
 32 0 l 1
 32 20 l 1
 84 23 114 28 123 72 c 0
 126 86 126 102 126 123 c 2
 126 572 l 2
 126 625 123 656 85 669 c 0
 74 671 60 674 42 675 c 1
 42 695 l 1xdc
 354 695 l 2xec
487 503 m 0
 487 595 439 667 345 667 c 2
 275 667 l 2xec
 264 667 259 662 259 652 c 2
 259 340 l 1
 318 340 l 2
 429 340 487 396 487 503 c 0
EndSplineSet
Substitution2: "'sups' Superscript in Latin lookup 9 subtable" P.superior
Substitution2: "'c2sc' Capitals to Small Capitals in Latin lookup 1 subtable" p.sc
EndChar

StartChar: Q
Encoding: 81 81 50
Width: 856
GlyphClass: 2
Flags: HMW
HStem: -235 103<679 705> -176 181<227 507> -125 47<340.5 422> 676 28<366.5 484 366.5 507>
VStem: 42 157<316 397.5> 659 157<262.5 397 262.5 422>
LayerCount: 2
Fore
SplineSet
434 -29 m 5x5c
 508 -72 608.583863922 -132 705 -132 c 0
 766 -132 794 -111 811 -65 c 1
 844 -65 l 1
 846 -79 848 -90 848 -104 c 0
 848 -187.588815775 762.515828699 -235 681 -235 c 0
 648 -235 616 -230 587 -218 c 0
 532 -195 479 -167 428 -142 c 0
 404 -130 380 -125 357 -125 c 0xbc
 324 -125 309 -139 289 -150 c 0
 284.645935364 -154.354064636 261.707974884 -176 236 -176 c 0
 218 -176 202 -168 202 -151 c 0
 202 -141.468321304 202.596281902 -124.626082135 268 -88 c 2
 382 -24 l 1
 160.30555084 -0.90682821247 42 171.329125983 42 340 c 0
 42 560.949271866 223.600313372 704 425 704 c 0
 642.969423529 704 816 545.088578385 816 341 c 0
 816 184 722 82 614 22 c 0
 604 17 593.027192039 9.93423263133 581 5 c 0
 542 -11 500.668945312 -10.8212890625 455 -23 c 4
 440 -27 449 -24 434 -29 c 5x5c
425 5 m 0x5c
 589 5 659 170 659 338 c 0
 659 506 589 676 425 676 c 0
 261 676 199 504 199 338 c 0
 199 172 262 5 425 5 c 0x5c
EndSplineSet
Substitution2: "'sups' Superscript in Latin lookup 9 subtable" Q.superior
Substitution2: "'c2sc' Capitals to Small Capitals in Latin lookup 1 subtable" q.sc
EndChar

StartChar: R
Encoding: 82 82 51
Width: 735
GlyphClass: 2
Flags: MW
HStem: 0 20<32 59 366 390 32 59 743 767> 320 28<259 264> 667 28<269.5 275 275 354> 675 20<42 354>
VStem: 126 133<123 128 128 320 348 572 572 599> 487 140<463.5 555.5>
LayerCount: 2
Fore
SplineSet
354 695 m 2xec
 498 695 627 650 627 521 c 0
 627 403 555 349 446 328 c 1
 655 72 l 2
 679 43 719 20 767 20 c 1
 767 0 l 1
 553 0 l 1
 329 274 l 2
 314 292 302 305 291 310 c 0
 279 317 269 320 259 320 c 1
 259 128 l 2
 259 87 262 58 282 40 c 0
 304 21 342 20 390 20 c 1
 390 0 l 1
 32 0 l 1
 32 20 l 1
 86 20 113 29 123 71 c 0
 126 85 126 102 126 123 c 2
 126 572 l 2
 126 626 125 655 87 669 c 0
 75 671 61 674 42 675 c 1
 42 695 l 1xdc
 354 695 l 2xec
487 516 m 0
 487 595 434 667 354 667 c 2
 275 667 l 2xec
 264 667 259 662 259 652 c 2
 259 348 l 1
 318 348 l 2
 426 348 487 411 487 516 c 0
EndSplineSet
Substitution2: "'sups' Superscript in Latin lookup 9 subtable" R.superior
Substitution2: "'c2sc' Capitals to Small Capitals in Latin lookup 1 subtable" r.sc
EndChar

StartChar: S
Encoding: 83 83 52
Width: 598
GlyphClass: 2
Flags: MW
HStem: -9 29<246 325.5 233.5 329.5> 0 21G<62 82 62 62> 676 28<271.5 324.5 271.5 341>
VStem: 65 103<545.5 561> 441 117<163.5 165.5>
LayerCount: 2
Fore
SplineSet
289 -9 m 0xb8
 203 -9 156 14 102 54 c 1
 82 0 l 1
 62 0 l 1x78
 49 230 l 1
 76 230 l 1
 91 125 176 20 291 20 c 0
 360 20 441 78 441 148 c 0
 441 183 431 209 409 226 c 0
 396 237 379 246 357 256 c 0
 334 266 307 278 272 292 c 0
 202 319 149 350 116 386 c 0
 83 421 65 464 65 513 c 0
 65 609 124 666 197 690 c 0
 225 700 255 704 288 704 c 0
 361 704 409 680 455 646 c 1
 474 691 l 1
 493 691 l 1
 503 496 l 1
 476 496 l 1
 453 579 389 676 293 676 c 0
 227 676 168 625 168 561 c 0
 168 530 177 503 198 488 c 0
 232 462 269 449 321 430 c 0
 363 414 399 397 430 381 c 0
 480 351 522 318 544 267 c 0
 553 246 558 223 558 198 c 0
 558 129 524 81 482 49 c 0
 436 13 370 -9 289 -9 c 0xb8
EndSplineSet
Substitution2: "'sups' Superscript in Latin lookup 9 subtable" S.superior
Substitution2: "'c2sc' Capitals to Small Capitals in Latin lookup 1 subtable" s.sc
EndChar

StartChar: T
Encoding: 84 84 53
Width: 746
GlyphClass: 2
Flags: MW
HStem: 0 20<181 560 181 181> 667 28<190 222 533.5 569.5>
VStem: 11 25<496 496> 305 133<131 639> 707 29<496 496>
LayerCount: 2
Fore
SplineSet
305 639 m 2
 305 662 286 665 260 665 c 0
 248 667 232 667 212 667 c 0
 168 667 124 665 97 645 c 0
 61 621 38 560 36 496 c 1
 11 496 l 1
 20 695 l 1
 727 695 l 1
 736 496 l 1
 707 496 l 1
 703 551 683 609 654 636 c 0
 627 659 594 667 545 667 c 0
 522 667 503 667 489 665 c 0
 461 663 438 665 438 639 c 2
 438 131 l 2
 438 93 442 67 459 47 c 0
 480 26 514 22 560 20 c 1
 560 0 l 1
 181 0 l 1
 181 20 l 1
 247 22 287 30 301 81 c 0
 303 95 305 112 305 131 c 2
 305 639 l 2
EndSplineSet
Substitution2: "'sups' Superscript in Latin lookup 9 subtable" T.superior
Substitution2: "'c2sc' Capitals to Small Capitals in Latin lookup 1 subtable" t.sc
EndChar

StartChar: U
Encoding: 85 85 54
Width: 794
GlyphClass: 2
Flags: MW
HStem: -9 31 675 20<24 34.5 322.5 348 495 515 762 787>
VStem: 111 133<246 257 257 510> 620 48<263 280 280 487>
LayerCount: 2
Fore
SplineSet
244 257 m 2
 244 126 295 23 422 22 c 0
 558 21 620 92 620 263 c 2
 620 487 l 2
 620 529 620 564 615 598 c 0
 610 620 607 638 594 651 c 0
 576 669 535 675 495 675 c 1
 495 695 l 1
 787 695 l 1
 787 675 l 1
 737 675 694 667 681 632 c 0
 673 609 672 582 669 552 c 0
 669 534 668 512 668 487 c 2
 668 280 l 2
 668 77 595 -9 391 -9 c 0
 203 -9 111 63 111 246 c 2
 111 510 l 2
 111 549 110 578 107 609 c 0
 104 641 97 662 71 670 c 0
 61 673 45 675 24 675 c 1
 24 695 l 1
 348 695 l 1
 348 675 l 1
 297 675 265 673 255 637 c 0
 247 620 247 597 245 569 c 0
 244 553 244 533 244 510 c 2
 244 257 l 2
EndSplineSet
Substitution2: "'sups' Superscript in Latin lookup 9 subtable" U.superior
Substitution2: "'c2sc' Capitals to Small Capitals in Latin lookup 1 subtable" u.sc
EndChar

StartChar: V
Encoding: 86 86 55
Width: 726
GlyphClass: 2
Flags: MW
HStem: -9 21G<332 379 332 332> 674 21<-28 -9 -28 313>
LayerCount: 2
Fore
SplineSet
407 171 m 1
 525 472 l 2
 544 519 555 550 568 590 c 0
 574 609 577 621 577 640 c 0
 577 654 572 664 561 668 c 0
 550 673 516 675 484 675 c 1
 484 695 l 1
 740 695 l 1
 740 675 l 1
 690 675 635 651 616 602 c 2
 379 -9 l 1
 332 -9 l 1
 116 534 l 2
 96 580 83 619 53 646 c 0
 33 666 10 674 -28 674 c 1
 -28 695 l 1
 313 695 l 1
 313 674 l 1
 281 672 249 673 236 655 c 0
 233 650 233 644 233 638 c 0
 233 612 242 591 251 567 c 2
 407 171 l 1
EndSplineSet
Substitution2: "'sups' Superscript in Latin lookup 9 subtable" V.superior
Substitution2: "'c2sc' Capitals to Small Capitals in Latin lookup 1 subtable" v.sc
EndChar

StartChar: W
Encoding: 87 87 56
Width: 1107
GlyphClass: 2
Flags: MW
HStem: -9 21G<309 372 309 309 719 785 719 719> 674 21<-25 -7.5 293.5 316 724.5 746>
LayerCount: 2
Fore
SplineSet
746 674 m 1
 703 674 668 669 668 628 c 0
 668 601 676 579 683 555 c 2
 805 162 l 1
 941 540 l 2
 956 581 963 610 963 630 c 0
 963 671 910 675 865 675 c 1
 865 695 l 1
 1121 695 l 1
 1121 675 l 1
 1065 675 1019 646 1002 602 c 2
 785 -9 l 1
 719 -9 l 1
 560 514 l 1
 372 -9 l 1
 309 -9 l 1
 117 534 l 2
 98 583 86 623 55 651 c 0
 35 669 10 674 -25 674 c 1
 -25 695 l 1
 316 695 l 1
 316 674 l 1
 271 674 236 673 236 637 c 0
 236 625 236 617 240 608 c 0
 246 590 250 576 258 555 c 2
 397 163 l 1
 547 590 l 1
 533 628 503 656 464 668 c 0
 454 670 441 672 427 674 c 1
 427 695 l 1
 746 695 l 1
 746 674 l 1
EndSplineSet
Substitution2: "'sups' Superscript in Latin lookup 9 subtable" W.superior
Substitution2: "'c2sc' Capitals to Small Capitals in Latin lookup 1 subtable" w.sc
EndChar

StartChar: X
Encoding: 88 88 57
Width: 765
GlyphClass: 2
Flags: MW
HStem: 0 20<-2 21 257.5 275 -2 21 439 453.5 747 775> 675 20<9 35.5 331 348 476 492 722.5 745>
LayerCount: 2
Fore
SplineSet
572 645 m 0
 572 675 508 675 476 675 c 1
 476 695 l 1
 745 695 l 1
 745 675 l 1
 700 675 658 683 639 660 c 2
 435 398 l 1
 661 84 l 2
 686 48 719 20 775 20 c 1
 775 0 l 1
 439 0 l 1
 439 20 l 1
 468 20 522 19 522 46 c 0
 522 56 517 64 512 72 c 0
 500 91 490 106 474 128 c 2
 355 293 l 1
 271 185 l 2
 239 148 233 139 207 105 c 0
 198 93 188 72 188 47 c 0
 188 22 240 20 275 20 c 1
 275 0 l 1
 -2 0 l 1
 -2 20 l 1
 44 20 93 22 114 46 c 0
 123 53 132 62 142 74 c 2
 336 321 l 1
 113 623 l 2
 86 659 62 675 9 675 c 1
 9 695 l 1
 348 695 l 1
 348 675 l 1
 314 675 277 670 277 642 c 0
 277 626 286 606 304 582 c 2
 415 427 l 1
 547 591 l 2
 556 602 561 612 566 621 c 0
 570 629 572 637 572 645 c 0
EndSplineSet
Substitution2: "'sups' Superscript in Latin lookup 9 subtable" X.superior
Substitution2: "'c2sc' Capitals to Small Capitals in Latin lookup 1 subtable" x.sc
EndChar

StartChar: Y
Encoding: 89 89 58
Width: 685
GlyphClass: 2
Flags: MW
HStem: 0 20<183 200.5 488 505 183 200.5> 675 20<-13 18.5 273 291 478 495.5 688 705>
VStem: 278 133<150 156 132 249 132 249>
LayerCount: 2
Fore
SplineSet
560 645 m 0
 560 672 513 675 478 675 c 1
 478 695 l 1
 705 695 l 1
 705 675 l 1
 671 675 643 663 623 644 c 0
 604 626 559 546 526 490 c 2
 410 296 l 1
 411 156 l 2
 411 108 411 69 430 44 c 0
 442 23 471 20 505 20 c 1
 505 0 l 1
 183 0 l 1
 183 20 l 1
 218 20 244 24 259 43 c 0
 277 66 278 104 278 150 c 2
 278 249 l 1
 91 581 l 2
 66 622 50 675 -13 675 c 1
 -13 695 l 1
 291 695 l 1
 291 675 l 1
 255 675 212 673 212 646 c 0
 212 640 213 632 217 624 c 0
 221 616 237 588 245 574 c 2
 385 328 l 1
 391 328 l 1
 505 517 l 2
 525 550 539 576 547 592 c 0
 555 609 560 635 560 645 c 0
EndSplineSet
Substitution2: "'sups' Superscript in Latin lookup 9 subtable" Y.superior
Substitution2: "'c2sc' Capitals to Small Capitals in Latin lookup 1 subtable" y.sc
EndChar

StartChar: Z
Encoding: 90 90 59
Width: 719
GlyphClass: 2
Flags: MW
HStem: 0 28<187 465 465 511> 667 28<217 239 239 482>
VStem: 57 25<511 511> 654 32<230 230>
LayerCount: 2
Fore
SplineSet
674 0 m 1
 14 0 l 1
 14 21 l 1
 482 667 l 1
 239 667 l 2
 195 667 161 657 139 634 c 0
 116 611 90 558 82 511 c 1
 57 511 l 1
 71 695 l 1
 656 695 l 1
 656 674 l 1
 187 28 l 1
 465 28 l 2
 557 28 615 73 636 143 c 0
 643 166 649 195 654 230 c 1
 686 230 l 1
 674 0 l 1
EndSplineSet
Substitution2: "'sups' Superscript in Latin lookup 9 subtable" Z.superior
Substitution2: "'c2sc' Capitals to Small Capitals in Latin lookup 1 subtable" z.sc
EndChar

StartChar: bracketleft
Encoding: 91 91 60
Width: 353
GlyphClass: 2
Flags: MW
HStem: -175 47<199 342 199 342> 708 47<199 199 199 342>
VStem: 87 112<-128 708 -128 755 -128 755>
LayerCount: 2
Fore
SplineSet
199 708 m 1
 199 -128 l 1
 342 -128 l 1
 342 -175 l 1
 87 -175 l 1
 87 755 l 1
 342 755 l 1
 342 708 l 1
 199 708 l 1
EndSplineSet
Substitution2: "'sups' Superscript in Latin lookup 9 subtable" bracketleft.superior
Substitution2: "'c2sc' Capitals to Small Capitals in Latin lookup 1 subtable" bracketleft.sc
Substitution2: "'smcp' Lowercase to Small Capitals in Latin lookup 0 subtable" bracketleft.sc
EndChar

StartChar: backslash
Encoding: 92 92 61
Width: 430
GlyphClass: 2
Flags: MW
HStem: 0 21G<346 410 346 346> 675 20G<20 75 75 75>
LayerCount: 2
Fore
SplineSet
20 695 m 1
 75 695 l 1
 410 0 l 1
 346 0 l 1
 20 695 l 1
EndSplineSet
Substitution2: "'sups' Superscript in Latin lookup 9 subtable" backslash.superior
Substitution2: "'c2sc' Capitals to Small Capitals in Latin lookup 1 subtable" backslash.sc
Substitution2: "'smcp' Lowercase to Small Capitals in Latin lookup 0 subtable" backslash.sc
EndChar

StartChar: bracketright
Encoding: 93 93 62
Width: 353
GlyphClass: 2
Flags: MW
HStem: -175 47<12 155 12 267 12 155> 708 47<12 267 12 155>
VStem: 155 112<-128 708 708 708>
LayerCount: 2
Fore
SplineSet
12 708 m 1
 12 755 l 1
 267 755 l 1
 267 -175 l 1
 12 -175 l 1
 12 -128 l 1
 155 -128 l 1
 155 708 l 1
 12 708 l 1
EndSplineSet
Substitution2: "'sups' Superscript in Latin lookup 9 subtable" bracketright.superior
Substitution2: "'c2sc' Capitals to Small Capitals in Latin lookup 1 subtable" bracketright.sc
Substitution2: "'smcp' Lowercase to Small Capitals in Latin lookup 0 subtable" bracketright.sc
EndChar

StartChar: asciicircum
Encoding: 94 94 63
Width: 444
GlyphClass: 2
Flags: MW
HStem: 297 73<222 222>
VStem: 58 328<208 208>
LayerCount: 2
Fore
SplineSet
264 370 m 1
 386 208 l 1
 335 208 l 1
 222 297 l 1
 109 208 l 1
 58 208 l 1
 180 370 l 1
 264 370 l 1
EndSplineSet
EndChar

StartChar: underscore
Encoding: 95 95 64
Width: 658
GlyphClass: 2
Flags: MW
HStem: -134 71<60 599 60 599>
LayerCount: 2
Fore
SplineSet
60 -134 m 1
 60 -63 l 1
 599 -63 l 1
 599 -134 l 1
 60 -134 l 1
EndSplineSet
EndChar

StartChar: grave
Encoding: 96 96 65
Width: 269
GlyphClass: 2
Flags: MW
HStem: 570 92<77 77>
VStem: 14 241<516 634.5>
LayerCount: 2
Fore
SplineSet
14 621 m 0
 14 648 36 662 64 662 c 0
 98 662 120 644 141 623 c 2
 255 516 l 1
 198 516 l 1
 77 570 l 2
 58 578 43 586 31 594 c 0
 20 602 14 611 14 621 c 0
EndSplineSet
EndChar

StartChar: a
Encoding: 97 97 66
Width: 462
GlyphClass: 2
Flags: MW
HStem: -8 42<338 417.5> -7 55<173 175> 407 28<190.5 235.5>
VStem: 28 113<94 107.5> 37 101 277 108<133 241 241 241 272 294> 288 97<52.5 117>
LayerCount: 2
Fore
SplineSet
141 109 m 0x74
 141 79 159 48 187 48 c 0
 238 48 277 82 277 133 c 2
 277 241 l 1
 231 220 198 202 176 184 c 0
 153 167 141 128 141 109 c 0x74
139 -7 m 0
 74 -7 28 33 28 96 c 0x72
 28 119 38 141 59 162 c 0
 80 183 114 202 163 223 c 2
 277 272 l 1
 277 306 l 2
 277 362 261 407 210 407 c 0
 171 407 149 375 138 342 c 0
 131 319 115 299 85 299 c 0
 53 299 37 314 37 347 c 0
 37 373 51 397 80 412 c 0
 109 427 161 435 218 435 c 0
 331 435 385 402 385 294 c 2
 385 117 l 2x6c
 385 71 393 34 412 34 c 0
 423 34 432 42 441 49 c 1
 453 36 l 1
 439 10 405 -8 364 -8 c 0
 312 -8 288 26 288 79 c 1xa2
 285 79 l 1
 259 28 211 -7 139 -7 c 0
EndSplineSet
Substitution2: "'sups' Superscript in Latin lookup 9 subtable" a.superior
Substitution2: "Single Substitution lookup 8 subtable" ordfeminine
Substitution2: "'smcp' Lowercase to Small Capitals in Latin lookup 0 subtable" a.sc
EndChar

StartChar: b
Encoding: 98 98 67
Width: 542
GlyphClass: 2
Flags: MW
HStem: -9 28<272.5 317.5> 0 21G<69 91 69 69> 407 28<297.5 331> 682 20<-1 -1> 715 20G<179 179>
VStem: 69 110<371 552 552 577.5> 390 122<167 247.5 161.5 256.5>
LayerCount: 2
Fore
SplineSet
181 159 m 2xbe
 181 86 219 19 292 19 c 0
 370 19 390 122 390 212 c 0
 390 301 370 407 292 407 c 0
 211 407 181 330 181 248 c 2
 181 159 l 2xbe
303 -9 m 0
 242 -9 195 19 167 54 c 1
 91 0 l 1
 69 0 l 1x7e
 69 552 l 2
 69 603 65 637 58 656 c 0
 51 670 46 674 27 677 c 0
 20 679 11 680 -1 682 c 1
 -1 702 l 1
 179 735 l 1
 179 371 l 1
 183 371 l 1
 196 392 216 407 237 419 c 0
 258 430 283 435 312 435 c 0
 376 435 422 407 454 370 c 0
 488 333 512 281 512 214 c 0
 512 109 456 41 384 8 c 0
 359 -4 332 -9 303 -9 c 0
EndSplineSet
Substitution2: "'sups' Superscript in Latin lookup 9 subtable" b.superior
Substitution2: "'smcp' Lowercase to Small Capitals in Latin lookup 0 subtable" b.sc
EndChar

StartChar: c
Encoding: 99 99 68
Width: 454
GlyphClass: 2
Flags: MW
HStem: -4 28<232.5 295.5> 407 28<245.5 274>
VStem: 31 124<177 265 175.5 266>
LayerCount: 2
Fore
SplineSet
276 24 m 0
 339 24 379 57 413 82 c 1
 426 67 l 1
 386 30 340 -4 251 -4 c 0
 183 -4 128 21 92 55 c 0
 56 90 31 142 31 212 c 0
 31 320 90 389 170 419 c 0
 199 430 228 435 263 435 c 0
 333 435 389 416 419 377 c 0
 428 365 432 353 432 340 c 0
 432 310 415 289 386 289 c 0
 355 289 339 308 325 330 c 0
 307 357 295 407 253 407 c 0
 179 407 155 307 155 223 c 0
 155 128 189 24 276 24 c 0
EndSplineSet
Substitution2: "'sups' Superscript in Latin lookup 9 subtable" c.superior
Substitution2: "'smcp' Lowercase to Small Capitals in Latin lookup 0 subtable" c.sc
EndChar

StartChar: d
Encoding: 100 100 69
Width: 558
GlyphClass: 2
Flags: MW
HStem: -8 26<213 269.5> 1 19<535 541> 406 29<213.5 265 203 291.5> 682 20<271 285.5> 715 20G<476 476>
VStem: 31 121<175.5 245.5> 362 114<181 196 196 265 265 301.5 605 627>
LayerCount: 2
Fore
SplineSet
236 435 m 0xbe
 294 435 334 417 361 382 c 1
 364 382 l 1
 364 524 l 2
 364 555 364 583 362 605 c 0
 362 649 364 664 335 674 c 0
 321 679 300 682 271 682 c 1
 271 702 l 1
 476 735 l 1
 476 196 l 2
 476 156 475 124 477 102 c 0
 477 81 478 65 481 53 c 0
 484 34 491 22 512 22 c 0
 520 20 529 20 541 20 c 1
 541 1 l 1x7e
 387 -8 l 1
 377 52 l 1
 375 52 l 1
 338 13 299 -8 240 -8 c 0
 174 -8 123 18 90 54 c 0
 55 91 31 140 31 211 c 0
 31 280 55 334 90 370 c 0
 122 407 170 435 236 435 c 0xbe
252 406 m 0
 175 406 152 300 152 212 c 0
 152 124 175 18 251 18 c 0xbe
 291 18 323 43 341 68 c 0
 358 98 362 129 362 181 c 2
 362 265 l 2
 362 338 331 406 252 406 c 0
EndSplineSet
Substitution2: "'sups' Superscript in Latin lookup 9 subtable" d.superior
Substitution2: "'smcp' Lowercase to Small Capitals in Latin lookup 0 subtable" d.sc
EndChar

StartChar: e
Encoding: 101 101 70
Width: 471
GlyphClass: 2
Flags: MW
HStem: -8 28<236.5 299.5> 252 30<163 288 288 304 163 416 158 288> 407 28<245 291.5>
VStem: 30 123<192 221 168 262.5> 339 104<291 325.5>
LayerCount: 2
Fore
SplineSet
280 20 m 0
 347 20 388 58 422 89 c 1
 435 75 l 1
 386 22 346 -8 253 -8 c 0
 149 -8 77 45 46 120 c 0
 35 147 30 176 30 208 c 0
 30 317 91 385 170 418 c 0
 198 430 228 435 262 435 c 0
 374 435 443 382 443 271 c 0
 443 251 437 252 416 252 c 2
 158 252 l 1
 156 248 153 227 153 215 c 0
 153 121 193 20 280 20 c 0
339 303 m 0
 339 348 324 407 259 407 c 0
 193 407 172 333 163 282 c 1
 288 282 l 2
 320 282 339 279 339 303 c 0
EndSplineSet
Substitution2: "'sups' Superscript in Latin lookup 9 subtable" e.superior
Substitution2: "'smcp' Lowercase to Small Capitals in Latin lookup 0 subtable" e.sc
EndChar

StartChar: f
Encoding: 102 102 71
Width: 356
GlyphClass: 2
Flags: MW
HStem: 0 20<29 301 29 29> 398 30<13 101 13 101 212 349> 707 28<252.5 315>
VStem: 101 111<116 122 122 398 428 538 538 543>
LayerCount: 2
Fore
SplineSet
282 707 m 0
 223 707 212 609 212 543 c 2
 212 428 l 1
 349 428 l 1
 349 398 l 1
 212 398 l 1
 212 122 l 2
 212 101 214 84 216 72 c 0
 224 47 231 34 257 25 c 0
 269 22 283 21 301 20 c 1
 301 0 l 1
 29 0 l 1
 29 20 l 1
 55 22 78 23 88 38 c 0
 99 58 101 81 101 116 c 2
 101 398 l 1
 13 398 l 1
 13 428 l 1
 101 428 l 1
 101 538 l 2
 101 660 183 735 304 735 c 0
 358 735 430 703 430 666 c 0
 430 639 409 624 382 624 c 0
 332 624 348 707 282 707 c 0
EndSplineSet
Substitution2: "'sups' Superscript in Latin lookup 9 subtable" f.superior
Substitution2: "'smcp' Lowercase to Small Capitals in Latin lookup 0 subtable" f.sc
EndChar

StartChar: g
Encoding: 103 103 72
Width: 490
GlyphClass: 2
Flags: MW
HStem: -210 28<204.5 264.5> 381 54 409 26<199 243>
VStem: 18 103<-124.5 -92.5 -124.5 -69.5> 54 108<287.5 315.5 266 317> 277 109<271 300.5 271 314.5> 354 96<-94 -67.5>
LayerCount: 2
Fore
SplineSet
509 385 m 0xca
 509 361 493 346 471 346 c 0
 463 346 456 348 452 352 c 0
 443 361 433 367 424 376 c 0
 420 380 412 381 404 381 c 0
 392 381 383 374 372 360 c 1
 377 351 381 340 384 330 c 0
 387 318 386 307 386 294 c 0
 386 248 372 215 346 192 c 0
 318 162 271 146 216 139 c 0
 190 136 172 133 162 129 c 0xcc
 151 125 147 119 147 110 c 0
 147 87 194 86 222 84 c 0
 233 83 243 81 253 80 c 2
 284 76 l 2
 339 71 384 57 414 24 c 0
 437 -1 450 -34 450 -71 c 0
 450 -117 430 -151 393 -174 c 0
 356 -197 301 -210 228 -210 c 0
 124 -210 18 -186 18 -96 c 0
 18 -43 47 -12 95 -12 c 0
 126 -12 153 -27 169 -46 c 1
 156 -49 143 -53 134 -64 c 0
 126 -74 121 -86 121 -99 c 0xd2
 121 -150 175 -182 234 -182 c 0
 314 -182 354 -140 354 -89 c 0
 354 -46 325 -24 285 -19 c 2
 144 1 l 2
 84 9 54 34 54 80 c 0
 54 130 90 154 137 163 c 1
 137 167 l 1
 99 180 72 216 60 253 c 0
 56 266 54 281 54 294 c 0
 54 340 74 373 100 395 c 0
 129 418 169 435 219 435 c 0xaa
 270 435 314 418 343 395 c 1
 355 402 366 410 375 414 c 0
 395 425 412 435 441 435 c 0
 477 435 509 418 509 385 c 0xca
162 291 m 0
 162 241 177 170 222 170 c 0
 265 170 277 239 277 289 c 0
 277 340 265 409 221 409 c 0xac
 177 409 162 340 162 291 c 0
EndSplineSet
Substitution2: "'sups' Superscript in Latin lookup 9 subtable" g.superior
Substitution2: "'smcp' Lowercase to Small Capitals in Latin lookup 0 subtable" g.sc
EndChar

StartChar: h
Encoding: 104 104 73
Width: 574
GlyphClass: 2
Flags: MW
HStem: 0 20<12 267 12 12> 407 28<295 342> 684 20<15 15> 715 20G<195 195>
VStem: 85 110<371 532 532 548> 385 111<115 120 120 226 226 257>
LayerCount: 2
Fore
SplineSet
305 407 m 0
 232 407 199 342 199 264 c 2
 196 120 l 2
 196 73 195 35 229 25 c 0
 238 22 251 21 267 20 c 1
 267 0 l 1
 12 0 l 1
 12 20 l 1
 54 23 79 26 82 66 c 0
 84 78 85 94 85 115 c 2
 85 532 l 2
 85 564 84 590 84 608 c 0
 82 628 82 640 79 650 c 0
 77 657 76 663 73 667 c 0
 66 676 59 678 46 682 c 2
 15 684 l 1
 15 704 l 1
 195 735 l 1
 195 371 l 1
 198 371 l 1
 229 410 262 435 328 435 c 0
 411 435 461 393 484 328 c 0
 492 305 496 282 496 257 c 2
 496 120 l 2
 496 84 495 58 506 38 c 0
 516 23 539 22 565 20 c 1
 565 0 l 1
 312 0 l 1
 312 20 l 1
 354 23 379 26 382 66 c 0
 384 78 385 94 385 115 c 2
 385 226 l 2
 385 335 379 407 305 407 c 0
EndSplineSet
Substitution2: "'sups' Superscript in Latin lookup 9 subtable" h.superior
Substitution2: "'smcp' Lowercase to Small Capitals in Latin lookup 0 subtable" h.sc
EndChar

StartChar: i
Encoding: 105 105 74
Width: 290
GlyphClass: 2
Flags: MW
HStem: 0 20<23 277 23 23> 384 20<21 42> 415 20G<207 207> 544 125<133.5 168.5>
VStem: 88 125<589 623.5 589 624> 96 111<115 120 120 231 231 246.5>
LayerCount: 2
Fore
SplineSet
207 120 m 2xf4
 207 76 207 32 240 25 c 0
 249 21 262 21 277 20 c 1
 277 0 l 1
 23 0 l 1
 23 20 l 1
 66 23 86 30 92 68 c 0
 95 80 96 96 96 115 c 2
 96 231 l 2
 96 262 95 287 94 308 c 0
 93 329 91 342 89 349 c 0
 82 379 63 384 21 384 c 1
 21 404 l 1
 207 435 l 1
 207 120 l 2xf4
151 544 m 0
 116 544 88 571 88 606 c 0
 88 642 116 669 151 669 c 0
 186 669 213 641 213 606 c 0xf8
 213 572 186 544 151 544 c 0
EndSplineSet
Substitution2: "'sups' Superscript in Latin lookup 9 subtable" i.superior
Substitution2: "'smcp' Lowercase to Small Capitals in Latin lookup 0 subtable" i.sc
EndChar

StartChar: j
Encoding: 106 106 75
Width: 265
GlyphClass: 2
Flags: MW
HStem: -210 28<12 55.5 12 72.5> 384 20<12 24.5> 415 20G<198 198> 544 125<125 160>
VStem: 79 125<589 623.5> 87 111<-62 -2 -2 239 239 253.5>
LayerCount: 2
Fore
SplineSet
-123 -129 m 0xf4
 -123 -104 -105 -87 -79 -87 c 0
 -64 -87 -53 -92 -46 -100 c 0
 -39 -109 -31 -118 -26 -128 c 0
 -17 -146 -6 -182 30 -182 c 0
 81 -182 87 -121 87 -62 c 2
 87 239 l 2
 87 268 86 292 84 311 c 0
 82 342 81 367 62 375 c 0
 53 379 37 384 12 384 c 1
 12 404 l 1
 198 435 l 1
 198 -2 l 2
 198 -131 136 -210 9 -210 c 0
 -32 -210 -64 -201 -88 -187 c 0
 -110 -171 -123 -151 -123 -129 c 0xf4
142 544 m 0
 108 544 79 572 79 606 c 0
 79 641 108 669 142 669 c 0
 178 669 204 642 204 606 c 0xf8
 204 571 178 544 142 544 c 0
EndSplineSet
Substitution2: "'sups' Superscript in Latin lookup 9 subtable" j.superior
Substitution2: "'smcp' Lowercase to Small Capitals in Latin lookup 0 subtable" j.sc
EndChar

StartChar: k
Encoding: 107 107 76
Width: 534
GlyphClass: 2
Flags: MW
HStem: 0 20<223.5 251 12 12 288 298 516 539> 399 28<279 293 473 500> 684 20<15 30> 715 20G<195 195>
VStem: 85 110<115 120 120 173 91 212 212 541 541 567>
LayerCount: 2
Fore
SplineSet
352 370 m 0
 352 395 307 399 279 399 c 1
 279 427 l 1
 500 427 l 1
 500 399 l 1
 446 399 423 382 390 353 c 2
 312 280 l 1
 461 66 l 2
 482 36 493 20 539 20 c 1
 539 0 l 1
 288 0 l 1
 288 20 l 1
 308 20 350 19 350 31 c 0
 350 35 347 42 339 54 c 0
 333 66 323 82 311 99 c 2
 231 208 l 1
 195 173 l 1
 195 120 l 2
 195 62 196 20 251 20 c 1
 251 0 l 1
 12 0 l 1
 12 20 l 1
 56 23 73 30 82 67 c 0
 84 79 85 95 85 115 c 2
 85 541 l 2
 85 593 86 630 74 661 c 0
 65 681 45 684 15 684 c 1
 15 704 l 1
 195 735 l 1
 195 212 l 1
 272 282 l 2
 301 309 322 329 334 341 c 0
 346 354 352 365 352 370 c 0
EndSplineSet
Substitution2: "'sups' Superscript in Latin lookup 9 subtable" k.superior
Substitution2: "'smcp' Lowercase to Small Capitals in Latin lookup 0 subtable" k.sc
EndChar

StartChar: l
Encoding: 108 108 77
Width: 285
GlyphClass: 2
Flags: MW
HStem: 0 20<15 269 15 15> 684 20<12 33> 715 20G<199 199>
VStem: 87 112<115 120 120 528 528 550.5>
LayerCount: 2
Fore
SplineSet
199 120 m 2
 199 76 198 33 232 25 c 0
 241 21 254 21 269 20 c 1
 269 0 l 1
 15 0 l 1
 15 20 l 1
 58 23 78 30 84 68 c 0
 87 80 87 96 87 115 c 2
 87 528 l 2
 87 573 89 618 81 647 c 0
 74 677 54 684 12 684 c 1
 12 704 l 1
 199 735 l 1
 199 120 l 2
EndSplineSet
Substitution2: "'sups' Superscript in Latin lookup 9 subtable" l.superior
Substitution2: "'smcp' Lowercase to Small Capitals in Latin lookup 0 subtable" l.sc
EndChar

StartChar: m
Encoding: 109 109 78
Width: 890
GlyphClass: 2
Flags: MW
HStem: 0 20<22 277 22 22> 384 20<21 27> 407 28<302.5 344.5 602 647.5>
VStem: 96 112<115 121 121 232 232 247> 395 114<115 121 121 232 232 263> 696 113<115 121 121 232 232 257>
LayerCount: 2
Fore
SplineSet
482 363 m 1
 518 402 567 435 637 435 c 0
 698 435 749 420 777 388 c 0
 804 359 809 318 809 257 c 2
 809 121 l 2
 809 83 808 59 820 39 c 0
 829 23 852 22 879 20 c 1
 879 0 l 1
 625 0 l 1
 625 20 l 1
 653 22 673 23 685 38 c 0
 696 57 696 81 696 115 c 2
 696 232 l 2
 696 316 689 407 606 407 c 0
 566 407 544 384 529 358 c 0
 516 333 509 300 509 263 c 2
 509 121 l 2
 509 84 507 59 519 39 c 0
 528 23 552 22 579 20 c 1
 579 0 l 1
 324 0 l 1
 324 20 l 1
 365 23 390 26 393 66 c 0
 395 78 395 94 395 115 c 2
 395 232 l 2
 395 320 387 407 302 407 c 0
 256 407 224 359 213 313 c 0
 209 296 208 279 208 261 c 2
 208 121 l 2
 208 84 207 58 219 38 c 0
 229 23 250 22 277 20 c 1
 277 0 l 1
 22 0 l 1
 22 20 l 1
 48 22 73 23 83 38 c 0
 95 56 96 81 96 115 c 2
 96 232 l 2
 96 262 96 287 94 308 c 0
 93 329 92 343 89 350 c 0
 87 357 86 362 84 366 c 0
 76 374 67 379 53 381 c 0
 45 382 33 384 21 384 c 1
 21 404 l 1
 177 435 l 1
 187 365 l 1
 191 365 l 1
 228 407 267 435 338 435 c 0
 411 435 453 410 478 363 c 1
 482 363 l 1
EndSplineSet
Substitution2: "'sups' Superscript in Latin lookup 9 subtable" m.superior
Substitution2: "'smcp' Lowercase to Small Capitals in Latin lookup 0 subtable" m.sc
EndChar

StartChar: n
Encoding: 110 110 79
Width: 585
GlyphClass: 2
Flags: MW
HStem: 0 20<23 277 23 23> 384 20<21 27> 407 28<298.5 347.5>
VStem: 96 111<114 119 119 232 232 247.5> 395 112<114 119 119 245>
LayerCount: 2
Fore
SplineSet
189 364 m 1
 221 403 265 435 332 435 c 0
 405 435 438 415 472 374 c 0
 495 344 507 304 507 245 c 2
 507 119 l 2
 507 84 506 58 517 38 c 0
 527 23 550 22 575 20 c 1
 575 0 l 1
 323 0 l 1
 323 20 l 1
 350 22 373 23 383 38 c 0
 395 56 395 79 395 114 c 2
 395 260 l 2
 395 344 389 407 306 407 c 0
 252 407 224 361 212 314 c 0
 208 300 207 284 207 267 c 2
 207 119 l 2
 207 85 207 58 218 38 c 0
 228 23 251 22 277 20 c 1
 277 0 l 1
 23 0 l 1
 23 20 l 1
 66 23 87 28 93 66 c 0
 95 78 96 93 96 114 c 2
 96 232 l 2
 96 263 95 288 94 308 c 0
 93 329 91 342 89 349 c 0
 85 363 83 370 71 375 c 0
 66 379 59 381 51 381 c 0
 43 383 33 384 21 384 c 1
 21 404 l 1
 176 435 l 1
 187 364 l 1
 189 364 l 1
EndSplineSet
Substitution2: "'sups' Superscript in Latin lookup 9 subtable" n.superior
Substitution2: "'smcp' Lowercase to Small Capitals in Latin lookup 0 subtable" n.sc
EndChar

StartChar: o
Encoding: 111 111 80
Width: 531
GlyphClass: 2
Flags: MW
HStem: -8 28<230 298.5> 407 28<230 299.5 230 305>
VStem: 29 127<181 251.5> 376 126<180 252.5 180 258.5>
LayerCount: 2
Fore
SplineSet
264 435 m 0
 335 435 393 408 432 373 c 0
 471 336 502 288 502 217 c 0
 502 143 471 94 432 55 c 0
 394 19 333 -8 264 -8 c 0
 196 -8 135 18 99 54 c 0
 61 92 29 145 29 217 c 0
 29 286 61 338 99 374 c 0
 136 409 196 435 264 435 c 0
264 407 m 0
 184 407 156 299 156 216 c 0
 156 132 184 20 264 20 c 0
 348 20 376 130 376 216 c 0
 376 301 346 407 264 407 c 0
EndSplineSet
Substitution2: "'sups' Superscript in Latin lookup 9 subtable" o.superior
Substitution2: "Single Substitution lookup 8 subtable" ordmasculine
Substitution2: "'smcp' Lowercase to Small Capitals in Latin lookup 0 subtable" o.sc
EndChar

StartChar: p
Encoding: 112 112 81
Width: 561
GlyphClass: 2
Flags: MW
HStem: -202 20<15 294 15 15> -8 29<292.5 351.5> 390 20<13 32.5> 407 28<289.5 344>
VStem: 86 110<-86 -81 -81 46> 410 121<177.5 248 177.5 271.5>
LayerCount: 2
Fore
SplineSet
176 375 m 1xec
 179 375 l 1
 215 415 261 435 318 435 c 0xdc
 385 435 437 409 470 372 c 0
 506 336 531 283 531 213 c 0
 531 142 506 92 471 54 c 0
 438 18 384 -8 319 -8 c 0
 266 -8 228 10 200 46 c 1
 196 46 l 1
 196 -81 l 2
 196 -116 197 -146 213 -162 c 0
 220 -169 232 -173 244 -176 c 0
 256 -179 273 -181 294 -182 c 1
 294 -202 l 1
 15 -202 l 1
 15 -182 l 1
 56 -179 76 -171 82 -134 c 0
 85 -122 86 -106 86 -86 c 2
 86 238 l 2
 86 276 85 327 79 355 c 0
 72 383 52 390 13 390 c 1
 13 410 l 1
 176 432 l 1
 176 375 l 1xec
198 167 m 2
 198 93 239 21 312 21 c 0
 392 21 410 122 410 212 c 0
 410 331 376 407 312 407 c 0
 231 407 198 352 198 260 c 2
 198 167 l 2
EndSplineSet
Substitution2: "'sups' Superscript in Latin lookup 9 subtable" p.superior
Substitution2: "'smcp' Lowercase to Small Capitals in Latin lookup 0 subtable" p.sc
EndChar

StartChar: q
Encoding: 113 113 82
Width: 542
GlyphClass: 2
Flags: MW
HStem: -202 20<264 553 264 264> -8 28<213.5 266.5> 407 20G 407 28<225 267 225 288>
VStem: 31 122<196.5 261 172.5 265> 363 112<-86 -81 -81 50 50 50>
LayerCount: 2
Fore
SplineSet
153 217 m 0xdc
 153 128 174 20 253 20 c 0
 334 20 362 94 362 176 c 2
 362 251 l 2
 362 358 323 407 253 407 c 0
 175 407 153 305 153 217 c 0xdc
360 50 m 1
 327 14 297 -8 236 -8 c 0
 135 -8 76 51 46 124 c 0
 35 151 31 181 31 212 c 0
 31 318 83 385 156 419 c 0
 181 430 210 435 240 435 c 0xdc
 294 435 341 417 378 380 c 1
 439 427 l 1
 475 427 l 1xec
 475 -81 l 2
 475 -103 475 -121 477 -133 c 0
 479 -160 487 -171 511 -177 c 0
 521 -180 535 -181 553 -182 c 1
 553 -202 l 1
 264 -202 l 1
 264 -182 l 1
 316 -179 347 -172 360 -132 c 0
 363 -120 363 -105 363 -86 c 2
 363 50 l 1
 360 50 l 1
EndSplineSet
Substitution2: "'sups' Superscript in Latin lookup 9 subtable" q.superior
Substitution2: "'smcp' Lowercase to Small Capitals in Latin lookup 0 subtable" q.sc
EndChar

StartChar: r
Encoding: 114 114 83
Width: 400
GlyphClass: 2
Flags: MW
HStem: 0 20<284.5 294 24 24> 377 58 385 20<21 37>
VStem: 96 112<96 229>
LayerCount: 2
Fore
SplineSet
400 381 m 0xd0
 400 346 378 320 344 320 c 0
 336 320 327 320 322 325 c 0
 311 337 293 377 277 377 c 0xd0
 223 377 211 249 211 188 c 2
 208 113 l 2
 208 79 208 52 222 35 c 0
 227 29 236 26 248 24 c 0
 260 21 275 20 294 20 c 1
 294 0 l 1
 24 0 l 1
 24 20 l 1
 66 23 91 26 94 66 c 0
 96 78 96 94 96 115 c 2
 96 229 l 2
 96 282 97 324 83 355 c 0
 73 376 53 385 21 385 c 1
 21 405 l 1xb0
 182 435 l 1
 195 343 l 1
 198 343 l 1
 212 372 232 393 255 410 c 0
 278 427 303 435 330 435 c 0
 367 435 400 415 400 381 c 0xd0
EndSplineSet
Substitution2: "'sups' Superscript in Latin lookup 9 subtable" r.superior
Substitution2: "'smcp' Lowercase to Small Capitals in Latin lookup 0 subtable" r.sc
EndChar

StartChar: s
Encoding: 115 115 84
Width: 374
GlyphClass: 2
Flags: MW
HStem: -8 28<177.5 201.5 150 222> 0 21G<44 64 44 44> 408 20G 408 28<178 195 168.5 216>
VStem: 44 26<0 146 146 146> 46 93<297 366.5> 246 100<65.5 132.5> 280 26<306 428>
LayerCount: 2
Fore
SplineSet
200 -8 m 0x91
 155 -8 110 6 87 29 c 1
 64 0 l 1
 44 0 l 1
 44 146 l 1
 70 146 l 1x49
 85 84 116 20 184 20 c 0
 219 20 246 49 246 82 c 0
 246 97 240 113 227 126 c 0
 214 140 191 155 162 171 c 0
 121 192 91 216 73 237 c 0
 55 259 46 283 46 311 c 0
 46 370 82 410 126 427 c 0
 142 432 159 436 178 436 c 0x96
 212 436 249 425 270 409 c 1
 290 428 l 1
 306 428 l 1
 306 306 l 1
 280 306 l 1x25
 269 350 240 408 192 408 c 0
 164 408 139 380 139 353 c 0
 139 338 147 318 160 305 c 0
 172 292 195 277 225 261 c 0
 262 240 295 221 319 192 c 0
 337 171 346 150 346 115 c 0x16
 346 72 329 47 306 26 c 0
 283 5 244 -8 200 -8 c 0x91
EndSplineSet
Substitution2: "'sups' Superscript in Latin lookup 9 subtable" s.superior
Substitution2: "'smcp' Lowercase to Small Capitals in Latin lookup 0 subtable" s.sc
EndChar

StartChar: t
Encoding: 116 116 85
Width: 307
GlyphClass: 2
Flags: MW
HStem: -8 32<225.5 228.5> 397 22<21 79 21 21> 397 30<191 284 191 284>
VStem: 79 112<119.5 136 136 397> 150 41<556 556>
LayerCount: 2
Fore
SplineSet
196 -8 m 0xb0
 128 -8 79 24 79 90 c 2
 79 397 l 1
 21 397 l 1
 21 419 l 1xd0
 81 436 126 504 150 556 c 1
 191 556 l 1
 191 427 l 1xa8
 284 427 l 1
 284 397 l 1
 191 397 l 1
 191 136 l 2
 191 103 195 77 198 64 c 0
 201 50 213 24 238 24 c 0
 259 24 275 39 286 59 c 1
 303 49 l 1
 286 16 261 -8 196 -8 c 0xb0
EndSplineSet
Substitution2: "'sups' Superscript in Latin lookup 9 subtable" t.superior
Substitution2: "'smcp' Lowercase to Small Capitals in Latin lookup 0 subtable" t.sc
EndChar

StartChar: u
Encoding: 117 117 86
Width: 570
GlyphClass: 2
Flags: MW
HStem: -8 29<239 286.5> 1 20<561 561> 407 20<11 191>
VStem: 79 112<187 307 307 330.5> 375 111<187 307 307 329>
LayerCount: 2
Fore
SplineSet
276 21 m 0xb8
 352 21 375 101 375 187 c 2
 375 307 l 2
 375 351 377 389 344 400 c 0
 334 403 320 405 304 407 c 1
 304 427 l 1
 486 427 l 1
 486 183 l 2
 486 150 486 124 488 106 c 0
 489 86 489 73 492 64 c 0
 497 45 504 37 528 28 c 0
 536 25 548 21 561 21 c 1
 561 1 l 1x78
 401 -9 l 1
 387 62 l 1
 383 62 l 1
 359 21 328 -8 245 -8 c 0
 134 -8 79 68 79 187 c 2
 79 307 l 2
 79 354 79 386 48 400 c 0
 39 404 27 405 11 407 c 1
 11 427 l 1
 191 427 l 1
 191 175 l 2
 191 89 202 21 276 21 c 0xb8
EndSplineSet
Substitution2: "'sups' Superscript in Latin lookup 9 subtable" u.superior
Substitution2: "'smcp' Lowercase to Small Capitals in Latin lookup 0 subtable" u.sc
EndChar

StartChar: v
Encoding: 118 118 87
Width: 502
GlyphClass: 2
Flags: MW
HStem: -8 21G<209 275 209 209> 407 16<5 9.5 231 246 496 503>
LayerCount: 2
Fore
SplineSet
398 372 m 0
 398 402 359 405 325 407 c 1
 325 423 l 1
 503 423 l 1
 503 407 l 1
 489 407 469 403 459 396 c 0
 447 389 438 372 426 346 c 2
 275 -8 l 1
 209 -8 l 1
 77 335 l 2
 67 365 58 397 29 405 c 0
 23 407 14 407 5 407 c 1
 5 423 l 1
 246 423 l 1
 246 407 l 1
 216 407 179 409 179 380 c 0
 179 363 188 343 194 329 c 2
 284 105 l 1
 291 105 l 1
 387 328 l 2
 394 343 398 356 398 372 c 0
EndSplineSet
Substitution2: "'sups' Superscript in Latin lookup 9 subtable" v.superior
Substitution2: "'smcp' Lowercase to Small Capitals in Latin lookup 0 subtable" v.sc
EndChar

StartChar: w
Encoding: 119 119 88
Width: 701
GlyphClass: 2
Flags: MW
HStem: -8 21G<192 243 192 192 444 489 444 444> 407 20<6 237 6 237 528 543 689.5 701>
LayerCount: 2
Fore
SplineSet
593 368 m 0
 593 397 558 407 528 407 c 1
 528 427 l 1
 701 427 l 1
 701 407 l 1
 678 407 661 403 650 389 c 0
 628 360 620 327 601 282 c 2
 489 -8 l 1
 444 -8 l 1
 358 294 l 1
 353 294 l 1
 243 -8 l 1
 192 -8 l 1
 81 335 l 2
 66 378 53 405 6 407 c 1
 6 427 l 1
 237 427 l 1
 237 407 l 1
 204 405 179 402 179 372 c 0
 179 367 178 360 180 353 c 0
 182 346 185 338 188 329 c 2
 254 129 l 1
 258 129 l 1
 368 427 l 1
 424 427 l 1
 505 129 l 1
 508 129 l 1
 576 307 l 2
 584 327 593 344 593 368 c 0
EndSplineSet
Substitution2: "'sups' Superscript in Latin lookup 9 subtable" w.superior
Substitution2: "'smcp' Lowercase to Small Capitals in Latin lookup 0 subtable" w.sc
EndChar

StartChar: x
Encoding: 120 120 89
Width: 521
GlyphClass: 2
Flags: MW
HStem: 0 20<7 24.5 196 210 7 24.5 263 274 498 519> 407 20<13 31 246 260 315 326>
LayerCount: 2
Fore
SplineSet
141 47 m 0
 141 23 182 20 210 20 c 1
 210 0 l 1
 7 0 l 1
 7 20 l 1
 42 20 68 25 85 45 c 2
 212 189 l 1
 72 378 l 2
 53 399 49 407 13 407 c 1
 13 427 l 1
 260 427 l 1
 260 407 l 1
 232 407 205 399 205 384 c 0
 205 379 209 373 214 364 c 2
 286 275 l 1
 342 335 l 2
 354 349 361 360 365 365 c 0
 369 370 370 378 370 383 c 0
 370 401 337 407 315 407 c 1
 315 427 l 1
 501 427 l 1
 501 407 l 1
 443 402 423 377 390 344 c 2
 306 252 l 1
 443 61 l 2
 463 33 477 20 519 20 c 1
 519 0 l 1
 263 0 l 1
 263 20 l 1
 285 20 317 25 317 43 c 0
 317 62 307 68 297 84 c 2
 231 166 l 1
 180 109 l 2
 164 87 153 76 142 54 c 0
 142 50 141 50 141 47 c 0
EndSplineSet
Substitution2: "'sups' Superscript in Latin lookup 9 subtable" x.superior
Substitution2: "'smcp' Lowercase to Small Capitals in Latin lookup 0 subtable" x.sc
EndChar

StartChar: y
Encoding: 121 121 90
Width: 520
GlyphClass: 2
Flags: MW
HStem: -210 93<110 110> 407 20<6 251 235.5 251 333 344.5 514.5 527>
LayerCount: 2
Fore
SplineSet
251 407 m 1
 220 407 190 405 190 379 c 0
 190 368 189 357 195 347 c 2
 290 107 l 1
 295 107 l 1
 371 268 l 2
 379 285 385 298 389 310 c 0
 397 331 407 348 407 372 c 0
 407 385 402 395 395 399 c 0
 387 403 356 407 333 407 c 1
 333 427 l 1
 527 427 l 1
 527 407 l 1
 502 407 477 400 465 384 c 0
 457 375 448 362 439 344 c 0
 429 325 417 302 404 273 c 2
 219 -127 l 2
 204 -163 182 -188 145 -203 c 0
 133 -208 122 -210 110 -210 c 0
 78 -210 51 -192 51 -162 c 0
 51 -127 76 -120 111 -117 c 0
 158 -113 200 -98 213 -71 c 2
 228 -41 l 1
 87 335 l 2
 75 366 68 395 37 404 c 0
 30 406 17 406 6 407 c 1
 6 427 l 1
 251 427 l 1
 251 407 l 1
EndSplineSet
Substitution2: "'sups' Superscript in Latin lookup 9 subtable" y.superior
Substitution2: "'smcp' Lowercase to Small Capitals in Latin lookup 0 subtable" y.sc
EndChar

StartChar: z
Encoding: 122 122 91
Width: 457
GlyphClass: 2
Flags: MW
HStem: 0 28<158 240 240 254.5 158 419> 399 28<179 199 199 284>
VStem: 45 21<302 302> 405 23<137 137>
LayerCount: 2
Fore
SplineSet
419 0 m 1
 21 0 l 1
 21 19 l 1
 284 399 l 1
 199 399 l 2
 159 399 128 398 108 383 c 1
 85 372 73 332 66 302 c 1
 45 302 l 1
 54 427 l 1
 418 427 l 1
 418 409 l 1
 158 28 l 1
 240 28 l 2
 269 28 291 28 310 30 c 0
 364 41 394 81 405 137 c 1
 428 137 l 1
 419 0 l 1
EndSplineSet
Substitution2: "'sups' Superscript in Latin lookup 9 subtable" z.superior
Substitution2: "'smcp' Lowercase to Small Capitals in Latin lookup 0 subtable" z.sc
EndChar

StartChar: braceleft
Encoding: 123 123 92
Width: 319
GlyphClass: 2
Flags: MW
HStem: -175 28<251 296> 273 32<17 17> 719 30<258 292>
VStem: 102 112<-36 -35 -35 156 156 159 421 432 432 595 595 609>
LayerCount: 2
Fore
SplineSet
292 719 m 1
 236 708 214 674 214 609 c 2
 214 432 l 2
 214 373 203 329 161 310 c 0
 147 301 127 296 103 291 c 1
 103 287 l 1
 179 277 214 243 214 159 c 2
 214 -35 l 2
 214 -104 236 -132 296 -147 c 1
 296 -175 l 1
 206 -175 134 -169 112 -104 c 0
 105 -86 102 -63 102 -36 c 2
 102 156 l 2
 102 218 77 269 17 273 c 1
 17 305 l 1
 64 315 89 330 99 375 c 0
 101 389 102 404 102 421 c 2
 102 595 l 2
 102 649 109 690 138 715 c 0
 172 744 224 749 292 749 c 1
 292 719 l 1
EndSplineSet
EndChar

StartChar: bar
Encoding: 124 124 93
Width: 266
GlyphClass: 2
Flags: MW
HStem: 720 20G<85 181 181 181>
VStem: 85 96<-226 740 -226 740>
LayerCount: 2
Fore
SplineSet
181 740 m 1
 181 -226 l 1
 85 -226 l 1
 85 740 l 1
 181 740 l 1
EndSplineSet
EndChar

StartChar: braceright
Encoding: 125 125 94
Width: 319
GlyphClass: 2
Flags: MW
HStem: -175 28<23 41.5> 719 30<28 74.5>
VStem: 106 112<-35 156 432 595>
LayerCount: 2
Fore
SplineSet
23 -147 m 1
 83 -132 106 -104 106 -35 c 2
 106 159 l 2
 106 197 111 222 126 245 c 0
 146 270 175 281 217 287 c 1
 217 291 l 1
 157 304 121 323 109 381 c 0
 106 397 106 413 106 432 c 2
 106 609 l 2
 106 672 83 708 28 719 c 1
 28 749 l 1
 121 749 190 738 209 668 c 0
 214 648 218 624 218 595 c 2
 218 421 l 2
 218 404 218 389 220 375 c 0
 230 330 256 315 302 305 c 1
 302 273 l 1
 243 269 218 219 218 156 c 2
 218 -36 l 2
 218 -88 207 -126 177 -147 c 0
 162 -158 141 -164 117 -169 c 0
 92 -174 60 -175 23 -175 c 1
 23 -147 l 1
EndSplineSet
EndChar

StartChar: asciitilde
Encoding: 126 126 95
Width: 508
GlyphClass: 2
Flags: MW
HStem: 218 86<323 366> 263 86<143.5 186>
LayerCount: 2
Fore
SplineSet
150 263 m 0x40
 119 263 115 251 106 225 c 1
 65 225 l 1
 75 286 111 349 176 349 c 0x40
 241 349 290 304 356 304 c 0
 386 304 393 318 402 342 c 1
 443 342 l 1
 433 277 400 218 332 218 c 0x80
 261 218 222 263 150 263 c 0x40
EndSplineSet
EndChar

StartChar: exclamdown
Encoding: 161 161 97
Width: 280
GlyphClass: 2
Flags: MW
HStem: -9 21G<117.5 164.5> 568 136<121.5 158.5>
VStem: 70 141<45 100 45 110> 114 54<480.5 508>
LayerCount: 2
Fore
SplineSet
168 508 m 1xd0
 168 391 177 309 195 218 c 0
 204 170 211 128 211 72 c 0
 211 18 188 -9 141 -9 c 0
 94 -9 70 18 70 72 c 0xe0
 70 148 85 203 96 269 c 0
 101 298 104 331 108 368 c 0
 112 406 114 453 114 508 c 1
 168 508 l 1xd0
140 704 m 0
 177 704 209 674 209 636 c 0
 209 598 177 568 140 568 c 0
 103 568 71 598 71 636 c 0
 71 674 103 704 140 704 c 0
EndSplineSet
EndChar

StartChar: cent
Encoding: 162 162 98
Width: 465
GlyphClass: 2
Flags: MW
HStem: -4 54<281 281> 386 47<229 229>
VStem: 36 124<178 270 178 276.5> 229 52<-119 -8 -8 -8 59 384 435 550>
LayerCount: 2
Fore
SplineSet
429 67 m 1
 396 31 340 4 281 -4 c 1
 281 -119 l 1
 229 -119 l 1
 229 -8 l 1
 200 -7 174 -1 151 10 c 0
 128 22 106 35 89 54 c 0
 57 91 36 144 36 211 c 0
 36 342 113 417 229 433 c 1
 229 550 l 1
 281 550 l 1
 281 435 l 1
 329 433 371 423 397 401 c 0
 416 387 436 366 436 337 c 0
 436 325 432 315 424 304 c 0
 417 293 403 289 386 289 c 0
 328 289 323 365 281 384 c 1
 281 50 l 1
 339 52 372 69 409 97 c 1
 429 67 l 1
160 222 m 0
 160 134 183 80 229 59 c 1
 229 386 l 1
 183 373 160 318 160 222 c 0
EndSplineSet
EndChar

StartChar: sterling
Encoding: 163 163 99
Width: 639
GlyphClass: 2
Flags: MW
HStem: -10 54<129.5 134> -9 107<431.5 483 424.5 505.5> 102 51<124.5 153> 334 55<70 171 70 189 70 171 323 503 323 323> 652 52<363.5 389.5>
VStem: 32 70<63.5 82.5 63.5 93> 149 115<550.5 559> 240 96<152 262.5 167 262.5>
LayerCount: 2
Fore
SplineSet
218 70 m 1xbc
 190 87 170 102 136 102 c 0
 113 102 102 92 102 73 c 0
 102 54 116 44 143 44 c 0
 173 44 201 56 218 70 c 1xbc
373 652 m 0
 314 652 264 619 264 561 c 0xbe
 264 540 267 517 273 500 c 0
 274 493 275 487 277 482 c 2
 310 389 l 1
 503 389 l 1
 503 334 l 1
 323 334 l 1
 332 304 336 280 336 245 c 0
 336 188 326 147 300 114 c 1
 343 102 399 98 450 98 c 0
 516 98 555 112 590 143 c 1
 600 139 l 1
 600 41 553 -9 458 -9 c 0x7d
 405 -9 367 4 326 20 c 0
 308 26 287 34 264 44 c 1xbe
 245 18 207 1 168 -5 c 0
 154 -9 141 -10 127 -10 c 0
 74 -10 32 15 32 65 c 0
 32 121 78 153 135 153 c 0
 172 153 209 142 237 129 c 0
 238 131 238 133 238 138 c 0
 239 143 239 147 240 152 c 2
 240 167 l 2xbd
 241 172 241 176 241 180 c 0
 241 199 236 221 227 248 c 0
 217 275 205 304 189 334 c 1
 70 334 l 1
 70 389 l 1
 171 389 l 1
 157 434 149 474 149 509 c 0xbe
 149 609 207 666 285 690 c 0
 313 699 346 704 381 704 c 0
 459 704 526 681 558 636 c 0
 567 622 571 607 571 591 c 0
 571 560 555 545 523 545 c 0
 481 545 472 570 459 598 c 0
 454 607 448 616 442 625 c 0
 429 643 406 652 373 652 c 0
EndSplineSet
EndChar

StartChar: currency
Encoding: 164 164 100
Width: 490
GlyphClass: 2
Flags: MW
HStem: 37 49<235.5 267.5> 339 48<235.5 264>
VStem: 62 50<192 221 192 233> 379 51<203.5 232.5>
LayerCount: 2
Fore
SplineSet
430 212 m 0
 430 165 413 131 391 104 c 1
 451 46 l 1
 420 18 l 1
 361 75 l 1
 328 50 290 37 245 37 c 0
 200 37 162 50 130 76 c 1
 71 19 l 1
 42 46 l 1
 102 104 l 1
 80 132 62 164 62 212 c 0
 62 254 75 290 102 321 c 1
 41 379 l 1
 71 408 l 1
 131 350 l 1
 159 372 197 387 245 387 c 0
 295 387 330 372 360 350 c 1
 420 408 l 1
 451 379 l 1
 389 321 l 1
 417 290 430 253 430 212 c 0
112 212 m 0
 112 172 131 143 152 122 c 0
 164 110 179 103 195 96 c 0
 211 90 226 86 245 86 c 0
 307 86 348 120 369 162 c 0
 376 178 379 195 379 212 c 0
 379 253 361 281 340 302 c 0
 319 323 283 339 245 339 c 0
 226 339 211 335 195 328 c 0
 162 316 137 292 123 261 c 0
 116 247 112 230 112 212 c 0
EndSplineSet
EndChar

StartChar: yen
Encoding: 165 165 101
Width: 768
GlyphClass: 2
Flags: MW
HStem: 0 34<221 546 221 221> 153 59<167 316 167 316 449 597> 270 59<167 274 167 316 167 274 486 597> 659 36<25 32 315.5 335 518 536 715.5 745>
VStem: 316 133<141 153 212 270 122.5 270>
LayerCount: 2
Fore
SplineSet
579 630 m 0
 579 658 554 659 518 659 c 1
 518 695 l 1
 745 695 l 1
 745 659 l 1
 686 659 669 627 641 589 c 0
 627 570 612 545 593 513 c 2
 486 329 l 1
 597 329 l 1
 597 270 l 1
 449 270 l 1
 449 212 l 1
 597 212 l 1
 597 153 l 1
 449 153 l 1
 449 92 451 54 496 40 c 0
 509 37 525 35 546 34 c 1
 546 0 l 1
 221 0 l 1
 221 34 l 1
 276 37 305 45 312 95 c 0
 315 110 316 129 316 153 c 1
 167 153 l 1
 167 212 l 1
 316 212 l 1
 316 270 l 1
 167 270 l 1
 167 329 l 1
 274 329 l 1
 129 583 l 2
 111 615 97 647 59 656 c 0
 50 658 39 659 25 659 c 1
 25 695 l 1
 335 695 l 1
 335 659 l 1
 296 659 265 659 265 630 c 0
 265 618 271 600 284 576 c 2
 413 328 l 1
 417 328 l 1
 524 508 l 2
 543 541 555 564 570 592 c 0
 578 605 579 614 579 630 c 0
EndSplineSet
EndChar

StartChar: brokenbar
Encoding: 166 166 102
Width: 274
GlyphClass: 2
Flags: MW
VStem: 88 98<-162 185 -162 185 329 677>
LayerCount: 2
Fore
SplineSet
186 677 m 1
 186 329 l 1
 88 329 l 1
 88 677 l 1
 186 677 l 1
186 185 m 1
 186 -162 l 1
 88 -162 l 1
 88 185 l 1
 186 185 l 1
EndSplineSet
EndChar

StartChar: section
Encoding: 167 167 103
Width: 505
GlyphClass: 2
Flags: MW
HStem: -157 50<232.5 277> 704 45<218.5 266>
VStem: 42 83<-67 21.5> 62 89<613 647.5> 338 92<598.5 678> 370 84<-14.5 -4> 384 79<236.5 312>
LayerCount: 2
Fore
SplineSet
341 190 m 1xc2
 364 205 384 221 384 252 c 0
 382 296 340 330 307 349 c 2
 181 421 l 1
 162 411 149 400 141 388 c 0
 133 376 129 366 129 354 c 0
 129 316 161 293 188 277 c 2
 341 190 l 1xc2
249 -107 m 0
 318 -107 370 -81 370 -17 c 0xe4
 370 9 362 19 348 33 c 0
 324 57 291 75 254 97 c 2
 156 152 l 2
 118 173 90 196 72 222 c 0
 54 247 45 277 45 312 c 0
 45 376 74 422 134 450 c 1
 95 477 62 532 62 596 c 0
 62 699 144 749 248 749 c 0
 327 749 387 721 416 672 c 0
 425 656 430 637 430 618 c 0xd8
 430 579 408 551 370 551 c 0xc4
 337 551 310 573 310 606 c 0
 310 622 316 631 324 639 c 0
 330 646 338 651 338 663 c 0xc8
 338 693 284 704 248 704 c 0
 189 704 151 681 151 624 c 0
 151 602 156 596 168 581 c 0
 175 573 186 564 200 554 c 0
 214 544 235 531 259 516 c 2
 354 459 l 2
 395 435 423 409 439 383 c 0
 455 358 463 328 463 296 c 0xd2
 463 226 432 192 385 160 c 1
 424 128 454 80 454 14 c 0
 454 -43 429 -82 395 -109 c 0
 360 -138 308 -157 246 -157 c 0
 157 -157 86 -123 58 -63 c 0
 47 -44 42 -23 42 0 c 0
 42 43 62 79 103 79 c 0
 135 79 167 53 167 20 c 0
 167 -1 156 -15 146 -25 c 0
 141 -31 137 -37 132 -42 c 0
 127 -47 125 -53 125 -58 c 0xe4
 125 -76 147 -85 162 -92 c 0
 186 -102 216 -107 249 -107 c 0
EndSplineSet
EndChar

StartChar: dieresis
Encoding: 168 168 104
Width: 329
GlyphClass: 2
Flags: MW
HStem: 538 117<68 92 60 93 245 269>
VStem: 18 116<588 612 580 612.5> 195 116<588 612 580 612.5>
LayerCount: 2
Fore
SplineSet
134 596 m 0
 134 564 110 538 76 538 c 0
 60 538 46 543 34 554 c 0
 23 566 18 580 18 596 c 0
 18 629 44 655 76 655 c 0
 108 655 134 628 134 596 c 0
311 596 m 0
 311 564 287 538 253 538 c 0
 237 538 223 543 211 554 c 0
 200 566 195 580 195 596 c 0
 195 629 221 655 253 655 c 0
 285 655 311 628 311 596 c 0
EndSplineSet
EndChar

StartChar: copyright
Encoding: 169 169 105
Width: 814
GlyphClass: 2
Flags: MW
HStem: -9 52<357 452.5 357 461.5> 142 46<384 460 384 463.5> 505 45<405.5 432.5 405.5 458> 652 52<356.5 451>
VStem: 41 54<301.5 394.5 301.5 402> 196 105<323 388 294.5 389.5> 549 31<275 275> 551 24<426 426> 719 55<300.5 395.5>
LayerCount: 2
Fore
SplineSet
774 348 m 0xfc80
 774 238 725 153 666 96 c 0
 606 38 518 -9 405 -9 c 0
 293 -9 206 39 147 96 c 0
 88 153 41 238 41 348 c 0
 41 456 89 542 146 599 c 0
 206 657 293 704 404 704 c 0
 517 704 605 658 666 600 c 0
 724 542 774 459 774 348 c 0xfc80
719 348 m 0
 719 443 678 514 626 563 c 0
 576 613 498 652 404 652 c 0
 309 652 234 612 184 562 c 0
 135 511 95 441 95 348 c 0
 95 255 135 184 184 133 c 0
 236 83 309 43 405 43 c 0
 500 43 576 83 626 133 c 0
 678 183 719 253 719 348 c 0
301 342 m 0
 301 247 339 188 429 188 c 0
 491 188 532 216 549 275 c 1
 580 275 l 1xfe80
 562 197 511 142 416 142 c 0
 313 142 241 185 211 257 c 0
 201 281 196 308 196 338 c 0
 196 441 252 507 329 534 c 0
 357 544 389 550 422 550 c 0
 443 550 462 546 480 539 c 0
 499 532 519 520 542 504 c 1
 551 544 l 1
 570 544 l 1
 575 426 l 1
 551 426 l 1xfd80
 535 473 489 505 427 505 c 0
 339 505 301 434 301 342 c 0
EndSplineSet
EndChar

StartChar: ordfeminine
Encoding: 170 170 106
Width: 343
GlyphClass: 2
Flags: MW
HStem: 458 32<229 283> 458 40<102 166> 673 31<143 165.5>
VStem: 48 77<516.5 519> 190 67<560 586 586 586 620 633 633 635>
LayerCount: 2
Fore
SplineSet
153 498 m 0x78
 179 498 190 532 190 560 c 2
 190 586 l 1
 166 576 150 565 139 554 c 0
 130 544 125 534 125 524 c 0
 125 509 137 498 153 498 c 0x78
121 458 m 0
 83 458 48 475 48 511 c 0
 48 527 54 541 67 553 c 0
 79 565 102 578 134 592 c 2
 190 620 l 1
 190 633 l 2
 190 660 178 673 153 673 c 0
 122 673 118 668 109 645 c 0
 104 631 97 619 80 619 c 0
 65 619 51 628 51 644 c 0
 51 659 60 674 79 686 c 0
 97 698 125 704 161 704 c 0
 224 704 257 692 257 635 c 2
 257 542 l 2
 257 507 264 490 278 490 c 0
 288 490 296 494 301 502 c 1
 308 482 l 1
 298 467 271 458 246 458 c 0xb8
 212 458 195 469 195 492 c 1
 191 492 l 1
 178 473 152 458 121 458 c 0
EndSplineSet
EndChar

StartChar: guillemotleft
Encoding: 171 171 107
Width: 445
GlyphClass: 2
Flags: MW
HStem: 62 298<192 195 195 369>
LayerCount: 2
Fore
SplineSet
37 211 m 1
 195 360 l 1
 220 342 l 1
 146 211 l 1
 220 81 l 1
 192 62 l 1
 37 211 l 1
214 211 m 1
 372 360 l 1
 398 342 l 1
 324 211 l 1
 396 81 l 1
 369 62 l 1
 214 211 l 1
EndSplineSet
EndChar

StartChar: logicalnot
Encoding: 172 172 108
Width: 574
GlyphClass: 2
Flags: MW
HStem: 273 64<64 441 64 506>
VStem: 441 65<99 273 273 273>
LayerCount: 2
Fore
SplineSet
441 273 m 1
 64 273 l 1
 64 337 l 1
 506 337 l 1
 506 99 l 1
 441 99 l 1
 441 273 l 1
EndSplineSet
EndChar

StartChar: uni00AD
Encoding: 173 173 109
Width: 421
GlyphClass: 2
Flags: MW
HStem: 218 86<60 362 60 362>
VStem: 60 302<218 304 218 304>
LayerCount: 2
Fore
SplineSet
60 218 m 1
 60 304 l 1
 362 304 l 1
 362 218 l 1
 60 218 l 1
EndSplineSet
EndChar

StartChar: registered
Encoding: 174 174 110
Width: 814
GlyphClass: 2
Flags: MW
HStem: -9 52<357 452.5 357 461.5> 165 25<391 404 217 217> 346 29<340 343.5> 524 31<346 349 349 388> 652 52<356.5 451>
VStem: 41 54<301.5 394.5 301.5 402> 261 79<246 249 249 346 375 471 471 477> 464 92<426 480.5> 719 55<300.5 395.5>
LayerCount: 2
Fore
SplineSet
774 348 m 0
 774 238 725 153 666 96 c 0
 606 38 518 -9 405 -9 c 0
 293 -9 206 39 147 96 c 0
 88 153 41 238 41 348 c 0
 41 456 89 542 146 599 c 0
 206 657 293 704 404 704 c 0
 517 704 605 658 666 600 c 0
 724 542 774 459 774 348 c 0
719 348 m 0
 719 443 678 514 626 563 c 0
 576 613 498 652 404 652 c 0
 309 652 234 612 184 562 c 0
 135 511 95 441 95 348 c 0
 95 255 135 184 184 133 c 0
 236 83 309 43 405 43 c 0
 500 43 576 83 626 133 c 0
 678 183 719 253 719 348 c 0
388 555 m 2
 472 555 556 534 556 458 c 0
 556 392 510 363 445 355 c 1
 562 224 l 2
 571 214 580 205 590 200 c 0
 600 195 612 193 626 190 c 1
 626 165 l 1
 514 165 l 1
 384 320 l 2
 375 330 366 336 361 340 c 0
 354 344 347 346 340 346 c 1
 340 249 l 2
 340 227 341 211 350 200 c 0
 363 190 378 190 404 190 c 1
 404 165 l 1
 217 165 l 1
 217 190 l 1
 257 192 261 202 261 246 c 2
 261 471 l 2
 261 483 260 492 260 499 c 0
 258 506 257 511 255 516 c 0
 249 526 237 526 222 528 c 1
 222 555 l 1
 388 555 l 2
464 455 m 0
 464 506 441 524 388 524 c 2
 349 524 l 2
 343 524 340 520 340 515 c 2
 340 375 l 1
 374 375 l 2
 433 375 464 397 464 455 c 0
EndSplineSet
EndChar

StartChar: macron
Encoding: 175 175 111
Width: 294
GlyphClass: 2
Flags: MW
HStem: 553 58<19 275 19 275>
VStem: 19 256<553 611 553 611>
LayerCount: 2
Fore
SplineSet
19 553 m 1
 19 611 l 1
 275 611 l 1
 275 553 l 1
 19 553 l 1
EndSplineSet
EndChar

StartChar: degree
Encoding: 176 176 112
Width: 301
GlyphClass: 2
Flags: MW
HStem: 487 41<146 167.5> 663 41<143.5 169.5>
VStem: 37 42<588.5 600.5 579.5 621> 221 43<579.5 603.5 579.5 614.5>
LayerCount: 2
Fore
SplineSet
37 596 m 0
 37 646 70 682 107 695 c 0
 121 701 136 704 151 704 c 0
 202 704 239 674 255 637 c 0
 261 624 264 611 264 596 c 0
 264 563 249 536 231 520 c 0
 214 501 184 487 151 487 c 0
 100 487 62 517 46 554 c 0
 40 567 37 581 37 596 c 0
221 596 m 0
 221 633 188 663 151 663 c 0
 118 663 95 644 85 621 c 0
 80 614 79 605 79 596 c 0
 79 563 101 544 123 533 c 0
 132 529 141 528 151 528 c 0
 188 528 221 559 221 596 c 0
EndSplineSet
EndChar

StartChar: plusminus
Encoding: 177 177 113
Width: 505
GlyphClass: 2
Flags: MW
HStem: 71 51<54 451 54 451> 352 51<54 226 54 226 280 451>
VStem: 226 54<183 352 183 352 403 571>
LayerCount: 2
Fore
SplineSet
226 183 m 1
 226 352 l 1
 54 352 l 1
 54 403 l 1
 226 403 l 1
 226 571 l 1
 280 571 l 1
 280 403 l 1
 451 403 l 1
 451 352 l 1
 280 352 l 1
 280 183 l 1
 226 183 l 1
451 71 m 1
 54 71 l 1
 54 122 l 1
 451 122 l 1
 451 71 l 1
EndSplineSet
EndChar

StartChar: two.superior
Encoding: 178 178 114
Width: 413
GlyphClass: 2
Flags: MW
HStem: 270 80<134 276 276 294.5 134 359> 498 43<95 176> 679 25<180 220.5>
VStem: 29 89<582 603.5> 268 109<577.5 596.5 577.5 608>
LayerCount: 2
Fore
SplineSet
176 541 m 1
 172 515 151 498 123 498 c 0
 67 498 29 533 29 584 c 0
 29 623 52 652 80 670 c 0
 111 691 154 704 206 704 c 0
 284 704 339 677 365 635 c 0
 373 621 377 605 377 588 c 0
 377 567 371 545 360 525 c 0
 348 505 332 485 312 466 c 0
 266 424 194 386 133 352 c 1
 134 350 l 1
 276 350 l 2
 313 350 332 358 348 378 c 0
 353 385 360 394 364 405 c 1
 384 405 l 1
 359 270 l 1
 23 270 l 1
 23 306 l 1
 72 343 113 370 145 396 c 0
 177 423 202 447 221 469 c 0
 250 503 268 533 268 584 c 0
 268 632 247 679 194 679 c 0
 144 679 118 638 118 599 c 0
 118 565 140 541 176 541 c 1
EndSplineSet
EndChar

StartChar: three.superior
Encoding: 179 179 115
Width: 416
GlyphClass: 2
Flags: MW
HStem: 265 25<175 225.5> 402 33<105 168> 465 56<150.5 163 150.5 169> 485 21<207 231.5 207 233> 557 35<111 173> 679 25<181.5 224>
VStem: 22 100<355 368.5 339.5 378.5> 44 95<617 637> 267 104<584.5 613.5 584.5 614> 279 109<366.5 401 366 415>
LayerCount: 2
Fore
SplineSet
197 290 m 0xde40
 258 290 279 342 279 391 c 0
 279 439 259 485 207 485 c 1xde40
 194 479 177 465 161 465 c 0
 140 465 124 474 124 495 c 0
 124 514 141 521 160 521 c 0xee40
 166 521 172 520 179 518 c 0
 187 516 201 508 207 506 c 0
 256 506 267 547 267 592 c 0
 267 636 248 679 200 679 c 0
 163 679 139 655 139 626 c 0
 139 608 153 592 173 592 c 1
 167 571 151 557 123 557 c 0
 99 557 81 566 68 577 c 0
 55 588 44 603 44 623 c 0
 44 651 65 670 88 682 c 0
 115 698 157 704 201 704 c 0
 275 704 333 686 359 646 c 0
 367 634 371 621 371 606 c 0xdd80
 371 563 342 536 312 518 c 0
 300 511 287 507 273 504 c 1
 273 500 l 1
 308 492 335 477 356 457 c 0
 374 440 388 416 388 386 c 0
 388 346 363 317 334 299 c 0
 301 278 254 265 197 265 c 0
 123 265 63 286 35 323 c 0
 26 335 22 348 22 362 c 0
 22 395 47 419 77 429 c 0
 87 433 99 435 111 435 c 0
 141 435 162 421 168 402 c 1
 140 402 122 380 122 357 c 0
 122 322 153 290 197 290 c 0xde40
EndSplineSet
EndChar

StartChar: acute
Encoding: 180 180 116
Width: 269
GlyphClass: 2
Flags: MW
HStem: 516 146<14 220>
VStem: 14 241<516 634.5>
LayerCount: 2
Fore
SplineSet
206 662 m 0
 234 662 255 648 255 621 c 0
 255 611 250 602 238 594 c 0
 227 586 212 578 193 570 c 2
 68 516 l 1
 14 516 l 1
 129 623 l 2
 143 637 157 647 170 653 c 0
 182 659 194 662 206 662 c 0
EndSplineSet
EndChar

StartChar: mu
Encoding: 181 181 117
Width: 598
GlyphClass: 2
Flags: MW
HStem: -8 30<272.5 314.5> 1 20<569 575> 408 20<24 204>
VStem: 95 109<140.5 184 184 307 307 325> 95 116<-170.5 307> 389 112<177 307 307 329>
LayerCount: 2
Fore
SplineSet
402 62 m 1x74
 381 16 344 -8 285 -8 c 0
 260 -8 236 0 215 12 c 0
 194 25 175 45 162 74 c 1
 160 73 l 1
 169 37 185 -9 192 -50 c 0
 197 -71 200 -92 204 -110 c 0xb4
 208 -130 211 -143 211 -153 c 0
 211 -188 189 -210 154 -210 c 0
 120 -210 95 -179 95 -144 c 2xac
 95 307 l 2
 95 343 96 369 84 389 c 0
 80 395 71 399 62 401 c 0
 52 405 40 406 24 408 c 1
 24 428 l 1
 204 428 l 1
 204 184 l 2
 204 97 214 22 287 22 c 0xb4
 347 22 373 51 384 111 c 0
 388 132 389 156 389 177 c 2
 389 307 l 2
 389 351 392 394 358 401 c 0
 348 405 335 406 319 408 c 1
 319 428 l 1
 501 428 l 1
 501 95 l 1
 505 55 502 23 543 23 c 0
 551 21 563 21 575 21 c 1
 575 1 l 1
 414 -9 l 1
 405 62 l 1
 402 62 l 1x74
EndSplineSet
EndChar

StartChar: paragraph
Encoding: 182 182 118
Width: 594
GlyphClass: 2
Flags: MW
HStem: -149 39<132 158 132 332 132 158 531 552> 646 49<332 375 332 332> 656 39<528.5 552>
VStem: 30 302<446.5 574> 245 87<61 319 319 319> 375 87<44 61 61 513>
LayerCount: 2
Fore
SplineSet
30 505 m 0xd4
 30 643 142 695 291 695 c 2
 552 695 l 1
 552 656 l 1xb4
 505 656 484 654 473 624 c 0
 469 614 467 601 465 585 c 0
 463 570 462 545 462 513 c 2
 462 61 l 2
 462 27 463 -2 466 -27 c 0
 468 -50 470 -68 475 -78 c 0
 484 -106 510 -110 552 -110 c 1
 552 -149 l 1
 375 -149 l 1
 375 646 l 1
 332 646 l 1
 332 -149 l 1
 132 -149 l 1
 132 -110 l 1
 184 -110 223 -108 236 -75 c 0
 239 -62 242 -40 242 -23 c 0
 244 -10 244 3 244 18 c 0
 245 32 245 47 245 61 c 2
 245 319 l 1xcc
 240 319 235 319 230 318 c 2
 212 318 l 2
 95 318 30 388 30 505 c 0xd4
EndSplineSet
EndChar

StartChar: periodcentered
Encoding: 183 183 119
Width: 253
GlyphClass: 2
Flags: MW
HStem: 181 136<107.5 145>
VStem: 59 137<228 266>
LayerCount: 2
Fore
SplineSet
126 181 m 0
 89 181 59 209 59 247 c 0
 59 285 89 317 126 317 c 0
 164 317 196 286 196 247 c 0
 196 209 164 181 126 181 c 0
EndSplineSet
EndChar

StartChar: cedilla
Encoding: 184 184 120
Width: 219
GlyphClass: 2
Flags: MW
HStem: -237 45<89.5 115.5 89.5 127.5> -97 37<69.5 141.5>
VStem: -5 69<-174.5 -164> 146 74<-164 -135>
LayerCount: 2
Fore
SplineSet
100 -192 m 0
 131 -192 146 -177 146 -151 c 0
 146 -119 120 -98 72 -97 c 0
 67 -97 61 -97 55 -98 c 0
 50 -98 45 -98 40 -99 c 1
 37 -94 l 1
 73 6 l 1
 126 6 l 1
 104 -60 l 1
 179 -60 220 -97 220 -148 c 0
 220 -209 159 -237 96 -237 c 0
 60 -237 -5 -225 -5 -172 c 0
 -5 -156 14 -136 30 -136 c 0
 51 -136 64 -152 64 -167 c 0
 64 -182 79 -192 100 -192 c 0
EndSplineSet
EndChar

StartChar: one.superior
Encoding: 185 185 121
Width: 272
GlyphClass: 2
Flags: MW
HStem: 270 22<21 258 21 21> 653 22<18 29.5> 684 20G<193 193>
VStem: 93 100<355 361 361 547 547 557.5>
LayerCount: 2
Fore
SplineSet
193 361 m 2
 193 326 193 302 224 296 c 0
 233 294 243 293 258 292 c 1
 258 270 l 1
 21 270 l 1
 21 292 l 1
 57 293 85 296 90 324 c 0
 93 332 93 342 93 355 c 2
 93 547 l 2
 93 568 93 585 92 599 c 0
 92 625 86 635 70 645 c 0
 59 652 41 653 18 653 c 1
 18 675 l 1
 46 677 79 680 106 685 c 0
 135 689 169 696 193 704 c 1
 193 361 l 2
EndSplineSet
EndChar

StartChar: ordmasculine
Encoding: 186 186 122
Width: 345
GlyphClass: 2
Flags: MW
HStem: 458 33<151 191.5 151 191.5> 672 32<162 191>
VStem: 37 79<573 603 559.5 611> 229 80<562 590.5 562 604>
LayerCount: 2
Fore
SplineSet
171 704 m 0
 233 704 278 673 298 631 c 0
 305 616 309 599 309 582 c 0
 309 542 291 512 268 493 c 0
 244 473 212 458 171 458 c 0
 112 458 67 490 48 533 c 0
 41 547 37 564 37 582 c 0
 37 640 76 679 119 695 c 0
 136 701 153 704 171 704 c 0
229 582 m 0
 229 626 211 672 171 672 c 0
 134 672 116 624 116 582 c 0
 116 537 131 491 171 491 c 0
 212 491 229 536 229 582 c 0
EndSplineSet
EndChar

StartChar: guillemotright
Encoding: 187 187 123
Width: 445
GlyphClass: 2
Flags: MW
HStem: 62 298<73 77 73 253>
LayerCount: 2
Fore
SplineSet
253 62 m 1
 227 81 l 1
 299 211 l 1
 225 342 l 1
 251 360 l 1
 409 211 l 1
 253 62 l 1
77 62 m 1
 49 81 l 1
 121 211 l 1
 47 342 l 1
 73 360 l 1
 231 211 l 1
 77 62 l 1
EndSplineSet
EndChar

StartChar: onequarter
Encoding: 188 188 124
Width: 942
GlyphClass: 3
Flags: MW
HStem: 0 23<792.5 808 638 638> 120 33<512 677 512 677 772 867 772 773.5> 270 22<71 308 71 71> 414 20G<715 772 772 772> 653 22<68 79.5> 684 21G
VStem: 143 100<355 361 361 547 547 557.5> 195 64<0 0> 677 95<85 89 89 120 66 120 153 321 321 347 347 347> 719 64<695 695>
LayerCount: 2
Fore
SplineSet
475 151 m 1xfc80
 715 434 l 1
 772 434 l 1
 772 153 l 1
 838 153 781 153 867 153 c 1
 867 120 l 1
 834 120 775 120 772 120 c 1
 772 89 l 2
 772 43 777 23 808 23 c 1
 808 0 l 1
 638 0 l 1
 638 23 l 1
 673 25 677 38 677 85 c 2
 677 120 l 1
 475 120 l 1
 475 151 l 1xfc80
677 321 m 1
 677 347 l 1
 512 153 l 1
 677 153 l 1
 677 321 l 1
243 361 m 2xfe
 243 326 243 302 274 296 c 0
 283 294 293 293 308 292 c 1
 308 270 l 1
 71 270 l 1
 71 292 l 1
 107 293 135 296 140 324 c 0
 143 332 143 342 143 355 c 2
 143 547 l 2
 143 568 143 585 142 599 c 0
 142 625 136 635 120 645 c 0
 109 652 91 653 68 653 c 1
 68 675 l 1
 96 677 129 680 156 685 c 0
 185 689 219 696 243 704 c 1
 243 361 l 2xfe
259 0 m 1xfd40
 195 0 l 1
 719 695 l 1
 783 695 l 1
 259 0 l 1xfd40
EndSplineSet
Ligature2: "'frac' Diagonal Fractions in Latin lookup 6 subtable" one slash four
Ligature2: "'frac' Diagonal Fractions in Latin lookup 6 subtable" one fraction four
EndChar

StartChar: onehalf
Encoding: 189 189 125
Width: 1072
GlyphClass: 3
Flags: MW
HStem: 0 80<744 886 886 904.5 744 969> 228 43<705 786> 270 22<66 303 66 66> 409 25<790 830.5> 653 22<63 74.5> 684 21G
VStem: 138 100<355 361 361 547 547 557.5> 205 65<0 0> 639 89<312 333.5> 729 64<695 695> 878 109<307.5 326.5 307.5 338>
LayerCount: 2
Fore
SplineSet
786 271 m 1xdce0
 782 245 761 228 733 228 c 0
 677 228 639 263 639 314 c 0
 639 353 662 382 690 400 c 0
 721 421 764 434 816 434 c 0
 894 434 949 407 975 365 c 0
 983 351 987 335 987 318 c 0
 987 297 981 275 970 255 c 0
 958 235 942 215 922 196 c 0
 876 154 804 116 743 82 c 1
 744 80 l 1
 886 80 l 2
 923 80 942 88 958 108 c 0
 963 115 970 124 974 135 c 1
 994 135 l 1
 969 0 l 1
 633 0 l 1
 633 36 l 1
 682 73 723 100 755 126 c 0
 787 153 812 177 831 199 c 0
 860 233 878 263 878 314 c 0
 878 362 857 409 804 409 c 0
 754 409 728 368 728 329 c 0
 728 295 750 271 786 271 c 1xdce0
238 361 m 2xbee0
 238 326 238 302 269 296 c 0
 278 294 288 293 303 292 c 1
 303 270 l 1
 66 270 l 1
 66 292 l 1
 102 293 130 296 135 324 c 0
 138 332 138 342 138 355 c 2
 138 547 l 2
 138 568 138 585 137 599 c 0
 137 625 131 635 115 645 c 0
 104 652 86 653 63 653 c 1
 63 675 l 1
 91 677 124 680 151 685 c 0
 180 689 214 696 238 704 c 1
 238 361 l 2xbee0
270 0 m 1x9de0
 205 0 l 1
 729 695 l 1
 793 695 l 1
 270 0 l 1x9de0
EndSplineSet
Ligature2: "'frac' Diagonal Fractions in Latin lookup 6 subtable" one slash two
Ligature2: "'frac' Diagonal Fractions in Latin lookup 6 subtable" one fraction two
EndChar

StartChar: threequarters
Encoding: 190 190 126
Width: 1025
GlyphClass: 3
Flags: MW
HStem: 0 23<879.5 895 725 725> 120 33<599 764 599 764 859 954 859 860.5> 265 25<216 266.5> 402 33<146 209> 465 56<191.5 204 191.5 210> 485 21<248 272.5 248 274> 557 35<152 214> 675 20G<804 868 868 868> 679 25<222.5 265>
VStem: 63 100<355 368.5 339.5 378.5> 85 95<617 637> 281 64<0 0> 308 104<584.5 613.5 584.5 614> 320 109<366.5 401 366 415> 764 95<85 89 89 120 66 120 153 321 321 347 347 347> 804 64<695 695>
LayerCount: 2
Fore
SplineSet
238 290 m 0xf6c4
 299 290 320 342 320 391 c 0
 320 439 300 485 248 485 c 1xf6c4
 235 479 218 465 202 465 c 0
 181 465 165 474 165 495 c 0
 165 514 182 521 201 521 c 0xfa44
 207 521 213 520 220 518 c 0
 228 516 242 508 248 506 c 0
 297 506 308 547 308 592 c 0
 308 636 289 679 241 679 c 0
 204 679 180 655 180 626 c 0
 180 608 194 592 214 592 c 1
 208 571 192 557 164 557 c 0
 140 557 122 566 109 577 c 0
 96 588 85 603 85 623 c 0
 85 651 106 670 129 682 c 0
 156 698 198 704 242 704 c 0
 316 704 374 686 400 646 c 0
 408 634 412 621 412 606 c 0xf6a8
 412 563 383 536 353 518 c 0
 341 511 328 507 314 504 c 1
 314 500 l 1
 349 492 376 477 397 457 c 0
 415 440 429 416 429 386 c 0
 429 346 404 317 375 299 c 0
 342 278 295 265 238 265 c 0
 164 265 104 286 76 323 c 0
 67 335 63 348 63 362 c 0
 63 395 88 419 118 429 c 0
 128 433 140 435 152 435 c 0
 182 435 203 421 209 402 c 1
 181 402 163 380 163 357 c 0
 163 322 194 290 238 290 c 0xf6c4
562 151 m 1
 802 434 l 1
 859 434 l 1
 859 153 l 1
 925 153 868 153 954 153 c 1
 954 120 l 1
 921 120 862 120 859 120 c 1
 859 89 l 2
 859 43 864 23 895 23 c 1
 895 0 l 1
 725 0 l 1
 725 23 l 1
 760 25 764 38 764 85 c 2
 764 120 l 1xf202
 562 120 l 1
 562 151 l 1
764 321 m 1
 764 347 l 1
 599 153 l 1
 764 153 l 1
 764 321 l 1
345 0 m 1xf311
 281 0 l 1
 804 695 l 1
 868 695 l 1
 345 0 l 1xf311
EndSplineSet
Ligature2: "'frac' Diagonal Fractions in Latin lookup 6 subtable" three slash four
Ligature2: "'frac' Diagonal Fractions in Latin lookup 6 subtable" three fraction four
EndChar

StartChar: questiondown
Encoding: 191 191 127
Width: 363
GlyphClass: 2
Flags: MW
HStem: -9 98<185 275> 265 105<192 203 154 233 154 264> 459 20G<203 264 264 264> 568 136<218.5 255.5>
VStem: 49 38 169 137<617.5 655> 203 61<370 479 265 479>
LayerCount: 2
Fore
SplineSet
49 217 m 0xfc
 49 314 105 370 203 370 c 1
 203 479 l 1
 264 479 l 1
 264 265 l 1xfa
 233 265 l 2
 151 265 89 248 87 181 c 0
 86 146 105 111 134 97 c 0
 143 92 179 89 191 89 c 0
 213 89 242 99 263 99 c 0
 280 99 294 94 306 85 c 0
 317 74 322 61 322 46 c 0
 322 8 295 -9 255 -9 c 0
 191 -9 144 23 111 60 c 0
 79 97 49 151 49 217 c 0xfc
237 704 m 0
 274 704 306 674 306 636 c 0
 306 598 274 568 237 568 c 0
 200 568 169 599 169 636 c 0xfc
 169 674 200 704 237 704 c 0
EndSplineSet
EndChar

StartChar: Agrave
Encoding: 192 192 128
Width: 730
GlyphClass: 2
Flags: MW
HStem: 0 20<415 415 415 756> 218 38<181 425 181 440 168 425> 684 20G<329 396 396 396> 789 92<184 224>
VStem: 146 250<704 860>
LayerCount: 2
Fore
SplineSet
146 848 m 0
 146 872 170 881 198 881 c 0
 232 881 260 868 282 852 c 2
 396 764 l 1
 330 764 l 1
 224 789 l 2
 192 797 172 806 162 815 c 0
 150 823 146 834 146 848 c 0
415 20 m 1
 457 21 489 40 489 75 c 0
 489 83 488 93 483 107 c 0
 478 121 473 137 466 156 c 2
 440 218 l 1
 168 218 l 1
 140 154 121 102 121 78 c 0
 121 37 190 19 236 19 c 1
 236 0 l 1
 -12 0 l 1
 -12 19 l 1
 45 27 73 61 92 109 c 2
 329 704 l 1
 396 704 l 1
 612 177 l 2
 633 128 643 89 672 60 c 0
 695 39 716 24 756 20 c 1
 756 0 l 1
 415 0 l 1
 415 20 l 1
181 256 m 1
 425 256 l 1
 308 538 l 1
 295 538 l 1
 181 256 l 1
EndSplineSet
Substitution2: "'c2sc' Capitals to Small Capitals in Latin lookup 1 subtable" agrave.sc
EndChar

StartChar: Aacute
Encoding: 193 193 129
Width: 730
GlyphClass: 2
Flags: MW
HStem: 0 20<415 415 415 756> 218 38<181 425 181 440 168 425> 684 20G<329 396 396 396> 764 0<330 330 396 396> 789 92<500 542>
VStem: 330 250<764 860>
LayerCount: 2
Fore
SplineSet
528 881 m 0
 556 881 580 872 580 848 c 0
 580 834 574 823 564 815 c 0
 552 806 532 797 500 789 c 2
 396 764 l 1
 330 764 l 1
 444 852 l 2
 465 868 494 881 528 881 c 0
415 20 m 1
 457 21 489 40 489 75 c 0
 489 83 488 93 483 107 c 0
 478 121 473 137 466 156 c 2
 440 218 l 1
 168 218 l 1
 140 154 121 102 121 78 c 0
 121 37 190 19 236 19 c 1
 236 0 l 1
 -12 0 l 1
 -12 19 l 1
 45 27 73 61 92 109 c 2
 329 704 l 1
 396 704 l 1
 612 177 l 2
 633 128 643 89 672 60 c 0
 695 39 716 24 756 20 c 1
 756 0 l 1
 415 0 l 1
 415 20 l 1
181 256 m 1
 425 256 l 1
 308 538 l 1
 295 538 l 1
 181 256 l 1
EndSplineSet
Substitution2: "'c2sc' Capitals to Small Capitals in Latin lookup 1 subtable" aacute.sc
EndChar

StartChar: Acircumflex
Encoding: 194 194 130
Width: 730
GlyphClass: 2
Flags: MW
HStem: 0 20<415 415 415 756> 218 38<181 425 181 440 168 425> 684 20G<329 396 396 396> 808 73<362 362>
VStem: 198 328<764 764>
LayerCount: 2
Fore
SplineSet
416 881 m 1
 526 764 l 1
 466 764 l 1
 362 808 l 1
 258 764 l 1
 198 764 l 1
 310 881 l 1
 416 881 l 1
415 20 m 1
 457 21 489 40 489 75 c 0
 489 83 488 93 483 107 c 0
 478 121 473 137 466 156 c 2
 440 218 l 1
 168 218 l 1
 140 154 121 102 121 78 c 0
 121 37 190 19 236 19 c 1
 236 0 l 1
 -12 0 l 1
 -12 19 l 1
 45 27 73 61 92 109 c 2
 329 704 l 1
 396 704 l 1
 612 177 l 2
 633 128 643 89 672 60 c 0
 695 39 716 24 756 20 c 1
 756 0 l 1
 415 0 l 1
 415 20 l 1
181 256 m 1
 425 256 l 1
 308 538 l 1
 295 538 l 1
 181 256 l 1
EndSplineSet
Substitution2: "'c2sc' Capitals to Small Capitals in Latin lookup 1 subtable" acircumflex.sc
EndChar

StartChar: Atilde
Encoding: 195 195 131
Width: 730
GlyphClass: 2
Flags: MW
HStem: 0 20<415 415 415 756> 218 38<181 425 181 440 168 425> 684 20G<329 396 396 396> 764 87<422.5 459.5> 810 83<268.5 301.5>
LayerCount: 2
Fore
SplineSet
272 810 m 0x08
 247 810 241 795 232 772 c 1
 192 772 l 1
 201 829 239 893 298 893 c 0x08
 352 893 397 851 448 851 c 0
 476 851 484 866 492 889 c 1
 534 889 l 1
 522 832 491 764 428 764 c 0x10
 372 764 331 810 272 810 c 0x08
415 20 m 1xe0
 457 21 489 40 489 75 c 0
 489 83 488 93 483 107 c 0
 478 121 473 137 466 156 c 2
 440 218 l 1
 168 218 l 1
 140 154 121 102 121 78 c 0
 121 37 190 19 236 19 c 1
 236 0 l 1
 -12 0 l 1
 -12 19 l 1
 45 27 73 61 92 109 c 2
 329 704 l 1
 396 704 l 1
 612 177 l 2
 633 128 643 89 672 60 c 0
 695 39 716 24 756 20 c 1
 756 0 l 1
 415 0 l 1
 415 20 l 1xe0
181 256 m 1
 425 256 l 1
 308 538 l 1
 295 538 l 1
 181 256 l 1
EndSplineSet
Substitution2: "'c2sc' Capitals to Small Capitals in Latin lookup 1 subtable" atilde.sc
EndChar

StartChar: Adieresis
Encoding: 196 196 132
Width: 730
GlyphClass: 2
Flags: MW
HStem: 0 20<415 415 415 756> 218 38<181 425 181 440 168 425> 684 20G<329 396 396 396> 764 104<248.5 279.5 248.5 280 454 477>
VStem: 210 110<801.5 832.5> 406 110<809.5 832.5 801.5 833>
LayerCount: 2
Fore
SplineSet
264 764 m 0
 232 764 210 786 210 817 c 0
 210 848 233 868 264 868 c 0
 295 868 320 848 320 817 c 0
 320 786 296 764 264 764 c 0
516 817 m 0
 516 786 493 764 462 764 c 0
 446 764 432 769 420 778 c 0
 410 789 406 802 406 817 c 0
 406 849 430 868 462 868 c 0
 492 868 516 848 516 817 c 0
415 20 m 1
 457 21 489 40 489 75 c 0
 489 83 488 93 483 107 c 0
 478 121 473 137 466 156 c 2
 440 218 l 1
 168 218 l 1
 140 154 121 102 121 78 c 0
 121 37 190 19 236 19 c 1
 236 0 l 1
 -12 0 l 1
 -12 19 l 1
 45 27 73 61 92 109 c 2
 329 704 l 1
 396 704 l 1
 612 177 l 2
 633 128 643 89 672 60 c 0
 695 39 716 24 756 20 c 1
 756 0 l 1
 415 0 l 1
 415 20 l 1
181 256 m 1
 425 256 l 1
 308 538 l 1
 295 538 l 1
 181 256 l 1
EndSplineSet
Substitution2: "'c2sc' Capitals to Small Capitals in Latin lookup 1 subtable" adieresis.sc
EndChar

StartChar: Aring
Encoding: 197 197 133
Width: 730
GlyphClass: 2
Flags: MW
HStem: 0 20<415 415 415 756> 218 38<181 425 181 440 168 425> 684 20G<329 396 396 396> 698 39<350 376> 834 39<350 377>
VStem: 271 40<773 799> 414 42<773 800>
LayerCount: 2
Fore
SplineSet
363 873 m 0x1e
 415 873 456 838 456 786 c 0
 456 760 446 740 430 722 c 1
 410 706 389 698 363 698 c 0
 337 698 317 706 297 722 c 1
 281 740 271 760 271 786 c 0
 271 812 281 831 297 849 c 1
 317 865 337 873 363 873 c 0x1e
363 834 m 0
 336 834 311 814 311 786 c 0
 311 754 335 737 363 737 c 0
 393 737 414 754 414 786 c 0
 414 814 391 834 363 834 c 0
415 20 m 1xe0
 457 21 489 40 489 75 c 0
 489 83 488 93 483 107 c 0
 478 121 473 137 466 156 c 2
 440 218 l 1
 168 218 l 1
 140 154 121 102 121 78 c 0
 121 37 190 19 236 19 c 1
 236 0 l 1
 -12 0 l 1
 -12 19 l 1
 45 27 73 61 92 109 c 2
 329 704 l 1
 396 704 l 1
 612 177 l 2
 633 128 643 89 672 60 c 0
 695 39 716 24 756 20 c 1
 756 0 l 1
 415 0 l 1
 415 20 l 1xe0
181 256 m 1
 425 256 l 1
 308 538 l 1
 295 538 l 1
 181 256 l 1
EndSplineSet
Substitution2: "'c2sc' Capitals to Small Capitals in Latin lookup 1 subtable" aring.sc
EndChar

StartChar: AE
Encoding: 198 198 134
Width: 1025
GlyphClass: 2
Flags: MW
HStem: 0 20<-20 226 -20 -20> 0 28<726 781 726 979> 271 30<257 461 257 461 243 461> 348 28<594 613.5 594 634.5> 667 28<604.5 610 610 731> 675 20<336 353>
VStem: 461 133<140 271 271 271 301 348 376 652> 782 25<230 495 230 495> 923 28<518 695> 963 30<205 205>
LayerCount: 2
Fore
SplineSet
401 631 m 0xb3c0
 401 653 370 675 336 675 c 1
 336 695 l 1
 951 695 l 1xb7c0
 951 518 l 1
 923 518 l 1
 912 589 880 649 811 661 c 0
 789 666 763 667 731 667 c 2
 610 667 l 2
 599 667 594 662 594 652 c 2
 594 376 l 1
 633 376 664 376 687 379 c 0
 730 385 757 404 769 437 c 0
 774 451 779 471 782 495 c 1
 807 495 l 1
 807 230 l 1
 782 230 l 1
 778 253 773 271 768 285 c 0
 748 341 675 348 594 348 c 1
 594 131 l 2
 594 91 602 64 628 50 c 1
 655 29 700 28 752 28 c 0x7bc0
 810 28 862 35 892 61 c 0
 927 87 952 151 963 205 c 1
 993 205 l 1
 979 0 l 1
 366 0 l 1
 366 20 l 1
 418 23 449 27 458 71 c 0
 461 85 461 119 461 140 c 2
 461 271 l 1
 243 271 l 1
 223 235 191 183 180 162 c 0
 168 141 151 110 146 99 c 0
 141 87 137 78 137 73 c 0
 137 68 136 63 136 58 c 0
 136 19 193 24 226 20 c 1
 226 0 l 1
 -20 0 l 1
 -20 20 l 1
 39 28 79 49 103 93 c 0
 129 136 158 188 185 236 c 0
 254 359 320 473 393 608 c 0
 398 618 401 626 401 631 c 0xb3c0
461 301 m 1
 461 660 l 1
 257 301 l 1
 461 301 l 1
EndSplineSet
Substitution2: "'c2sc' Capitals to Small Capitals in Latin lookup 1 subtable" ae.sc
EndChar

StartChar: Ccedilla
Encoding: 199 199 135
Width: 742
GlyphClass: 2
Flags: MW
HStem: -244 45<393.5 419.5 393.5 431.5> -104 37<373.5 445> -9 28<345.5 450.5> 0 21G<667 700 667 667> 675 20G<648 682 682 682> 676 28<356 459.5 356 479.5>
VStem: 42 157<310 393.5> 298 69 450 74<-171 -142> 638 26<467 467> 667 33<0 245>
LayerCount: 2
Fore
SplineSet
404 -199 m 0xc180
 435 -199 450 -184 450 -158 c 0
 450 -126 424 -105 376 -104 c 0
 371 -104 364 -104 358 -105 c 0
 354 -105 348 -105 344 -106 c 2
 340 -101 l 1
 376 -1 l 1
 430 -1 l 1
 408 -67 l 1
 482 -67 524 -104 524 -155 c 0
 524 -216 463 -244 400 -244 c 0
 364 -244 298 -232 298 -179 c 0
 298 -163 318 -143 334 -143 c 0
 354 -143 368 -159 368 -174 c 0
 367 -189 383 -199 404 -199 c 0xc180
414 704 m 0x2660
 505 704 557 679 621 639 c 1
 648 695 l 1
 682 695 l 1x0a60
 664 467 l 1
 638 467 l 1
 615 565 537 676 422 676 c 0
 259 676 199 505 199 341 c 0
 199 170 264 19 426 19 c 0x2660
 562 19 639 130 670 245 c 1
 700 245 l 1
 700 0 l 1
 667 0 l 1x1260
 644 71 l 1
 578 18 498 -9 403 -9 c 0
 288 -9 201 27 141 85 c 0
 109 114 85 151 69 193 c 0
 51 235 42 284 42 336 c 0
 42 451 85 543 146 602 c 0
 206 662 298 704 414 704 c 0x2660
EndSplineSet
Substitution2: "'c2sc' Capitals to Small Capitals in Latin lookup 1 subtable" ccedilla.sc
EndChar

StartChar: Egrave
Encoding: 200 200 136
Width: 689
GlyphClass: 2
Flags: MW
HStem: 0 20<32 644 32 32> 0 28<387 444.5 387 644> 349 28<259 291> 667 28<278 293 293 395> 675 20<42 612> 789 92<188.5 229>
VStem: 126 133<123 131 131 349 377 572 572 598.5> 150 250<764 860> 447 27<230 495 230 495> 589 29<518 518> 632 26<207 207>
LayerCount: 2
Fore
SplineSet
150 848 m 0x05
 150 872 175 881 202 881 c 0
 236 881 265 868 286 852 c 2
 400 764 l 1
 334 764 l 1
 229 789 l 2
 197 797 177 806 166 815 c 0
 155 823 150 834 150 848 c 0x05
293 667 m 2x32e0
 263 667 259 664 259 634 c 2
 259 377 l 1
 340 377 414 379 434 434 c 0
 439 448 444 471 447 495 c 1
 474 495 l 1
 474 230 l 1
 447 230 l 1
 440 273 433 313 403 330 c 0
 366 349 323 349 259 349 c 1
 259 131 l 2
 259 94 269 64 292 50 c 0
 321 31 361 28 413 28 c 0x72e0
 476 28 527 33 560 60 c 0
 595 88 621 152 632 207 c 1
 658 207 l 1
 644 0 l 1
 32 0 l 1
 32 20 l 1
 84 23 114 28 123 72 c 0
 126 86 126 102 126 123 c 2
 126 572 l 2
 126 625 123 656 85 669 c 0
 74 671 60 674 42 675 c 1
 42 695 l 1
 612 695 l 1xaae0
 618 518 l 1
 589 518 l 1
 578 588 546 649 477 661 c 0
 454 666 427 667 395 667 c 2
 293 667 l 2x32e0
EndSplineSet
Substitution2: "'c2sc' Capitals to Small Capitals in Latin lookup 1 subtable" egrave.sc
EndChar

StartChar: Eacute
Encoding: 201 201 137
Width: 689
GlyphClass: 2
Flags: MW
HStem: 0 20<32 644 32 32> 0 28<387 444.5 387 644> 349 28<259 291> 667 28<278 293 293 395> 675 20<42 612> 764 0<294 294 360 360> 789 92<465 507>
VStem: 126 133<123 131 131 349 377 572 572 598.5> 294 250<764 860> 447 27<230 495 230 495> 589 29<518 518> 632 26<207 207>
LayerCount: 2
Fore
SplineSet
493 881 m 0x0680
 521 881 544 872 544 848 c 0
 544 834 539 823 528 815 c 0
 517 806 497 797 465 789 c 2
 360 764 l 1
 294 764 l 1
 408 852 l 2
 429 868 458 881 493 881 c 0x0680
293 667 m 2x3170
 263 667 259 664 259 634 c 2
 259 377 l 1
 340 377 414 379 434 434 c 0
 439 448 444 471 447 495 c 1
 474 495 l 1
 474 230 l 1
 447 230 l 1
 440 273 433 313 403 330 c 0
 366 349 323 349 259 349 c 1
 259 131 l 2
 259 94 269 64 292 50 c 0
 321 31 361 28 413 28 c 0x7170
 476 28 527 33 560 60 c 0
 595 88 621 152 632 207 c 1
 658 207 l 1
 644 0 l 1
 32 0 l 1
 32 20 l 1
 84 23 114 28 123 72 c 0
 126 86 126 102 126 123 c 2
 126 572 l 2
 126 625 123 656 85 669 c 0
 74 671 60 674 42 675 c 1
 42 695 l 1
 612 695 l 1xa970
 618 518 l 1
 589 518 l 1
 578 588 546 649 477 661 c 0
 454 666 427 667 395 667 c 2
 293 667 l 2x3170
EndSplineSet
Substitution2: "'c2sc' Capitals to Small Capitals in Latin lookup 1 subtable" eacute.sc
EndChar

StartChar: Ecircumflex
Encoding: 202 202 138
Width: 689
GlyphClass: 2
Flags: MW
HStem: 0 20<32 644 32 32> 0 28<387 444.5 387 644> 349 28<259 291> 667 28<278 293 293 395> 675 20<42 612> 808 73<327 327>
VStem: 126 133<123 131 131 349 377 572 572 598.5> 163 328<764 764> 447 27<230 495 230 495> 589 29<518 518> 632 26<207 207>
LayerCount: 2
Fore
SplineSet
380 881 m 1x05
 491 764 l 1
 431 764 l 1
 327 808 l 1
 223 764 l 1
 163 764 l 1
 275 881 l 1
 380 881 l 1x05
293 667 m 2x32e0
 263 667 259 664 259 634 c 2
 259 377 l 1
 340 377 414 379 434 434 c 0
 439 448 444 471 447 495 c 1
 474 495 l 1
 474 230 l 1
 447 230 l 1
 440 273 433 313 403 330 c 0
 366 349 323 349 259 349 c 1
 259 131 l 2
 259 94 269 64 292 50 c 0
 321 31 361 28 413 28 c 0x72e0
 476 28 527 33 560 60 c 0
 595 88 621 152 632 207 c 1
 658 207 l 1
 644 0 l 1
 32 0 l 1
 32 20 l 1
 84 23 114 28 123 72 c 0
 126 86 126 102 126 123 c 2
 126 572 l 2
 126 625 123 656 85 669 c 0
 74 671 60 674 42 675 c 1
 42 695 l 1
 612 695 l 1xaae0
 618 518 l 1
 589 518 l 1
 578 588 546 649 477 661 c 0
 454 666 427 667 395 667 c 2
 293 667 l 2x32e0
EndSplineSet
Substitution2: "'c2sc' Capitals to Small Capitals in Latin lookup 1 subtable" ecircumflex.sc
EndChar

StartChar: Edieresis
Encoding: 203 203 139
Width: 689
GlyphClass: 2
Flags: MW
HStem: 0 20<32 644 32 32> 0 28<387 444.5 387 644> 349 28<259 291> 667 28<278 293 293 395> 675 20<42 612> 764 104<212.5 244 212.5 244.5 418 441>
VStem: 126 133<123 131 131 349 377 572 572 598.5> 174 110<801.5 832.5> 370 110<809.5 832.5 801.5 833> 447 27<230 495 230 495> 589 29<518 518> 632 26<207 207>
LayerCount: 2
Fore
SplineSet
228 764 m 0x0580
 196 764 174 786 174 817 c 0
 174 848 197 868 228 868 c 0
 260 868 284 848 284 817 c 0
 284 786 261 764 228 764 c 0x0580
480 817 m 0
 480 786 457 764 426 764 c 0
 410 764 396 769 385 778 c 0
 375 789 370 802 370 817 c 0
 370 849 394 868 426 868 c 0
 456 868 480 848 480 817 c 0
293 667 m 2x3270
 263 667 259 664 259 634 c 2
 259 377 l 1
 340 377 414 379 434 434 c 0
 439 448 444 471 447 495 c 1
 474 495 l 1
 474 230 l 1
 447 230 l 1
 440 273 433 313 403 330 c 0
 366 349 323 349 259 349 c 1
 259 131 l 2
 259 94 269 64 292 50 c 0
 321 31 361 28 413 28 c 0x7270
 476 28 527 33 560 60 c 0
 595 88 621 152 632 207 c 1
 658 207 l 1
 644 0 l 1
 32 0 l 1
 32 20 l 1
 84 23 114 28 123 72 c 0
 126 86 126 102 126 123 c 2
 126 572 l 2
 126 625 123 656 85 669 c 0
 74 671 60 674 42 675 c 1
 42 695 l 1
 612 695 l 1xaa70
 618 518 l 1
 589 518 l 1
 578 588 546 649 477 661 c 0
 454 666 427 667 395 667 c 2
 293 667 l 2x3270
EndSplineSet
Substitution2: "'c2sc' Capitals to Small Capitals in Latin lookup 1 subtable" edieresis.sc
EndChar

StartChar: Igrave
Encoding: 204 204 140
Width: 387
GlyphClass: 2
Flags: MW
HStem: 0 20<32 355 32 32> 675 20<42 346 42 346> 789 92<15.5 56>
VStem: -23 250<764 860> 127 133<150 545>
LayerCount: 2
Fore
SplineSet
-23 848 m 0x30
 -23 872 2 881 29 881 c 0
 63 881 92 868 113 852 c 2
 227 764 l 1
 161 764 l 1
 56 789 l 2
 24 797 4 806 -7 815 c 0
 -18 823 -23 834 -23 848 c 0x30
355 0 m 1xc8
 32 0 l 1
 32 20 l 1
 67 22 97 24 110 44 c 0
 126 69 127 102 127 150 c 2
 127 545 l 2
 127 605 126 650 87 668 c 0
 75 672 61 674 42 675 c 1
 42 695 l 1
 346 695 l 1
 346 675 l 1
 311 673 288 668 275 647 c 0
 269 637 266 624 264 608 c 0
 261 591 260 570 260 545 c 2
 260 150 l 2
 260 122 261 99 264 83 c 0
 270 30 298 23 355 20 c 1
 355 0 l 1xc8
EndSplineSet
Substitution2: "'c2sc' Capitals to Small Capitals in Latin lookup 1 subtable" igrave.sc
EndChar

StartChar: Iacute
Encoding: 205 205 141
Width: 387
GlyphClass: 2
Flags: MW
HStem: 0 20<32 355 32 32> 675 20<42 346 42 346> 764 0<161 161 227 227> 789 92<332 374>
VStem: 127 133<150 545> 161 250<764 860>
LayerCount: 2
Fore
SplineSet
360 881 m 0x34
 388 881 411 872 411 848 c 0
 411 834 406 823 395 815 c 0
 384 806 364 797 332 789 c 2
 227 764 l 1
 161 764 l 1
 275 852 l 2
 296 868 325 881 360 881 c 0x34
355 0 m 1xc8
 32 0 l 1
 32 20 l 1
 67 22 97 24 110 44 c 0
 126 69 127 102 127 150 c 2
 127 545 l 2
 127 605 126 650 87 668 c 0
 75 672 61 674 42 675 c 1
 42 695 l 1
 346 695 l 1
 346 675 l 1
 311 673 288 668 275 647 c 0
 269 637 266 624 264 608 c 0
 261 591 260 570 260 545 c 2
 260 150 l 2
 260 122 261 99 264 83 c 0
 270 30 298 23 355 20 c 1
 355 0 l 1xc8
EndSplineSet
Substitution2: "'c2sc' Capitals to Small Capitals in Latin lookup 1 subtable" iacute.sc
EndChar

StartChar: Icircumflex
Encoding: 206 206 142
Width: 387
GlyphClass: 2
Flags: MW
HStem: 0 20<32 355 32 32> 675 20<42 346 42 346> 808 73<194 194>
VStem: 30 328<764 764> 127 133<150 545>
LayerCount: 2
Fore
SplineSet
247 881 m 1x30
 358 764 l 1
 298 764 l 1
 194 808 l 1
 90 764 l 1
 30 764 l 1
 142 881 l 1
 247 881 l 1x30
355 0 m 1xc8
 32 0 l 1
 32 20 l 1
 67 22 97 24 110 44 c 0
 126 69 127 102 127 150 c 2
 127 545 l 2
 127 605 126 650 87 668 c 0
 75 672 61 674 42 675 c 1
 42 695 l 1
 346 695 l 1
 346 675 l 1
 311 673 288 668 275 647 c 0
 269 637 266 624 264 608 c 0
 261 591 260 570 260 545 c 2
 260 150 l 2
 260 122 261 99 264 83 c 0
 270 30 298 23 355 20 c 1
 355 0 l 1xc8
EndSplineSet
Substitution2: "'c2sc' Capitals to Small Capitals in Latin lookup 1 subtable" icircumflex.sc
EndChar

StartChar: Idieresis
Encoding: 207 207 143
Width: 387
GlyphClass: 2
Flags: MW
HStem: 0 20<32 355 32 32> 675 20<42 346 42 346> 764 104<79.5 111 79.5 111.5 285 308>
VStem: 41 110<801.5 832.5> 127 133<150 545> 237 110<809.5 832.5 801.5 833>
LayerCount: 2
Fore
SplineSet
95 764 m 0x34
 63 764 41 786 41 817 c 0
 41 848 64 868 95 868 c 0
 127 868 151 848 151 817 c 0
 151 786 128 764 95 764 c 0x34
347 817 m 0
 347 786 324 764 293 764 c 0
 277 764 263 769 252 778 c 0
 242 789 237 802 237 817 c 0
 237 849 261 868 293 868 c 0
 323 868 347 848 347 817 c 0
355 0 m 1xc8
 32 0 l 1
 32 20 l 1
 67 22 97 24 110 44 c 0
 126 69 127 102 127 150 c 2
 127 545 l 2
 127 605 126 650 87 668 c 0
 75 672 61 674 42 675 c 1
 42 695 l 1
 346 695 l 1
 346 675 l 1
 311 673 288 668 275 647 c 0
 269 637 266 624 264 608 c 0
 261 591 260 570 260 545 c 2
 260 150 l 2
 260 122 261 99 264 83 c 0
 270 30 298 23 355 20 c 1
 355 0 l 1xc8
EndSplineSet
Substitution2: "'c2sc' Capitals to Small Capitals in Latin lookup 1 subtable" idieresis.sc
EndChar

StartChar: Eth
Encoding: 208 208 144
Width: 829
GlyphClass: 2
Flags: MW
HStem: 0 20<32 32 32 408> 0 28<351 408> 350 31<48 48> 667 28<269 274 274 387> 675 20<46 389>
VStem: 126 133<123 131 131 572 572 599> 637 151<281 393 281 404.5>
LayerCount: 2
Fore
SplineSet
379 382 m 1x26
 379 351 l 1
 48 350 l 1
 48 381 l 1
 379 382 l 1x26
32 0 m 1x86
 32 20 l 1
 52 21 67 23 79 26 c 0
 123 33 126 71 126 123 c 2
 126 572 l 2
 126 626 125 655 87 669 c 0
 77 671 63 674 46 675 c 1
 46 695 l 1x8e
 389 695 l 2
 511 695 609 653 675 593 c 0
 738 536 788 450 788 336 c 0
 788 226 741 149 682 94 c 0
 618 38 525 0 408 0 c 2x56
 32 0 l 1x86
392 28 m 0x56
 558 28 637 162 637 334 c 0
 637 475 589 603 491 646 c 0
 460 660 426 667 387 667 c 2
 274 667 l 2
 264 667 259 662 259 652 c 2
 259 131 l 2
 259 54 310 28 392 28 c 0x56
EndSplineSet
Substitution2: "'c2sc' Capitals to Small Capitals in Latin lookup 1 subtable" eth.sc
EndChar

StartChar: Ntilde
Encoding: 209 209 145
Width: 808
GlyphClass: 2
Flags: MW
HStem: -9 21G<585 585 585 666> 0 20<27 295 27 27> 675 20<36 268> 764 87<472.5 509.5> 810 83<318.5 351.5>
VStem: 151 30<150 156 156 545 545 561> 635 31<173 539 539 545 -9 570.5>
LayerCount: 2
Fore
SplineSet
322 810 m 0x08
 297 810 291 795 282 772 c 1
 242 772 l 1
 251 829 289 893 348 893 c 0x08
 402 893 447 851 498 851 c 0
 526 851 534 866 542 889 c 1
 584 889 l 1
 572 832 541 764 478 764 c 0x10
 422 764 381 810 322 810 c 0x08
585 -9 m 1xa6
 185 561 l 1
 181 561 l 1
 181 156 l 2
 181 92 198 37 247 26 c 0
 259 23 275 21 295 20 c 1
 295 0 l 1
 27 0 l 1
 27 20 l 1x66
 65 22 106 24 122 44 c 0
 141 66 151 104 151 150 c 2
 151 545 l 2
 151 588 139 622 124 647 c 0
 111 669 73 673 36 675 c 1
 36 695 l 1
 268 695 l 1
 632 173 l 1
 635 173 l 1
 635 539 l 2
 635 602 618 657 570 669 c 0
 557 672 541 674 521 675 c 1
 521 695 l 1
 789 695 l 1
 789 675 l 1
 749 673 712 671 694 651 c 0
 676 628 666 592 666 545 c 2
 666 -9 l 1
 585 -9 l 1xa6
EndSplineSet
Substitution2: "'c2sc' Capitals to Small Capitals in Latin lookup 1 subtable" ntilde.sc
EndChar

StartChar: Ograve
Encoding: 210 210 146
Width: 851
GlyphClass: 2
Flags: MW
HStem: -9 29<367.5 484> 675 29<367 485 367 507.5> 789 92<247.5 288>
VStem: 41 157<286.5 399> 209 250<764 860> 654 157<317 399 286.5 422.5>
LayerCount: 2
Fore
SplineSet
209 848 m 0
 209 872 234 881 261 881 c 0
 295 881 324 868 345 852 c 2
 459 764 l 1
 393 764 l 1
 288 789 l 2
 256 797 236 806 225 815 c 0
 214 823 209 834 209 848 c 0
426 704 m 0
 544 704 636 658 700 599 c 0
 762 541 811 456 811 342 c 0
 811 231 761 150 699 94 c 0
 637 36 542 -9 426 -9 c 0
 309 -9 217 36 153 94 c 0
 91 149 41 231 41 342 c 0
 41 456 90 541 152 599 c 0
 216 658 308 704 426 704 c 0
426 20 m 0
 546 20 610 124 639 218 c 0
 649 254 654 295 654 339 c 0
 654 506 589 675 426 675 c 0
 263 675 198 506 198 339 c 0
 198 177 267 20 426 20 c 0
EndSplineSet
Substitution2: "'c2sc' Capitals to Small Capitals in Latin lookup 1 subtable" ograve.sc
EndChar

StartChar: Oacute
Encoding: 211 211 147
Width: 851
GlyphClass: 2
Flags: MW
HStem: -9 29<367.5 484> 675 29<367 485 367 507.5> 764 0<393 393 459 459> 789 92<564 606>
VStem: 41 157<286.5 399> 393 250<764 860> 654 157<317 399 286.5 422.5>
LayerCount: 2
Fore
SplineSet
592 881 m 0
 620 881 643 872 643 848 c 0
 643 834 638 823 627 815 c 0
 616 806 596 797 564 789 c 2
 459 764 l 1
 393 764 l 1
 507 852 l 2
 528 868 557 881 592 881 c 0
426 704 m 0
 544 704 636 658 700 599 c 0
 762 541 811 456 811 342 c 0
 811 231 761 150 699 94 c 0
 637 36 542 -9 426 -9 c 0
 309 -9 217 36 153 94 c 0
 91 149 41 231 41 342 c 0
 41 456 90 541 152 599 c 0
 216 658 308 704 426 704 c 0
426 20 m 0
 546 20 610 124 639 218 c 0
 649 254 654 295 654 339 c 0
 654 506 589 675 426 675 c 0
 263 675 198 506 198 339 c 0
 198 177 267 20 426 20 c 0
EndSplineSet
Substitution2: "'c2sc' Capitals to Small Capitals in Latin lookup 1 subtable" oacute.sc
EndChar

StartChar: Ocircumflex
Encoding: 212 212 148
Width: 851
GlyphClass: 2
Flags: MW
HStem: -9 29<367.5 484> 675 29<367 485 367 507.5> 808 73<426 426>
VStem: 41 157<286.5 399> 262 328<764 764> 654 157<317 399 286.5 422.5>
CounterMasks: 1 1c
LayerCount: 2
Fore
SplineSet
479 881 m 1
 590 764 l 1
 530 764 l 1
 426 808 l 1
 322 764 l 1
 262 764 l 1
 374 881 l 1
 479 881 l 1
426 704 m 0
 544 704 636 658 700 599 c 0
 762 541 811 456 811 342 c 0
 811 231 761 150 699 94 c 0
 637 36 542 -9 426 -9 c 0
 309 -9 217 36 153 94 c 0
 91 149 41 231 41 342 c 0
 41 456 90 541 152 599 c 0
 216 658 308 704 426 704 c 0
426 20 m 0
 546 20 610 124 639 218 c 0
 649 254 654 295 654 339 c 0
 654 506 589 675 426 675 c 0
 263 675 198 506 198 339 c 0
 198 177 267 20 426 20 c 0
EndSplineSet
Substitution2: "'c2sc' Capitals to Small Capitals in Latin lookup 1 subtable" ocircumflex.sc
EndChar

StartChar: Otilde
Encoding: 213 213 149
Width: 851
GlyphClass: 2
Flags: MW
HStem: -9 29<367.5 484> 675 29<367 485 367 507.5> 764 87<486.5 523> 810 83<332 365.5>
VStem: 41 157<286.5 399> 654 157<317 399 286.5 422.5>
LayerCount: 2
Fore
SplineSet
336 810 m 0x10
 310 810 304 795 296 772 c 1
 255 772 l 1
 265 829 302 893 362 893 c 0x10
 415 893 461 851 512 851 c 0
 539 851 548 866 556 889 c 1
 597 889 l 1
 586 832 555 764 491 764 c 0x20
 435 764 395 810 336 810 c 0x10
426 704 m 0xcc
 544 704 636 658 700 599 c 0
 762 541 811 456 811 342 c 0
 811 231 761 150 699 94 c 0
 637 36 542 -9 426 -9 c 0
 309 -9 217 36 153 94 c 0
 91 149 41 231 41 342 c 0
 41 456 90 541 152 599 c 0
 216 658 308 704 426 704 c 0xcc
426 20 m 0
 546 20 610 124 639 218 c 0
 649 254 654 295 654 339 c 0
 654 506 589 675 426 675 c 0
 263 675 198 506 198 339 c 0
 198 177 267 20 426 20 c 0
EndSplineSet
Substitution2: "'c2sc' Capitals to Small Capitals in Latin lookup 1 subtable" otilde.sc
EndChar

StartChar: Odieresis
Encoding: 214 214 150
Width: 851
GlyphClass: 2
Flags: MW
HStem: -9 29<367.5 484> 675 29<367 485 367 507.5> 764 104<311.5 343 311.5 343.5 517 540>
VStem: 41 157<286.5 399> 273 110<801.5 832.5> 469 110<809.5 832.5 801.5 833> 654 157<317 399 286.5 422.5>
LayerCount: 2
Fore
SplineSet
327 764 m 0
 295 764 273 786 273 817 c 0
 273 848 296 868 327 868 c 0
 359 868 383 848 383 817 c 0
 383 786 360 764 327 764 c 0
579 817 m 0
 579 786 556 764 525 764 c 0
 509 764 495 769 484 778 c 0
 474 789 469 802 469 817 c 0
 469 849 493 868 525 868 c 0
 555 868 579 848 579 817 c 0
426 704 m 0
 544 704 636 658 700 599 c 0
 762 541 811 456 811 342 c 0
 811 231 761 150 699 94 c 0
 637 36 542 -9 426 -9 c 0
 309 -9 217 36 153 94 c 0
 91 149 41 231 41 342 c 0
 41 456 90 541 152 599 c 0
 216 658 308 704 426 704 c 0
426 20 m 0
 546 20 610 124 639 218 c 0
 649 254 654 295 654 339 c 0
 654 506 589 675 426 675 c 0
 263 675 198 506 198 339 c 0
 198 177 267 20 426 20 c 0
EndSplineSet
Substitution2: "'c2sc' Capitals to Small Capitals in Latin lookup 1 subtable" odieresis.sc
EndChar

StartChar: multiply
Encoding: 215 215 151
Width: 472
GlyphClass: 2
Flags: MW
VStem: 194 85<297 299>
LayerCount: 2
Fore
SplineSet
382 109 m 1
 236 255 l 1
 88 107 l 1
 46 149 l 1
 194 297 l 1
 48 443 l 1
 91 487 l 1
 237 340 l 1
 385 488 l 1
 427 447 l 1
 279 299 l 1
 425 153 l 1
 382 109 l 1
EndSplineSet
EndChar

StartChar: Oslash
Encoding: 216 216 152
Width: 851
GlyphClass: 2
Flags: MW
HStem: -9 29<367.5 484> 675 29<367 485 367 507.5>
VStem: 41 157<286.5 399> 51 40<-73 -73> 654 157<317 399 286.5 422.5> 738 40<755 755>
LayerCount: 2
Fore
SplineSet
738 755 m 1xd4
 778 755 l 1
 91 -73 l 1
 51 -73 l 1
 738 755 l 1xd4
426 704 m 0xe8
 544 704 636 658 700 599 c 0
 762 541 811 456 811 342 c 0
 811 231 761 150 699 94 c 0
 637 36 542 -9 426 -9 c 0
 309 -9 217 36 153 94 c 0
 91 149 41 231 41 342 c 0
 41 456 90 541 152 599 c 0
 216 658 308 704 426 704 c 0xe8
426 20 m 0
 546 20 610 124 639 218 c 0
 649 254 654 295 654 339 c 0
 654 506 589 675 426 675 c 0
 263 675 198 506 198 339 c 0
 198 177 267 20 426 20 c 0
EndSplineSet
Substitution2: "'c2sc' Capitals to Small Capitals in Latin lookup 1 subtable" oslash.sc
EndChar

StartChar: Ugrave
Encoding: 217 217 153
Width: 794
GlyphClass: 2
Flags: MW
HStem: -9 31 675 20<24 34.5 322.5 348 495 515 762 787> 789 92<226.5 268>
VStem: 111 133<246 257 257 510> 188 250<764 860> 620 48<263 280 280 487>
LayerCount: 2
Fore
SplineSet
188 848 m 0x28
 188 872 213 881 240 881 c 0
 275 881 303 868 324 852 c 2
 438 764 l 1
 372 764 l 1
 268 789 l 2
 236 797 216 806 204 815 c 0
 194 823 188 834 188 848 c 0x28
244 257 m 2xd4
 244 126 295 23 422 22 c 0
 558 21 620 92 620 263 c 2
 620 487 l 2
 620 529 620 564 615 598 c 0
 610 620 607 638 594 651 c 0
 576 669 535 675 495 675 c 1
 495 695 l 1
 787 695 l 1
 787 675 l 1
 737 675 694 667 681 632 c 0
 673 609 672 582 669 552 c 0
 669 534 668 512 668 487 c 2
 668 280 l 2
 668 77 595 -9 391 -9 c 0
 203 -9 111 63 111 246 c 2
 111 510 l 2
 111 549 110 578 107 609 c 0
 104 641 97 662 71 670 c 0
 61 673 45 675 24 675 c 1
 24 695 l 1
 348 695 l 1
 348 675 l 1
 297 675 265 673 255 637 c 0
 247 620 247 597 245 569 c 0
 244 553 244 533 244 510 c 2
 244 257 l 2xd4
EndSplineSet
Substitution2: "'c2sc' Capitals to Small Capitals in Latin lookup 1 subtable" ugrave.sc
EndChar

StartChar: Uacute
Encoding: 218 218 154
Width: 794
GlyphClass: 2
Flags: MW
HStem: -9 31 675 20<24 34.5 322.5 348 495 515 762 787> 764 0<372 372 438 438> 789 92<544 585.5>
VStem: 111 133<246 257 257 510> 372 250<764 860> 620 48<263 280 280 487>
LayerCount: 2
Fore
SplineSet
572 881 m 0x34
 599 881 622 872 622 848 c 0
 622 834 618 823 606 815 c 0
 596 806 576 797 544 789 c 2
 438 764 l 1
 372 764 l 1
 486 852 l 2
 508 868 537 881 572 881 c 0x34
244 257 m 2xca
 244 126 295 23 422 22 c 0
 558 21 620 92 620 263 c 2
 620 487 l 2
 620 529 620 564 615 598 c 0
 610 620 607 638 594 651 c 0
 576 669 535 675 495 675 c 1
 495 695 l 1
 787 695 l 1
 787 675 l 1
 737 675 694 667 681 632 c 0
 673 609 672 582 669 552 c 0
 669 534 668 512 668 487 c 2
 668 280 l 2
 668 77 595 -9 391 -9 c 0
 203 -9 111 63 111 246 c 2
 111 510 l 2
 111 549 110 578 107 609 c 0
 104 641 97 662 71 670 c 0
 61 673 45 675 24 675 c 1
 24 695 l 1
 348 695 l 1
 348 675 l 1
 297 675 265 673 255 637 c 0
 247 620 247 597 245 569 c 0
 244 553 244 533 244 510 c 2
 244 257 l 2xca
EndSplineSet
Substitution2: "'c2sc' Capitals to Small Capitals in Latin lookup 1 subtable" uacute.sc
EndChar

StartChar: Ucircumflex
Encoding: 219 219 155
Width: 794
GlyphClass: 2
Flags: MW
HStem: -9 31 675 20<24 34.5 322.5 348 495 515 762 787> 808 73<406 406>
VStem: 111 133<246 257 257 510> 242 328<764 764> 620 48<263 280 280 487>
LayerCount: 2
Fore
SplineSet
458 881 m 1x28
 570 764 l 1
 510 764 l 1
 406 808 l 1
 302 764 l 1
 242 764 l 1
 354 881 l 1
 458 881 l 1x28
244 257 m 2xd4
 244 126 295 23 422 22 c 0
 558 21 620 92 620 263 c 2
 620 487 l 2
 620 529 620 564 615 598 c 0
 610 620 607 638 594 651 c 0
 576 669 535 675 495 675 c 1
 495 695 l 1
 787 695 l 1
 787 675 l 1
 737 675 694 667 681 632 c 0
 673 609 672 582 669 552 c 0
 669 534 668 512 668 487 c 2
 668 280 l 2
 668 77 595 -9 391 -9 c 0
 203 -9 111 63 111 246 c 2
 111 510 l 2
 111 549 110 578 107 609 c 0
 104 641 97 662 71 670 c 0
 61 673 45 675 24 675 c 1
 24 695 l 1
 348 695 l 1
 348 675 l 1
 297 675 265 673 255 637 c 0
 247 620 247 597 245 569 c 0
 244 553 244 533 244 510 c 2
 244 257 l 2xd4
EndSplineSet
Substitution2: "'c2sc' Capitals to Small Capitals in Latin lookup 1 subtable" ucircumflex.sc
EndChar

StartChar: Udieresis
Encoding: 220 220 156
Width: 794
GlyphClass: 2
Flags: MW
HStem: -9 31 675 20<24 34.5 322.5 348 495 515 762 787> 764 104<291 322 291 322.5 496 519.5>
VStem: 111 133<246 257 257 510> 252 110<801.5 832.5> 448 110<809.5 832.5 801.5 833> 620 48<263 280 280 487>
LayerCount: 2
Fore
SplineSet
306 764 m 0
 275 764 252 786 252 817 c 0
 252 848 276 868 306 868 c 0
 338 868 362 848 362 817 c 0
 362 786 339 764 306 764 c 0
558 817 m 0
 558 786 536 764 504 764 c 0
 488 764 474 769 464 778 c 0
 454 789 448 802 448 817 c 0
 448 849 473 868 504 868 c 0
 535 868 558 848 558 817 c 0
244 257 m 2
 244 126 295 23 422 22 c 0
 558 21 620 92 620 263 c 2
 620 487 l 2
 620 529 620 564 615 598 c 0
 610 620 607 638 594 651 c 0
 576 669 535 675 495 675 c 1
 495 695 l 1
 787 695 l 1
 787 675 l 1
 737 675 694 667 681 632 c 0
 673 609 672 582 669 552 c 0
 669 534 668 512 668 487 c 2
 668 280 l 2
 668 77 595 -9 391 -9 c 0
 203 -9 111 63 111 246 c 2
 111 510 l 2
 111 549 110 578 107 609 c 0
 104 641 97 662 71 670 c 0
 61 673 45 675 24 675 c 1
 24 695 l 1
 348 695 l 1
 348 675 l 1
 297 675 265 673 255 637 c 0
 247 620 247 597 245 569 c 0
 244 553 244 533 244 510 c 2
 244 257 l 2
EndSplineSet
Substitution2: "'c2sc' Capitals to Small Capitals in Latin lookup 1 subtable" udieresis.sc
EndChar

StartChar: Yacute
Encoding: 221 221 157
Width: 685
GlyphClass: 2
Flags: MW
HStem: 0 20<183 200.5 488 505 183 200.5> 675 20<-13 18.5 273 291 478 495.5 688 705> 764 0<313 313 379 379> 789 92<484 526>
VStem: 278 133<150 156 132 249 132 249> 313 250<764 860>
LayerCount: 2
Fore
SplineSet
512 881 m 0x34
 540 881 563 872 563 848 c 0
 563 834 558 823 547 815 c 0
 536 806 516 797 484 789 c 2
 379 764 l 1
 313 764 l 1
 427 852 l 2
 448 868 477 881 512 881 c 0x34
560 645 m 0xc8
 560 672 513 675 478 675 c 1
 478 695 l 1
 705 695 l 1
 705 675 l 1
 671 675 643 663 623 644 c 0
 604 626 559 546 526 490 c 2
 410 296 l 1
 411 156 l 2
 411 108 411 69 430 44 c 0
 442 23 471 20 505 20 c 1
 505 0 l 1
 183 0 l 1
 183 20 l 1
 218 20 244 24 259 43 c 0
 277 66 278 104 278 150 c 2
 278 249 l 1
 91 581 l 2
 66 622 50 675 -13 675 c 1
 -13 695 l 1
 291 695 l 1
 291 675 l 1
 255 675 212 673 212 646 c 0
 212 640 213 632 217 624 c 0
 221 616 237 588 245 574 c 2
 385 328 l 1
 391 328 l 1
 505 517 l 2
 525 550 539 576 547 592 c 0
 555 609 560 635 560 645 c 0xc8
EndSplineSet
Substitution2: "'c2sc' Capitals to Small Capitals in Latin lookup 1 subtable" yacute.sc
EndChar

StartChar: Thorn
Encoding: 222 222 158
Width: 662
GlyphClass: 2
Flags: MW
HStem: 0 20<372.5 387 29 29> 150 30<265 324 324 342 265 324> 515 27<276.5 282 282 360> 675 20<29 387>
VStem: 133 132<137 150 115.5 180 180 500 542 555 555 558> 487 151<298.5 385 271 396>
LayerCount: 2
Fore
SplineSet
265 542 m 1
 360 542 l 2
 446 542 517 525 565 489 c 0
 607 461 638 417 638 353 c 0
 638 189 511 150 342 150 c 2
 265 150 l 1
 265 133 l 2
 265 98 264 52 283 37 c 0
 290 31 304 27 320 24 c 0
 336 21 358 20 387 20 c 1
 387 0 l 1
 29 0 l 1
 29 20 l 1
 67 22 96 23 114 39 c 0
 131 54 133 102 133 137 c 2
 133 555 l 2
 133 610 127 660 83 670 c 0
 69 673 52 674 29 675 c 1
 29 695 l 1
 387 695 l 1
 387 678 l 1
 358 678 336 676 320 674 c 0
 289 666 272 658 268 627 c 0
 266 613 265 580 265 558 c 2
 265 542 l 1
487 353 m 0
 487 439 444 515 360 515 c 2
 282 515 l 2
 271 515 265 510 265 500 c 2
 265 180 l 1
 324 180 l 2
 433 180 487 244 487 353 c 0
EndSplineSet
Substitution2: "'c2sc' Capitals to Small Capitals in Latin lookup 1 subtable" thorn.sc
EndChar

StartChar: germandbls
Encoding: 223 223 159
Width: 572
GlyphClass: 2
Flags: MW
HStem: -8 28<353 375> 0 20<12 34.5 222.5 237 12 34.5> 377 28<276 311.5 276 326.5> 676 28<249.5 303.5 223.5 315.5>
VStem: 87 111<118 124 124 497 497 515> 259 80 373 121<511.5 566 497 588.5> 420 122<154 202 142.5 234.5>
LayerCount: 2
Fore
SplineSet
87 497 m 2x7e
 87 632 159 704 288 704 c 0
 319 704 348 699 373 692 c 0
 398 685 419 672 438 658 c 0
 470 636 494 593 494 539 c 0x7e
 494 455 443 410 372 397 c 1
 372 391 l 1
 458 391 504 333 529 267 c 0
 538 244 542 216 542 188 c 0
 542 97 495 33 434 6 c 0
 413 -5 388 -8 362 -8 c 0
 312 -8 259 15 259 65 c 0
 259 88 274 104 296 104 c 0
 329 104 331 88 339 67 c 0
 342 60 339 20 367 20 c 0
 420 20 420 129 420 179 c 0xbd
 420 290 377 377 276 377 c 1
 276 405 l 1
 347 405 373 473 373 550 c 0
 373 627 344 676 287 676 c 0
 212 676 198 602 198 515 c 2
 198 124 l 2
 198 102 199 85 200 72 c 0
 202 42 208 20 237 20 c 1
 237 0 l 1
 12 0 l 1
 12 20 l 1
 57 20 78 27 84 67 c 0
 86 80 87 96 87 118 c 2
 87 497 l 2x7e
EndSplineSet
Substitution2: "'c2sc' Capitals to Small Capitals in Latin lookup 1 subtable" germandbls.sc
Substitution2: "'smcp' Lowercase to Small Capitals in Latin lookup 0 subtable" germandbls.sc
EndChar

StartChar: agrave
Encoding: 224 224 160
Width: 462
GlyphClass: 2
Flags: MW
HStem: -8 42<338 417.5> -7 55<173 175> 407 28<190.5 235.5> 549 92<68 68>
VStem: 28 113<94 107.5> 37 101 277 108<133 241 241 241 272 294> 288 97<52.5 117>
LayerCount: 2
Fore
SplineSet
141 109 m 0x7a
 141 79 159 48 187 48 c 0
 238 48 277 82 277 133 c 2
 277 241 l 1
 231 220 198 202 176 184 c 0
 153 167 141 128 141 109 c 0x7a
139 -7 m 0
 74 -7 28 33 28 96 c 0x79
 28 119 38 141 59 162 c 0
 80 183 114 202 163 223 c 2
 277 272 l 1
 277 306 l 2
 277 362 261 407 210 407 c 0
 171 407 149 375 138 342 c 0
 131 319 115 299 85 299 c 0
 53 299 37 314 37 347 c 0
 37 373 51 397 80 412 c 0
 109 427 161 435 218 435 c 0
 331 435 385 402 385 294 c 2
 385 117 l 2x76
 385 71 393 34 412 34 c 0
 423 34 432 42 441 49 c 1
 453 36 l 1
 439 10 405 -8 364 -8 c 0
 312 -8 288 26 288 79 c 1xb1
 285 79 l 1
 259 28 211 -7 139 -7 c 0
6 600 m 0
 6 627 28 641 56 641 c 0
 89 641 111 623 132 602 c 2
 246 495 l 1
 190 495 l 1
 68 549 l 2
 50 557 34 565 22 573 c 0
 12 581 6 590 6 600 c 0
EndSplineSet
Substitution2: "'smcp' Lowercase to Small Capitals in Latin lookup 0 subtable" agrave.sc
EndChar

StartChar: aacute
Encoding: 225 225 161
Width: 462
GlyphClass: 2
Flags: MW
HStem: -8 42<338 417.5> -7 55<173 175> 407 28<190.5 235.5>
VStem: 28 113<94 107.5> 37 101 277 108<133 241 241 241 272 294> 288 97<52.5 117>
LayerCount: 2
Fore
SplineSet
141 109 m 0x74
 141 79 159 48 187 48 c 0
 238 48 277 82 277 133 c 2
 277 241 l 1
 231 220 198 202 176 184 c 0
 153 167 141 128 141 109 c 0x74
139 -7 m 0
 74 -7 28 33 28 96 c 0x72
 28 119 38 141 59 162 c 0
 80 183 114 202 163 223 c 2
 277 272 l 1
 277 306 l 2
 277 362 261 407 210 407 c 0
 171 407 149 375 138 342 c 0
 131 319 115 299 85 299 c 0
 53 299 37 314 37 347 c 0
 37 373 51 397 80 412 c 0
 109 427 161 435 218 435 c 0
 331 435 385 402 385 294 c 2
 385 117 l 2x6c
 385 71 393 34 412 34 c 0
 423 34 432 42 441 49 c 1
 453 36 l 1
 439 10 405 -8 364 -8 c 0
 312 -8 288 26 288 79 c 1xa2
 285 79 l 1
 259 28 211 -7 139 -7 c 0
383 641 m 0
 411 641 432 627 432 600 c 0
 432 590 427 581 415 573 c 0
 404 565 389 557 370 549 c 2
 245 495 l 1
 191 495 l 1
 306 602 l 2
 320 616 334 626 347 632 c 0
 359 638 371 641 383 641 c 0
EndSplineSet
Substitution2: "'smcp' Lowercase to Small Capitals in Latin lookup 0 subtable" aacute.sc
EndChar

StartChar: acircumflex
Encoding: 226 226 162
Width: 462
GlyphClass: 2
Flags: MW
HStem: -8 42<338 417.5> -7 55<173 175> 407 28<190.5 235.5>
VStem: 28 113<94 107.5> 37 101 277 108<133 241 241 241 272 294> 288 97<52.5 117>
LayerCount: 2
Fore
SplineSet
141 109 m 0x74
 141 79 159 48 187 48 c 0
 238 48 277 82 277 133 c 2
 277 241 l 1
 231 220 198 202 176 184 c 0
 153 167 141 128 141 109 c 0x74
139 -7 m 0
 74 -7 28 33 28 96 c 0x72
 28 119 38 141 59 162 c 0
 80 183 114 202 163 223 c 2
 277 272 l 1
 277 306 l 2
 277 362 261 407 210 407 c 0
 171 407 149 375 138 342 c 0
 131 319 115 299 85 299 c 0
 53 299 37 314 37 347 c 0
 37 373 51 397 80 412 c 0
 109 427 161 435 218 435 c 0
 331 435 385 402 385 294 c 2
 385 117 l 2x6c
 385 71 393 34 412 34 c 0
 423 34 432 42 441 49 c 1
 453 36 l 1
 439 10 405 -8 364 -8 c 0
 312 -8 288 26 288 79 c 1xa2
 285 79 l 1
 259 28 211 -7 139 -7 c 0
265 629 m 1
 373 495 l 1
 327 495 l 1
 218 556 l 1
 110 495 l 1
 63 495 l 1
 171 629 l 1
 265 629 l 1
EndSplineSet
Substitution2: "'smcp' Lowercase to Small Capitals in Latin lookup 0 subtable" acircumflex.sc
EndChar

StartChar: atilde
Encoding: 227 227 163
Width: 462
GlyphClass: 2
Flags: MW
HStem: -8 42<338 417.5> -7 55<173 175> 407 28<190.5 235.5> 506 86<295 338> 551 86<115.5 158>
VStem: 28 113<94 107.5> 37 101 277 108<133 241 241 241 272 294> 288 97<52.5 117>
LayerCount: 2
Fore
SplineSet
141 109 m 0x65
 141 79 159 48 187 48 c 0
 238 48 277 82 277 133 c 2
 277 241 l 1
 231 220 198 202 176 184 c 0
 153 167 141 128 141 109 c 0x65
139 -7 m 0
 74 -7 28 33 28 96 c 0x6480
 28 119 38 141 59 162 c 0
 80 183 114 202 163 223 c 2
 277 272 l 1
 277 306 l 2
 277 362 261 407 210 407 c 0
 171 407 149 375 138 342 c 0
 131 319 115 299 85 299 c 0
 53 299 37 314 37 347 c 0
 37 373 51 397 80 412 c 0
 109 427 161 435 218 435 c 0
 331 435 385 402 385 294 c 2
 385 117 l 2x63
 385 71 393 34 412 34 c 0
 423 34 432 42 441 49 c 1
 453 36 l 1
 439 10 405 -8 364 -8 c 0
 312 -8 288 26 288 79 c 1xa080
 285 79 l 1
 259 28 211 -7 139 -7 c 0
122 551 m 0x2a
 91 551 87 539 78 513 c 1
 37 513 l 1
 47 574 83 637 148 637 c 0x2a
 213 637 262 592 328 592 c 0
 358 592 365 606 374 630 c 1
 415 630 l 1
 405 565 372 506 304 506 c 0x32
 233 506 194 551 122 551 c 0x2a
EndSplineSet
Substitution2: "'smcp' Lowercase to Small Capitals in Latin lookup 0 subtable" atilde.sc
EndChar

StartChar: adieresis
Encoding: 228 228 164
Width: 462
GlyphClass: 2
Flags: MW
HStem: -8 42<338 417.5> -7 55<173 175> 407 28<190.5 235.5> 495 117<122 146 114 146.5 298 322.5>
VStem: 28 113<94 107.5> 37 101 72 116<545 569 537 569.5> 248 116<545 569 537 569.5> 277 108<133 241 241 241 272 294> 288 97<52.5 117>
LayerCount: 2
Fore
SplineSet
141 109 m 0x7880
 141 79 159 48 187 48 c 0
 238 48 277 82 277 133 c 2
 277 241 l 1
 231 220 198 202 176 184 c 0
 153 167 141 128 141 109 c 0x7880
139 -7 m 0
 74 -7 28 33 28 96 c 0x7840
 28 119 38 141 59 162 c 0
 80 183 114 202 163 223 c 2
 277 272 l 1
 277 306 l 2
 277 362 261 407 210 407 c 0
 171 407 149 375 138 342 c 0
 131 319 115 299 85 299 c 0
 53 299 37 314 37 347 c 0
 37 373 51 397 80 412 c 0
 109 427 161 435 218 435 c 0
 331 435 385 402 385 294 c 2
 385 117 l 2x7480
 385 71 393 34 412 34 c 0
 423 34 432 42 441 49 c 1
 453 36 l 1
 439 10 405 -8 364 -8 c 0
 312 -8 288 26 288 79 c 1xb040
 285 79 l 1
 259 28 211 -7 139 -7 c 0
188 553 m 0x32
 188 521 163 495 130 495 c 0
 114 495 100 500 88 511 c 0
 76 523 72 537 72 553 c 0
 72 586 98 612 130 612 c 0
 162 612 188 585 188 553 c 0x32
364 553 m 0x31
 364 521 340 495 306 495 c 0
 290 495 276 500 264 511 c 0
 254 523 248 537 248 553 c 0
 248 586 275 612 306 612 c 0
 339 612 364 585 364 553 c 0x31
EndSplineSet
Substitution2: "'smcp' Lowercase to Small Capitals in Latin lookup 0 subtable" adieresis.sc
EndChar

StartChar: aring
Encoding: 229 229 165
Width: 462
GlyphClass: 2
Flags: MW
HStem: -8 42<338 417.5> -7 55<173 175> 407 28<190.5 235.5> 472 41<223 244.5> 648 41<220 246>
VStem: 28 113<94 107.5> 37 101 114 42<573.5 585.5 564.5 606> 277 108<133 241 241 241 272 294> 288 97<52.5 117> 298 43
LayerCount: 2
Fore
SplineSet
141 109 m 0x7c80
 141 79 159 48 187 48 c 0
 238 48 277 82 277 133 c 2
 277 241 l 1
 231 220 198 202 176 184 c 0
 153 167 141 128 141 109 c 0x7c80
139 -7 m 0
 74 -7 28 33 28 96 c 0x7c40
 28 119 38 141 59 162 c 0
 80 183 114 202 163 223 c 2
 277 272 l 1
 277 306 l 2
 277 362 261 407 210 407 c 0
 171 407 149 375 138 342 c 0
 131 319 115 299 85 299 c 0
 53 299 37 314 37 347 c 0
 37 373 51 397 80 412 c 0
 109 427 161 435 218 435 c 0
 331 435 385 402 385 294 c 2
 385 117 l 2x7a80
 385 71 393 34 412 34 c 0
 423 34 432 42 441 49 c 1
 453 36 l 1
 439 10 405 -8 364 -8 c 0
 312 -8 288 26 288 79 c 1xb840
 285 79 l 1
 259 28 211 -7 139 -7 c 0
114 581 m 0x3920
 114 631 146 667 184 680 c 0
 198 686 212 689 228 689 c 0
 279 689 316 659 332 622 c 0
 338 609 340 596 340 581 c 0
 340 548 325 521 308 505 c 0
 290 486 261 472 228 472 c 0
 176 472 139 502 122 539 c 0
 116 552 114 566 114 581 c 0x3920
298 581 m 0
 298 618 264 648 228 648 c 0
 195 648 172 629 162 606 c 0
 156 599 156 590 156 581 c 0
 156 548 177 529 200 518 c 0
 208 514 218 513 228 513 c 0
 265 513 298 544 298 581 c 0
EndSplineSet
Substitution2: "'smcp' Lowercase to Small Capitals in Latin lookup 0 subtable" aring.sc
EndChar

StartChar: ae
Encoding: 230 230 166
Width: 715
GlyphClass: 2
Flags: MW
HStem: -8 28<480.5 543.5> -7 55<173 175> 252 30<407 532 532 548 407 660 402 532> 407 28<190.5 235.5 489 535.5>
VStem: 28 113<94 107.5> 37 101 277 120<133 221 168 173.5 168 306 168 334> 277 130<133 282 167 282 282 282 282 306 282 334> 583 104<291 325.5>
LayerCount: 2
Fore
SplineSet
139 -7 m 0x7680
 74 -7 28 33 28 96 c 0
 28 119 38 141 59 162 c 0
 80 183 114 202 163 223 c 2
 277 272 l 1x7a80
 277 306 l 2x7180
 277 362 261 407 210 407 c 0
 171 407 149 375 138 342 c 0
 131 319 115 299 85 299 c 0
 53 299 37 314 37 347 c 0
 37 373 51 397 80 412 c 0
 109 427 161 435 218 435 c 0
 287 435 335 423 361 388 c 1
 377 400 395 410 414 418 c 0
 442 430 472 435 506 435 c 0
 618 435 687 382 687 271 c 0
 687 251 681 252 660 252 c 2
 402 252 l 1
 400 248 397 227 397 215 c 0
 397 121 437 20 524 20 c 0
 591 20 632 58 666 89 c 1
 679 75 l 1
 630 22 590 -8 497 -8 c 0xb680
 440 -8 393 8 357 34 c 0
 352 37 347 41 343 45 c 0
 324 61 309 81 298 103 c 1
 296 98 292 90 285 79 c 0
 268 52 211 -7 139 -7 c 0x7680
141 109 m 0
 141 79 159 48 187 48 c 0
 238 48 277 82 277 133 c 2
 277 167 l 2
 277 180 276 194 276 208 c 0
 276 219 277 230 276 241 c 1
 230 220 198 202 176 184 c 0
 153 167 141 128 141 109 c 0
583 303 m 0
 583 348 568 407 503 407 c 0
 437 407 416 333 407 282 c 1x3180
 532 282 l 2
 564 282 583 279 583 303 c 0
EndSplineSet
Substitution2: "'smcp' Lowercase to Small Capitals in Latin lookup 0 subtable" ae.sc
EndChar

StartChar: ccedilla
Encoding: 231 231 167
Width: 454
GlyphClass: 2
Flags: MW
HStem: -239 45<241.5 267.5 241.5 279.5> -99 37<221.5 293> -4 28<232.5 295.5> 407 28<245.5 274>
VStem: 31 124<177 265 175.5 266> 146 69 298 74<-166 -137>
LayerCount: 2
Fore
SplineSet
252 -194 m 0xc6
 283 -194 298 -179 298 -153 c 0
 298 -121 272 -100 224 -99 c 0
 219 -99 212 -99 206 -100 c 0
 202 -100 196 -100 192 -101 c 2
 188 -96 l 1
 224 4 l 1
 278 4 l 1
 256 -62 l 1
 330 -62 372 -99 372 -150 c 0
 372 -211 311 -239 248 -239 c 0
 212 -239 146 -227 146 -174 c 0
 146 -158 166 -138 182 -138 c 0
 202 -138 216 -154 216 -169 c 0
 215 -184 231 -194 252 -194 c 0xc6
276 24 m 0x38
 339 24 379 57 413 82 c 1
 426 67 l 1
 386 30 340 -4 251 -4 c 0
 183 -4 128 21 92 55 c 0
 56 90 31 142 31 212 c 0
 31 320 90 389 170 419 c 0
 199 430 228 435 263 435 c 0
 333 435 389 416 419 377 c 0
 428 365 432 353 432 340 c 0
 432 310 415 289 386 289 c 0
 355 289 339 308 325 330 c 0
 307 357 295 407 253 407 c 0
 179 407 155 307 155 223 c 0
 155 128 189 24 276 24 c 0x38
EndSplineSet
Substitution2: "'smcp' Lowercase to Small Capitals in Latin lookup 0 subtable" ccedilla.sc
EndChar

StartChar: egrave
Encoding: 232 232 168
Width: 471
GlyphClass: 2
Flags: MW
HStem: -8 28<236.5 299.5> 252 30<163 288 288 304 163 416 158 288> 407 28<245 291.5> 549 92<112 112>
VStem: 30 123<192 221 168 262.5> 339 104<291 325.5>
LayerCount: 2
Fore
SplineSet
280 20 m 0
 347 20 388 58 422 89 c 1
 435 75 l 1
 386 22 346 -8 253 -8 c 0
 149 -8 77 45 46 120 c 0
 35 147 30 176 30 208 c 0
 30 317 91 385 170 418 c 0
 198 430 228 435 262 435 c 0
 374 435 443 382 443 271 c 0
 443 251 437 252 416 252 c 2
 158 252 l 1
 156 248 153 227 153 215 c 0
 153 121 193 20 280 20 c 0
339 303 m 0
 339 348 324 407 259 407 c 0
 193 407 172 333 163 282 c 1
 288 282 l 2
 320 282 339 279 339 303 c 0
50 600 m 0
 50 627 72 641 100 641 c 0
 133 641 155 623 176 602 c 2
 290 495 l 1
 234 495 l 1
 112 549 l 2
 94 557 78 565 66 573 c 0
 56 581 50 590 50 600 c 0
EndSplineSet
Substitution2: "'smcp' Lowercase to Small Capitals in Latin lookup 0 subtable" egrave.sc
EndChar

StartChar: eacute
Encoding: 233 233 169
Width: 471
GlyphClass: 2
Flags: MW
HStem: -8 28<236.5 299.5> 252 30<163 288 288 304 163 416 158 288> 407 28<245 291.5>
VStem: 30 123<192 221 168 262.5> 339 104<291 325.5>
LayerCount: 2
Fore
SplineSet
280 20 m 0
 347 20 388 58 422 89 c 1
 435 75 l 1
 386 22 346 -8 253 -8 c 0
 149 -8 77 45 46 120 c 0
 35 147 30 176 30 208 c 0
 30 317 91 385 170 418 c 0
 198 430 228 435 262 435 c 0
 374 435 443 382 443 271 c 0
 443 251 437 252 416 252 c 2
 158 252 l 1
 156 248 153 227 153 215 c 0
 153 121 193 20 280 20 c 0
339 303 m 0
 339 348 324 407 259 407 c 0
 193 407 172 333 163 282 c 1
 288 282 l 2
 320 282 339 279 339 303 c 0
427 641 m 0
 455 641 476 627 476 600 c 0
 476 590 471 581 459 573 c 0
 448 565 433 557 414 549 c 2
 289 495 l 1
 235 495 l 1
 350 602 l 2
 364 616 378 626 391 632 c 0
 403 638 415 641 427 641 c 0
EndSplineSet
Substitution2: "'smcp' Lowercase to Small Capitals in Latin lookup 0 subtable" eacute.sc
EndChar

StartChar: ecircumflex
Encoding: 234 234 170
Width: 471
GlyphClass: 2
Flags: MW
HStem: -8 28<236.5 299.5> 252 30<163 288 288 304 163 416 158 288> 407 28<245 291.5>
VStem: 30 123<192 221 168 262.5> 339 104<291 325.5>
LayerCount: 2
Fore
SplineSet
280 20 m 0
 347 20 388 58 422 89 c 1
 435 75 l 1
 386 22 346 -8 253 -8 c 0
 149 -8 77 45 46 120 c 0
 35 147 30 176 30 208 c 0
 30 317 91 385 170 418 c 0
 198 430 228 435 262 435 c 0
 374 435 443 382 443 271 c 0
 443 251 437 252 416 252 c 2
 158 252 l 1
 156 248 153 227 153 215 c 0
 153 121 193 20 280 20 c 0
339 303 m 0
 339 348 324 407 259 407 c 0
 193 407 172 333 163 282 c 1
 288 282 l 2
 320 282 339 279 339 303 c 0
309 629 m 1
 417 495 l 1
 371 495 l 1
 262 556 l 1
 154 495 l 1
 107 495 l 1
 215 629 l 1
 309 629 l 1
EndSplineSet
Substitution2: "'smcp' Lowercase to Small Capitals in Latin lookup 0 subtable" ecircumflex.sc
EndChar

StartChar: edieresis
Encoding: 235 235 171
Width: 471
GlyphClass: 2
Flags: MW
HStem: -8 28<236.5 299.5> 252 30<163 288 288 304 163 416 158 288> 407 28<245 291.5> 495 117<166 190 158 190.5 342 366.5>
VStem: 30 123<192 221 168 262.5> 116 116<545 569 537 569.5> 292 116<545 569 537 569.5> 339 104<291 325.5>
LayerCount: 2
Fore
SplineSet
280 20 m 0xf9
 347 20 388 58 422 89 c 1
 435 75 l 1
 386 22 346 -8 253 -8 c 0
 149 -8 77 45 46 120 c 0
 35 147 30 176 30 208 c 0
 30 317 91 385 170 418 c 0
 198 430 228 435 262 435 c 0
 374 435 443 382 443 271 c 0
 443 251 437 252 416 252 c 2
 158 252 l 1
 156 248 153 227 153 215 c 0
 153 121 193 20 280 20 c 0xf9
339 303 m 0
 339 348 324 407 259 407 c 0
 193 407 172 333 163 282 c 1
 288 282 l 2
 320 282 339 279 339 303 c 0
232 553 m 0xf4
 232 521 207 495 174 495 c 0
 158 495 144 500 132 511 c 0
 120 523 116 537 116 553 c 0
 116 586 142 612 174 612 c 0
 206 612 232 585 232 553 c 0xf4
408 553 m 0xf2
 408 521 384 495 350 495 c 0
 334 495 320 500 308 511 c 0
 298 523 292 537 292 553 c 0
 292 586 319 612 350 612 c 0
 383 612 408 585 408 553 c 0xf2
EndSplineSet
Substitution2: "'smcp' Lowercase to Small Capitals in Latin lookup 0 subtable" edieresis.sc
EndChar

StartChar: igrave
Encoding: 236 236 172
Width: 290
GlyphClass: 2
Flags: MW
HStem: 0 20<23 277 23 23> 384 20<21 42> 415 20G<207 207> 549 92<2 2>
VStem: 96 111<115 120 120 231 231 246.5>
LayerCount: 2
Fore
SplineSet
207 120 m 2
 207 76 207 32 240 25 c 0
 249 21 262 21 277 20 c 1
 277 0 l 1
 23 0 l 1
 23 20 l 1
 66 23 86 30 92 68 c 0
 95 80 96 96 96 115 c 2
 96 231 l 2
 96 262 95 287 94 308 c 0
 93 329 91 342 89 349 c 0
 82 379 63 384 21 384 c 1
 21 404 l 1
 207 435 l 1
 207 120 l 2
-62 600 m 0
 -62 627 -39 641 -12 641 c 0
 22 641 44 623 66 602 c 2
 180 495 l 1
 122 495 l 1
 2 549 l 2
 -18 557 -32 565 -44 573 c 0
 -56 581 -62 590 -62 600 c 0
EndSplineSet
Substitution2: "'smcp' Lowercase to Small Capitals in Latin lookup 0 subtable" igrave.sc
EndChar

StartChar: iacute
Encoding: 237 237 173
Width: 290
GlyphClass: 2
Flags: MW
HStem: 0 20<23 277 23 23> 384 20<21 42> 415 20G<207 207>
VStem: 96 111<115 120 120 231 231 246.5>
LayerCount: 2
Fore
SplineSet
207 120 m 2
 207 76 207 32 240 25 c 0
 249 21 262 21 277 20 c 1
 277 0 l 1
 23 0 l 1
 23 20 l 1
 66 23 86 30 92 68 c 0
 95 80 96 96 96 115 c 2
 96 231 l 2
 96 262 95 287 94 308 c 0
 93 329 91 342 89 349 c 0
 82 379 63 384 21 384 c 1
 21 404 l 1
 207 435 l 1
 207 120 l 2
316 641 m 0
 344 641 365 627 365 600 c 0
 365 590 360 581 348 573 c 0
 337 565 322 557 303 549 c 2
 178 495 l 1
 124 495 l 1
 239 602 l 2
 253 616 267 626 280 632 c 0
 292 638 304 641 316 641 c 0
EndSplineSet
Substitution2: "'smcp' Lowercase to Small Capitals in Latin lookup 0 subtable" iacute.sc
EndChar

StartChar: icircumflex
Encoding: 238 238 174
Width: 290
GlyphClass: 2
Flags: MW
HStem: 0 20<23 277 23 23> 384 20<21 42> 415 20G<207 207>
VStem: 96 111<115 120 120 231 231 246.5>
LayerCount: 2
Fore
SplineSet
207 120 m 2
 207 76 207 32 240 25 c 0
 249 21 262 21 277 20 c 1
 277 0 l 1
 23 0 l 1
 23 20 l 1
 66 23 86 30 92 68 c 0
 95 80 96 96 96 115 c 2
 96 231 l 2
 96 262 95 287 94 308 c 0
 93 329 91 342 89 349 c 0
 82 379 63 384 21 384 c 1
 21 404 l 1
 207 435 l 1
 207 120 l 2
198 629 m 1
 306 495 l 1
 260 495 l 1
 151 556 l 1
 43 495 l 1
 -4 495 l 1
 104 629 l 1
 198 629 l 1
EndSplineSet
Substitution2: "'smcp' Lowercase to Small Capitals in Latin lookup 0 subtable" icircumflex.sc
EndChar

StartChar: idieresis
Encoding: 239 239 175
Width: 290
GlyphClass: 2
Flags: MW
HStem: 0 20<23 277 23 23> 384 20<21 42> 415 20G<207 207> 495 117<54 78.5 46.5 79 232 256>
VStem: 4 116<545 569 537 569.5> 96 111<115 120 120 231 231 246.5> 182 116<545 569 537 569.5>
LayerCount: 2
Fore
SplineSet
207 120 m 2xf4
 207 76 207 32 240 25 c 0
 249 21 262 21 277 20 c 1
 277 0 l 1
 23 0 l 1
 23 20 l 1
 66 23 86 30 92 68 c 0
 95 80 96 96 96 115 c 2
 96 231 l 2
 96 262 95 287 94 308 c 0
 93 329 91 342 89 349 c 0
 82 379 63 384 21 384 c 1
 21 404 l 1
 207 435 l 1
 207 120 l 2xf4
120 553 m 0xf8
 120 521 96 495 62 495 c 0
 46 495 32 500 20 511 c 0
 10 523 4 537 4 553 c 0
 4 586 31 612 62 612 c 0
 95 612 120 585 120 553 c 0xf8
298 553 m 0xf2
 298 521 273 495 240 495 c 0
 224 495 210 500 198 511 c 0
 186 523 182 537 182 553 c 0
 182 586 208 612 240 612 c 0
 272 612 298 585 298 553 c 0xf2
EndSplineSet
Substitution2: "'smcp' Lowercase to Small Capitals in Latin lookup 0 subtable" idieresis.sc
EndChar

StartChar: eth
Encoding: 240 240 176
Width: 531
GlyphClass: 2
Flags: MW
HStem: -8 45<223 275.5> 366 47<245.5 276.5> 593 35<132 148>
VStem: 31 131<181.5 223 155.5 246.5> 367 132<209 222.5>
LayerCount: 2
Fore
SplineSet
259 37 m 0
 335 37 367 113 367 196 c 0
 367 249 357 291 337 320 c 0
 317 349 293 366 260 366 c 0
 231 366 206 350 188 321 c 0
 169 292 162 250 162 196 c 0
 162 115 187 37 259 37 c 0
245 544 m 1
 214 570 182 576 132 593 c 1
 148 628 l 1
 199 615 254 597 295 574 c 1
 404 634 l 1
 428 600 l 1
 335 548 l 1
 429 490 499 389 499 248 c 0
 499 170 469 104 430 63 c 0
 409 41 382 24 353 12 c 0
 324 0 293 -8 258 -8 c 0
 154 -8 83 44 48 114 c 0
 36 140 31 167 31 196 c 0
 31 297 91 363 162 396 c 0
 190 408 220 413 251 413 c 0
 318 413 358 381 380 332 c 1
 383 334 l 1
 360 412 331 473 278 517 c 1
 165 456 l 1
 145 491 l 1
 245 544 l 1
EndSplineSet
Substitution2: "'smcp' Lowercase to Small Capitals in Latin lookup 0 subtable" eth.sc
EndChar

StartChar: ntilde
Encoding: 241 241 177
Width: 585
GlyphClass: 2
Flags: MW
HStem: 0 20<23 277 23 23> 384 20<21 27> 407 28<298.5 347.5> 513 86<389 432> 558 86<209.5 252>
VStem: 96 111<114 119 119 232 232 247.5> 395 112<114 119 119 245>
LayerCount: 2
Fore
SplineSet
189 364 m 1xe6
 221 403 265 435 332 435 c 0
 405 435 438 415 472 374 c 0
 495 344 507 304 507 245 c 2
 507 119 l 2
 507 84 506 58 517 38 c 0
 527 23 550 22 575 20 c 1
 575 0 l 1
 323 0 l 1
 323 20 l 1
 350 22 373 23 383 38 c 0
 395 56 395 79 395 114 c 2
 395 260 l 2
 395 344 389 407 306 407 c 0
 252 407 224 361 212 314 c 0
 208 300 207 284 207 267 c 2
 207 119 l 2
 207 85 207 58 218 38 c 0
 228 23 251 22 277 20 c 1
 277 0 l 1
 23 0 l 1
 23 20 l 1
 66 23 87 28 93 66 c 0
 95 78 96 93 96 114 c 2
 96 232 l 2
 96 263 95 288 94 308 c 0
 93 329 91 342 89 349 c 0
 85 363 83 370 71 375 c 0
 66 379 59 381 51 381 c 0
 43 383 33 384 21 384 c 1
 21 404 l 1
 176 435 l 1
 187 364 l 1
 189 364 l 1xe6
216 558 m 0xee
 185 558 181 546 172 520 c 1
 131 520 l 1
 141 581 177 644 242 644 c 0xee
 307 644 356 599 422 599 c 0
 452 599 459 613 468 637 c 1
 509 637 l 1
 499 572 466 513 398 513 c 0xf6
 327 513 288 558 216 558 c 0xee
EndSplineSet
Substitution2: "'smcp' Lowercase to Small Capitals in Latin lookup 0 subtable" ntilde.sc
EndChar

StartChar: ograve
Encoding: 242 242 178
Width: 531
GlyphClass: 2
Flags: MW
HStem: -8 28<230 298.5> 407 28<230 299.5 230 305> 549 92<114 114>
VStem: 29 127<181 251.5> 376 126<180 252.5 180 258.5>
LayerCount: 2
Fore
SplineSet
264 435 m 0
 335 435 393 408 432 373 c 0
 471 336 502 288 502 217 c 0
 502 143 471 94 432 55 c 0
 394 19 333 -8 264 -8 c 0
 196 -8 135 18 99 54 c 0
 61 92 29 145 29 217 c 0
 29 286 61 338 99 374 c 0
 136 409 196 435 264 435 c 0
264 407 m 0
 184 407 156 299 156 216 c 0
 156 132 184 20 264 20 c 0
 348 20 376 130 376 216 c 0
 376 301 346 407 264 407 c 0
52 600 m 0
 52 627 74 641 102 641 c 0
 135 641 157 623 178 602 c 2
 292 495 l 1
 236 495 l 1
 114 549 l 2
 96 557 80 565 68 573 c 0
 58 581 52 590 52 600 c 0
EndSplineSet
Substitution2: "'smcp' Lowercase to Small Capitals in Latin lookup 0 subtable" ograve.sc
EndChar

StartChar: oacute
Encoding: 243 243 179
Width: 531
GlyphClass: 2
Flags: MW
HStem: -8 28<230 298.5> 407 28<230 299.5 230 305>
VStem: 29 127<181 251.5> 376 126<180 252.5 180 258.5>
LayerCount: 2
Fore
SplineSet
264 435 m 0
 335 435 393 408 432 373 c 0
 471 336 502 288 502 217 c 0
 502 143 471 94 432 55 c 0
 394 19 333 -8 264 -8 c 0
 196 -8 135 18 99 54 c 0
 61 92 29 145 29 217 c 0
 29 286 61 338 99 374 c 0
 136 409 196 435 264 435 c 0
264 407 m 0
 184 407 156 299 156 216 c 0
 156 132 184 20 264 20 c 0
 348 20 376 130 376 216 c 0
 376 301 346 407 264 407 c 0
429 641 m 0
 457 641 478 627 478 600 c 0
 478 590 473 581 461 573 c 0
 450 565 435 557 416 549 c 2
 291 495 l 1
 237 495 l 1
 352 602 l 2
 366 616 380 626 393 632 c 0
 405 638 417 641 429 641 c 0
EndSplineSet
Substitution2: "'smcp' Lowercase to Small Capitals in Latin lookup 0 subtable" oacute.sc
EndChar

StartChar: ocircumflex
Encoding: 244 244 180
Width: 531
GlyphClass: 2
Flags: MW
HStem: -8 28<230 298.5> 407 28<230 299.5 230 305>
VStem: 29 127<181 251.5> 376 126<180 252.5 180 258.5>
LayerCount: 2
Fore
SplineSet
264 435 m 0
 335 435 393 408 432 373 c 0
 471 336 502 288 502 217 c 0
 502 143 471 94 432 55 c 0
 394 19 333 -8 264 -8 c 0
 196 -8 135 18 99 54 c 0
 61 92 29 145 29 217 c 0
 29 286 61 338 99 374 c 0
 136 409 196 435 264 435 c 0
264 407 m 0
 184 407 156 299 156 216 c 0
 156 132 184 20 264 20 c 0
 348 20 376 130 376 216 c 0
 376 301 346 407 264 407 c 0
311 629 m 1
 419 495 l 1
 373 495 l 1
 264 556 l 1
 156 495 l 1
 109 495 l 1
 217 629 l 1
 311 629 l 1
EndSplineSet
Substitution2: "'smcp' Lowercase to Small Capitals in Latin lookup 0 subtable" ocircumflex.sc
EndChar

StartChar: otilde
Encoding: 245 245 181
Width: 531
GlyphClass: 2
Flags: MW
HStem: -8 28<230 298.5> 407 28<230 299.5 230 305> 510 86<345 388> 555 86<165.5 208>
VStem: 29 127<181 251.5> 376 126<180 252.5 180 258.5>
LayerCount: 2
Fore
SplineSet
264 435 m 0xcc
 335 435 393 408 432 373 c 0
 471 336 502 288 502 217 c 0
 502 143 471 94 432 55 c 0
 394 19 333 -8 264 -8 c 0
 196 -8 135 18 99 54 c 0
 61 92 29 145 29 217 c 0
 29 286 61 338 99 374 c 0
 136 409 196 435 264 435 c 0xcc
264 407 m 0
 184 407 156 299 156 216 c 0
 156 132 184 20 264 20 c 0
 348 20 376 130 376 216 c 0
 376 301 346 407 264 407 c 0
172 555 m 0xdc
 141 555 137 543 128 517 c 1
 87 517 l 1
 97 578 133 641 198 641 c 0xdc
 263 641 312 596 378 596 c 0
 408 596 415 610 424 634 c 1
 465 634 l 1
 455 569 422 510 354 510 c 0xec
 283 510 244 555 172 555 c 0xdc
EndSplineSet
Substitution2: "'smcp' Lowercase to Small Capitals in Latin lookup 0 subtable" otilde.sc
EndChar

StartChar: odieresis
Encoding: 246 246 182
Width: 531
GlyphClass: 2
Flags: MW
HStem: -8 28<230 298.5> 407 28<230 299.5 230 305> 495 117<168 192 160 192.5 344 368.5>
VStem: 29 127<181 251.5> 118 116<545 569 537 569.5> 294 116<545 569 537 569.5> 376 126<180 252.5 180 258.5>
LayerCount: 2
Fore
SplineSet
264 435 m 0xf2
 335 435 393 408 432 373 c 0
 471 336 502 288 502 217 c 0
 502 143 471 94 432 55 c 0
 394 19 333 -8 264 -8 c 0
 196 -8 135 18 99 54 c 0
 61 92 29 145 29 217 c 0
 29 286 61 338 99 374 c 0
 136 409 196 435 264 435 c 0xf2
264 407 m 0
 184 407 156 299 156 216 c 0
 156 132 184 20 264 20 c 0
 348 20 376 130 376 216 c 0
 376 301 346 407 264 407 c 0
234 553 m 0xe8
 234 521 209 495 176 495 c 0
 160 495 146 500 134 511 c 0
 122 523 118 537 118 553 c 0
 118 586 144 612 176 612 c 0
 208 612 234 585 234 553 c 0xe8
410 553 m 0xe4
 410 521 386 495 352 495 c 0
 336 495 322 500 310 511 c 0
 300 523 294 537 294 553 c 0
 294 586 321 612 352 612 c 0
 385 612 410 585 410 553 c 0xe4
EndSplineSet
Substitution2: "'smcp' Lowercase to Small Capitals in Latin lookup 0 subtable" odieresis.sc
EndChar

StartChar: divide
Encoding: 247 247 183
Width: 528
GlyphClass: 2
Flags: MW
HStem: 70 136<246.5 286> 276 58<42 487 42 487> 403 137<247 285.5>
VStem: 199 137<117 155 451 489>
LayerCount: 2
Fore
SplineSet
487 276 m 1
 42 276 l 1
 42 334 l 1
 487 334 l 1
 487 276 l 1
266 403 m 0
 228 403 199 432 199 470 c 0
 199 508 227 540 266 540 c 0
 306 540 336 509 336 470 c 0
 336 432 305 403 266 403 c 0
266 70 m 0
 227 70 199 98 199 136 c 0
 199 174 227 206 266 206 c 0
 306 206 336 175 336 136 c 0
 336 98 306 70 266 70 c 0
EndSplineSet
EndChar

StartChar: oslash
Encoding: 248 248 184
Width: 531
GlyphClass: 2
Flags: MW
HStem: -8 28<230 298.5> 407 28<230 299.5 230 305> 456 20G<464 504 504 504>
VStem: 29 127<181 251.5> 31 40<-50 -50> 376 126<180 252.5 180 258.5> 464 40<476 476>
LayerCount: 2
Fore
SplineSet
464 476 m 1xea
 504 476 l 1
 71 -50 l 1
 31 -50 l 1
 464 476 l 1xea
264 435 m 0xd4
 335 435 393 408 432 373 c 0
 471 336 502 288 502 217 c 0
 502 143 471 94 432 55 c 0
 394 19 333 -8 264 -8 c 0
 196 -8 135 18 99 54 c 0
 61 92 29 145 29 217 c 0
 29 286 61 338 99 374 c 0
 136 409 196 435 264 435 c 0xd4
264 407 m 0
 184 407 156 299 156 216 c 0
 156 132 184 20 264 20 c 0
 348 20 376 130 376 216 c 0
 376 301 346 407 264 407 c 0
EndSplineSet
Substitution2: "'smcp' Lowercase to Small Capitals in Latin lookup 0 subtable" oslash.sc
EndChar

StartChar: ugrave
Encoding: 249 249 185
Width: 570
GlyphClass: 2
Flags: MW
HStem: -8 29<239 286.5> 1 20<561 561> 407 20<11 191> 549 92<119 119>
VStem: 79 112<187 307 307 330.5> 375 111<187 307 307 329>
LayerCount: 2
Fore
SplineSet
276 21 m 0xbc
 352 21 375 101 375 187 c 2
 375 307 l 2
 375 351 377 389 344 400 c 0
 334 403 320 405 304 407 c 1
 304 427 l 1
 486 427 l 1
 486 183 l 2
 486 150 486 124 488 106 c 0
 489 86 489 73 492 64 c 0
 497 45 504 37 528 28 c 0
 536 25 548 21 561 21 c 1
 561 1 l 1x7c
 401 -9 l 1
 387 62 l 1
 383 62 l 1
 359 21 328 -8 245 -8 c 0
 134 -8 79 68 79 187 c 2
 79 307 l 2
 79 354 79 386 48 400 c 0
 39 404 27 405 11 407 c 1
 11 427 l 1
 191 427 l 1
 191 175 l 2
 191 89 202 21 276 21 c 0xbc
56 600 m 0
 56 627 78 641 106 641 c 0
 140 641 162 623 183 602 c 2
 297 495 l 1
 240 495 l 1
 119 549 l 2
 100 557 85 565 73 573 c 0
 62 581 56 590 56 600 c 0
EndSplineSet
Substitution2: "'smcp' Lowercase to Small Capitals in Latin lookup 0 subtable" ugrave.sc
EndChar

StartChar: uacute
Encoding: 250 250 186
Width: 570
GlyphClass: 2
Flags: MW
HStem: -8 29<239 286.5> 1 20<561 561> 407 20<11 191>
VStem: 79 112<187 307 307 330.5> 375 111<187 307 307 329>
LayerCount: 2
Fore
SplineSet
276 21 m 0xb8
 352 21 375 101 375 187 c 2
 375 307 l 2
 375 351 377 389 344 400 c 0
 334 403 320 405 304 407 c 1
 304 427 l 1
 486 427 l 1
 486 183 l 2
 486 150 486 124 488 106 c 0
 489 86 489 73 492 64 c 0
 497 45 504 37 528 28 c 0
 536 25 548 21 561 21 c 1
 561 1 l 1x78
 401 -9 l 1
 387 62 l 1
 383 62 l 1
 359 21 328 -8 245 -8 c 0
 134 -8 79 68 79 187 c 2
 79 307 l 2
 79 354 79 386 48 400 c 0
 39 404 27 405 11 407 c 1
 11 427 l 1
 191 427 l 1
 191 175 l 2
 191 89 202 21 276 21 c 0xb8
414 641 m 0
 442 641 462 627 462 600 c 0
 462 590 458 581 446 573 c 0
 434 565 420 557 400 549 c 2
 276 495 l 1
 222 495 l 1
 336 602 l 2
 350 616 364 626 378 632 c 0
 390 638 402 641 414 641 c 0
EndSplineSet
Substitution2: "'smcp' Lowercase to Small Capitals in Latin lookup 0 subtable" uacute.sc
EndChar

StartChar: ucircumflex
Encoding: 251 251 187
Width: 570
GlyphClass: 2
Flags: MW
HStem: -8 29<239 286.5> 1 20<561 561> 407 20<11 191>
VStem: 79 112<187 307 307 330.5> 375 111<187 307 307 329>
LayerCount: 2
Fore
SplineSet
276 21 m 0xb8
 352 21 375 101 375 187 c 2
 375 307 l 2
 375 351 377 389 344 400 c 0
 334 403 320 405 304 407 c 1
 304 427 l 1
 486 427 l 1
 486 183 l 2
 486 150 486 124 488 106 c 0
 489 86 489 73 492 64 c 0
 497 45 504 37 528 28 c 0
 536 25 548 21 561 21 c 1
 561 1 l 1x78
 401 -9 l 1
 387 62 l 1
 383 62 l 1
 359 21 328 -8 245 -8 c 0
 134 -8 79 68 79 187 c 2
 79 307 l 2
 79 354 79 386 48 400 c 0
 39 404 27 405 11 407 c 1
 11 427 l 1
 191 427 l 1
 191 175 l 2
 191 89 202 21 276 21 c 0xb8
296 629 m 1
 404 495 l 1
 358 495 l 1
 248 556 l 1
 140 495 l 1
 94 495 l 1
 202 629 l 1
 296 629 l 1
EndSplineSet
Substitution2: "'smcp' Lowercase to Small Capitals in Latin lookup 0 subtable" ucircumflex.sc
EndChar

StartChar: udieresis
Encoding: 252 252 188
Width: 570
GlyphClass: 2
Flags: MW
HStem: -8 29<239 286.5> 1 20<561 561> 407 20<11 191> 495 117<152 176 144 177 329 353>
VStem: 79 112<187 307 307 330.5> 102 116<545 569 537 569.5> 279 116<545 569 537 569.5> 375 111<187 307 307 329>
LayerCount: 2
Fore
SplineSet
276 21 m 0xb9
 352 21 375 101 375 187 c 2
 375 307 l 2
 375 351 377 389 344 400 c 0
 334 403 320 405 304 407 c 1
 304 427 l 1
 486 427 l 1
 486 183 l 2
 486 150 486 124 488 106 c 0
 489 86 489 73 492 64 c 0
 497 45 504 37 528 28 c 0
 536 25 548 21 561 21 c 1
 561 1 l 1x79
 401 -9 l 1
 387 62 l 1
 383 62 l 1
 359 21 328 -8 245 -8 c 0
 134 -8 79 68 79 187 c 2
 79 307 l 2
 79 354 79 386 48 400 c 0
 39 404 27 405 11 407 c 1
 11 427 l 1
 191 427 l 1
 191 175 l 2
 191 89 202 21 276 21 c 0xb9
218 553 m 0x34
 218 521 194 495 160 495 c 0
 144 495 130 500 118 511 c 0
 107 523 102 537 102 553 c 0
 102 586 128 612 160 612 c 0
 192 612 218 585 218 553 c 0x34
395 553 m 0x32
 395 521 371 495 337 495 c 0
 321 495 307 500 295 511 c 0
 284 523 279 537 279 553 c 0
 279 586 305 612 337 612 c 0
 369 612 395 585 395 553 c 0x32
EndSplineSet
Substitution2: "'smcp' Lowercase to Small Capitals in Latin lookup 0 subtable" udieresis.sc
EndChar

StartChar: yacute
Encoding: 253 253 189
Width: 520
GlyphClass: 2
Flags: MW
HStem: -210 93<110 110> 407 20<6 251 235.5 251 333 344.5 514.5 527>
LayerCount: 2
Fore
SplineSet
251 407 m 1
 220 407 190 405 190 379 c 0
 190 368 189 357 195 347 c 2
 290 107 l 1
 295 107 l 1
 371 268 l 2
 379 285 385 298 389 310 c 0
 397 331 407 348 407 372 c 0
 407 385 402 395 395 399 c 0
 387 403 356 407 333 407 c 1
 333 427 l 1
 527 427 l 1
 527 407 l 1
 502 407 477 400 465 384 c 0
 457 375 448 362 439 344 c 0
 429 325 417 302 404 273 c 2
 219 -127 l 2
 204 -163 182 -188 145 -203 c 0
 133 -208 122 -210 110 -210 c 0
 78 -210 51 -192 51 -162 c 0
 51 -127 76 -120 111 -117 c 0
 158 -113 200 -98 213 -71 c 2
 228 -41 l 1
 87 335 l 2
 75 366 68 395 37 404 c 0
 30 406 17 406 6 407 c 1
 6 427 l 1
 251 427 l 1
 251 407 l 1
432 641 m 0
 460 641 480 627 480 600 c 0
 480 590 476 581 464 573 c 0
 452 565 438 557 418 549 c 2
 294 495 l 1
 240 495 l 1
 354 602 l 2
 368 616 382 626 396 632 c 0
 408 638 420 641 432 641 c 0
EndSplineSet
Substitution2: "'smcp' Lowercase to Small Capitals in Latin lookup 0 subtable" yacute.sc
EndChar

StartChar: thorn
Encoding: 254 254 190
Width: 542
GlyphClass: 2
Flags: MW
HStem: -202 20<-11 279 -11 -11> -9 28<270.5 313.5> 407 28<283.5 327.5> 681 21<-9 -9> 715 20G<179 179>
VStem: 69 112<117 151 151 260 117 551> 391 121<166 231.5 164 269.5>
LayerCount: 2
Fore
SplineSet
299 -9 m 0
 242 -9 210 12 183 46 c 1
 183 -81 l 2
 183 -102 184 -121 187 -133 c 0
 198 -177 224 -179 279 -182 c 1
 279 -202 l 1
 -11 -202 l 1
 -11 -182 l 1
 6 -181 18 -181 30 -178 c 0
 65 -168 69 -136 69 -88 c 2
 69 551 l 2
 69 577 68 599 66 617 c 0
 64 635 62 648 58 656 c 0
 56 660 55 663 52 665 c 0
 49 669 44 669 40 671 c 0
 36 674 29 674 21 676 c 0
 14 678 3 679 -9 681 c 1
 -9 702 l 1
 179 735 l 1
 179 370 l 1
 183 370 l 1
 212 414 256 435 311 435 c 0
 407 435 469 373 496 303 c 0
 508 275 512 247 512 216 c 0
 512 112 455 41 384 8 c 0
 357 -4 328 -9 299 -9 c 0
181 151 m 2
 181 83 227 19 287 19 c 0
 368 19 391 120 391 212 c 0
 391 327 363 407 292 407 c 0
 220 407 181 333 181 260 c 2
 181 151 l 2
EndSplineSet
Substitution2: "'smcp' Lowercase to Small Capitals in Latin lookup 0 subtable" thorn.sc
EndChar

StartChar: ydieresis
Encoding: 255 255 191
Width: 520
GlyphClass: 2
Flags: MW
HStem: -210 93<110 110> 407 20<6 251 235.5 251 333 344.5 514.5 527> 495 117<170 194 162 195 347 371>
VStem: 120 116<545 569 537 569.5> 297 116<545 569 537 569.5>
LayerCount: 2
Fore
SplineSet
251 407 m 1
 220 407 190 405 190 379 c 0
 190 368 189 357 195 347 c 2
 290 107 l 1
 295 107 l 1
 371 268 l 2
 379 285 385 298 389 310 c 0
 397 331 407 348 407 372 c 0
 407 385 402 395 395 399 c 0
 387 403 356 407 333 407 c 1
 333 427 l 1
 527 427 l 1
 527 407 l 1
 502 407 477 400 465 384 c 0
 457 375 448 362 439 344 c 0
 429 325 417 302 404 273 c 2
 219 -127 l 2
 204 -163 182 -188 145 -203 c 0
 133 -208 122 -210 110 -210 c 0
 78 -210 51 -192 51 -162 c 0
 51 -127 76 -120 111 -117 c 0
 158 -113 200 -98 213 -71 c 2
 228 -41 l 1
 87 335 l 2
 75 366 68 395 37 404 c 0
 30 406 17 406 6 407 c 1
 6 427 l 1
 251 427 l 1
 251 407 l 1
236 553 m 0
 236 521 212 495 178 495 c 0
 162 495 148 500 136 511 c 0
 125 523 120 537 120 553 c 0
 120 586 146 612 178 612 c 0
 210 612 236 585 236 553 c 0
413 553 m 0
 413 521 389 495 355 495 c 0
 339 495 325 500 313 511 c 0
 302 523 297 537 297 553 c 0
 297 586 323 612 355 612 c 0
 387 612 413 585 413 553 c 0
EndSplineSet
Substitution2: "'smcp' Lowercase to Small Capitals in Latin lookup 0 subtable" ydieresis.sc
EndChar

StartChar: Amacron
Encoding: 256 256 192
Width: 730
GlyphClass: 2
Flags: MW
HStem: 0 20<415 415 415 756> 218 38<181 425 181 440 168 425> 684 20G<329 396 396 396> 764 58<234 490 234 490>
VStem: 234 256<764 822 764 822>
LayerCount: 2
Fore
SplineSet
234 764 m 1
 234 822 l 1
 490 822 l 1
 490 764 l 1
 234 764 l 1
415 20 m 1
 457 21 489 40 489 75 c 0
 489 83 488 93 483 107 c 0
 478 121 473 137 466 156 c 2
 440 218 l 1
 168 218 l 1
 140 154 121 102 121 78 c 0
 121 37 190 19 236 19 c 1
 236 0 l 1
 -12 0 l 1
 -12 19 l 1
 45 27 73 61 92 109 c 2
 329 704 l 1
 396 704 l 1
 612 177 l 2
 633 128 643 89 672 60 c 0
 695 39 716 24 756 20 c 1
 756 0 l 1
 415 0 l 1
 415 20 l 1
181 256 m 1
 425 256 l 1
 308 538 l 1
 295 538 l 1
 181 256 l 1
EndSplineSet
Substitution2: "'c2sc' Capitals to Small Capitals in Latin lookup 1 subtable" amacron.sc
EndChar

StartChar: amacron
Encoding: 257 257 193
Width: 462
GlyphClass: 2
Flags: MW
HStem: -8 42<338 417.5> -7 55<173 175> 407 28<190.5 235.5> 495 58<90 346 90 346>
VStem: 28 113<94 107.5> 37 101 277 108<133 241 241 241 272 294> 288 97<52.5 117>
LayerCount: 2
Fore
SplineSet
141 109 m 0x7a
 141 79 159 48 187 48 c 0
 238 48 277 82 277 133 c 2
 277 241 l 1
 231 220 198 202 176 184 c 0
 153 167 141 128 141 109 c 0x7a
139 -7 m 0
 74 -7 28 33 28 96 c 0x79
 28 119 38 141 59 162 c 0
 80 183 114 202 163 223 c 2
 277 272 l 1
 277 306 l 2
 277 362 261 407 210 407 c 0
 171 407 149 375 138 342 c 0
 131 319 115 299 85 299 c 0
 53 299 37 314 37 347 c 0
 37 373 51 397 80 412 c 0
 109 427 161 435 218 435 c 0
 331 435 385 402 385 294 c 2
 385 117 l 2x76
 385 71 393 34 412 34 c 0
 423 34 432 42 441 49 c 1
 453 36 l 1
 439 10 405 -8 364 -8 c 0
 312 -8 288 26 288 79 c 1xb1
 285 79 l 1
 259 28 211 -7 139 -7 c 0
90 495 m 1
 90 553 l 1
 346 553 l 1
 346 495 l 1
 90 495 l 1
EndSplineSet
Substitution2: "'smcp' Lowercase to Small Capitals in Latin lookup 0 subtable" amacron.sc
EndChar

StartChar: Abreve
Encoding: 258 258 194
Width: 730
GlyphClass: 2
Flags: MW
HStem: 0 20<415 415 415 756> 218 38<181 425 181 440 168 425> 684 20G<329 396 396 396> 764 80<342.5 381.5 342.5 400.5>
VStem: 227 271<881 881>
LayerCount: 2
Fore
SplineSet
362 844 m 0
 401 844 448 855 459 881 c 1
 498 881 l 1
 494 810 438 764 363 764 c 0
 302 764 259 794 239 835 c 0
 232 849 228 864 227 881 c 1
 266 881 l 1
 277 855 323 844 362 844 c 0
415 20 m 1
 457 21 489 40 489 75 c 0
 489 83 488 93 483 107 c 0
 478 121 473 137 466 156 c 2
 440 218 l 1
 168 218 l 1
 140 154 121 102 121 78 c 0
 121 37 190 19 236 19 c 1
 236 0 l 1
 -12 0 l 1
 -12 19 l 1
 45 27 73 61 92 109 c 2
 329 704 l 1
 396 704 l 1
 612 177 l 2
 633 128 643 89 672 60 c 0
 695 39 716 24 756 20 c 1
 756 0 l 1
 415 0 l 1
 415 20 l 1
181 256 m 1
 425 256 l 1
 308 538 l 1
 295 538 l 1
 181 256 l 1
EndSplineSet
Substitution2: "'c2sc' Capitals to Small Capitals in Latin lookup 1 subtable" abreve.sc
EndChar

StartChar: abreve
Encoding: 259 259 195
Width: 462
GlyphClass: 2
Flags: MW
HStem: -8 42<338 417.5> -7 55<173 175> 407 28<190.5 235.5> 495 80<197 228>
VStem: 28 113<94 107.5> 37 101 277 108<133 241 241 241 272 294> 288 97<52.5 117>
LayerCount: 2
Fore
SplineSet
141 109 m 0x7a
 141 79 159 48 187 48 c 0
 238 48 277 82 277 133 c 2
 277 241 l 1
 231 220 198 202 176 184 c 0
 153 167 141 128 141 109 c 0x7a
139 -7 m 0
 74 -7 28 33 28 96 c 0x79
 28 119 38 141 59 162 c 0
 80 183 114 202 163 223 c 2
 277 272 l 1
 277 306 l 2
 277 362 261 407 210 407 c 0
 171 407 149 375 138 342 c 0
 131 319 115 299 85 299 c 0
 53 299 37 314 37 347 c 0
 37 373 51 397 80 412 c 0
 109 427 161 435 218 435 c 0
 331 435 385 402 385 294 c 2
 385 117 l 2x76
 385 71 393 34 412 34 c 0
 423 34 432 42 441 49 c 1
 453 36 l 1
 439 10 405 -8 364 -8 c 0
 312 -8 288 26 288 79 c 1xb1
 285 79 l 1
 259 28 211 -7 139 -7 c 0
218 575 m 0
 259 575 304 591 314 621 c 1
 354 621 l 1
 350 561 315 522 270 504 c 0
 254 499 238 495 218 495 c 0
 155 495 115 528 94 571 c 0
 88 586 84 603 82 621 c 1
 122 621 l 1
 132 592 176 575 218 575 c 0
EndSplineSet
Substitution2: "'smcp' Lowercase to Small Capitals in Latin lookup 0 subtable" abreve.sc
EndChar

StartChar: Aogonek
Encoding: 260 260 196
Width: 730
GlyphClass: 2
Flags: MW
HStem: -214 63<511 518.5> 0 20<415 415 415 756> 2 5<535 591> 218 38<181 425 181 440 168 425> 684 20G<329 396 396 396>
VStem: 386 93<-122.5 -120>
LayerCount: 2
Fore
SplineSet
523 -151 m 0x24
 558 -151 586 -126 604 -103 c 1
 635 -135 l 1
 603 -177 552 -214 485 -214 c 0
 419 -214 386 -187 386 -134 c 0
 386 -106 399 -80 425 -56 c 0
 451 -32 487 -10 535 7 c 1
 591 7 l 1
 591 2 l 1
 558 -12 531 -30 511 -50 c 0
 489 -71 479 -91 479 -110 c 0
 479 -135 499 -151 523 -151 c 0x24
415 20 m 1x58
 457 21 489 40 489 75 c 0
 489 83 488 93 483 107 c 0
 478 121 473 137 466 156 c 2
 440 218 l 1
 168 218 l 1
 140 154 121 102 121 78 c 0
 121 37 190 19 236 19 c 1
 236 0 l 1
 -12 0 l 1
 -12 19 l 1
 45 27 73 61 92 109 c 2
 329 704 l 1
 396 704 l 1
 612 177 l 2
 633 128 643 89 672 60 c 0
 695 39 716 24 756 20 c 1
 756 0 l 1
 415 0 l 1
 415 20 l 1x58
181 256 m 1
 425 256 l 1
 308 538 l 1
 295 538 l 1
 181 256 l 1
EndSplineSet
Substitution2: "'c2sc' Capitals to Small Capitals in Latin lookup 1 subtable" aogonek.sc
EndChar

StartChar: aogonek
Encoding: 261 261 197
Width: 462
GlyphClass: 2
Flags: MW
HStem: -222 63<321 328.5> -8 42<338 417.5> -7 55<173 175> -6 5<345 401> 407 28<190.5 235.5>
VStem: 28 113<94 107.5> 37 101 196 93<-130.5 -128> 277 108<133 241 241 241 272 294> 288 97<52.5 117>
LayerCount: 2
Fore
SplineSet
333 -159 m 0x11
 368 -159 396 -134 414 -111 c 1
 445 -143 l 1
 413 -185 362 -222 295 -222 c 0
 229 -222 196 -195 196 -142 c 0
 196 -114 209 -88 235 -64 c 0
 261 -40 297 -18 345 -1 c 1
 401 -1 l 1
 401 -6 l 1
 368 -20 341 -38 321 -58 c 0
 299 -79 289 -99 289 -118 c 0
 289 -143 309 -159 333 -159 c 0x11
141 109 m 0x2c80
 141 79 159 48 187 48 c 0
 238 48 277 82 277 133 c 2
 277 241 l 1
 231 220 198 202 176 184 c 0
 153 167 141 128 141 109 c 0x2c80
139 -7 m 0
 74 -7 28 33 28 96 c 0x2c40
 28 119 38 141 59 162 c 0
 80 183 114 202 163 223 c 2
 277 272 l 1
 277 306 l 2
 277 362 261 407 210 407 c 0
 171 407 149 375 138 342 c 0
 131 319 115 299 85 299 c 0
 53 299 37 314 37 347 c 0
 37 373 51 397 80 412 c 0
 109 427 161 435 218 435 c 0
 331 435 385 402 385 294 c 2
 385 117 l 2x2a80
 385 71 393 34 412 34 c 0
 423 34 432 42 441 49 c 1
 453 36 l 1
 439 10 405 -8 364 -8 c 0
 312 -8 288 26 288 79 c 1x4840
 285 79 l 1
 259 28 211 -7 139 -7 c 0
EndSplineSet
Substitution2: "'smcp' Lowercase to Small Capitals in Latin lookup 0 subtable" aogonek.sc
EndChar

StartChar: Cacute
Encoding: 262 262 198
Width: 742
GlyphClass: 2
Flags: MW
HStem: -9 28<345.5 450.5> 0 21G<667 700 667 667> 675 20G<648 682 682 682> 676 28<356 459.5 356 479.5> 764 0<381 381 447 447> 789 92<552 594>
VStem: 42 157<310 393.5> 381 250<764 860> 638 26<467 467> 667 33<0 245>
LayerCount: 2
Fore
SplineSet
580 881 m 0x0d
 608 881 631 872 631 848 c 0
 631 834 626 823 615 815 c 0
 604 806 584 797 552 789 c 2
 447 764 l 1
 381 764 l 1
 495 852 l 2
 516 868 545 881 580 881 c 0x0d
414 704 m 0x92c0
 505 704 557 679 621 639 c 1
 648 695 l 1
 682 695 l 1x22c0
 664 467 l 1
 638 467 l 1
 615 565 537 676 422 676 c 0
 259 676 199 505 199 341 c 0
 199 170 264 19 426 19 c 0x92c0
 562 19 639 130 670 245 c 1
 700 245 l 1
 700 0 l 1
 667 0 l 1x42c0
 644 71 l 1
 578 18 498 -9 403 -9 c 0
 288 -9 201 27 141 85 c 0
 109 114 85 151 69 193 c 0
 51 235 42 284 42 336 c 0
 42 451 85 543 146 602 c 0
 206 662 298 704 414 704 c 0x92c0
EndSplineSet
Substitution2: "'c2sc' Capitals to Small Capitals in Latin lookup 1 subtable" cacute.sc
EndChar

StartChar: cacute
Encoding: 263 263 199
Width: 454
GlyphClass: 2
Flags: MW
HStem: -4 28<232.5 295.5> 407 28<245.5 274>
VStem: 31 124<177 265 175.5 266>
LayerCount: 2
Fore
SplineSet
276 24 m 0
 339 24 379 57 413 82 c 1
 426 67 l 1
 386 30 340 -4 251 -4 c 0
 183 -4 128 21 92 55 c 0
 56 90 31 142 31 212 c 0
 31 320 90 389 170 419 c 0
 199 430 228 435 263 435 c 0
 333 435 389 416 419 377 c 0
 428 365 432 353 432 340 c 0
 432 310 415 289 386 289 c 0
 355 289 339 308 325 330 c 0
 307 357 295 407 253 407 c 0
 179 407 155 307 155 223 c 0
 155 128 189 24 276 24 c 0
408 641 m 0
 436 641 457 627 457 600 c 0
 457 590 452 581 440 573 c 0
 429 565 414 557 395 549 c 2
 270 495 l 1
 216 495 l 1
 331 602 l 2
 345 616 359 626 372 632 c 0
 384 638 396 641 408 641 c 0
EndSplineSet
Substitution2: "'smcp' Lowercase to Small Capitals in Latin lookup 0 subtable" cacute.sc
EndChar

StartChar: Ccircumflex
Encoding: 264 264 200
Width: 742
GlyphClass: 2
Flags: MW
HStem: -9 28<345.5 450.5> 0 21G<667 700 667 667> 675 20G<648 682 682 682> 676 28<356 459.5 356 479.5> 808 73<414 414>
VStem: 42 157<310 393.5> 250 328<764 764> 638 26<467 467> 667 33<0 245>
LayerCount: 2
Fore
SplineSet
467 881 m 1x0a
 578 764 l 1
 518 764 l 1
 414 808 l 1
 310 764 l 1
 250 764 l 1
 362 881 l 1
 467 881 l 1x0a
414 704 m 0x9580
 505 704 557 679 621 639 c 1
 648 695 l 1
 682 695 l 1x2580
 664 467 l 1
 638 467 l 1
 615 565 537 676 422 676 c 0
 259 676 199 505 199 341 c 0
 199 170 264 19 426 19 c 0x9580
 562 19 639 130 670 245 c 1
 700 245 l 1
 700 0 l 1
 667 0 l 1x4580
 644 71 l 1
 578 18 498 -9 403 -9 c 0
 288 -9 201 27 141 85 c 0
 109 114 85 151 69 193 c 0
 51 235 42 284 42 336 c 0
 42 451 85 543 146 602 c 0
 206 662 298 704 414 704 c 0x9580
EndSplineSet
Substitution2: "'c2sc' Capitals to Small Capitals in Latin lookup 1 subtable" ccircumflex.sc
EndChar

StartChar: ccircumflex
Encoding: 265 265 201
Width: 454
GlyphClass: 2
Flags: MW
HStem: -4 28<232.5 295.5> 407 28<245.5 274>
VStem: 31 124<177 265 175.5 266>
LayerCount: 2
Fore
SplineSet
276 24 m 0
 339 24 379 57 413 82 c 1
 426 67 l 1
 386 30 340 -4 251 -4 c 0
 183 -4 128 21 92 55 c 0
 56 90 31 142 31 212 c 0
 31 320 90 389 170 419 c 0
 199 430 228 435 263 435 c 0
 333 435 389 416 419 377 c 0
 428 365 432 353 432 340 c 0
 432 310 415 289 386 289 c 0
 355 289 339 308 325 330 c 0
 307 357 295 407 253 407 c 0
 179 407 155 307 155 223 c 0
 155 128 189 24 276 24 c 0
310 629 m 1
 418 495 l 1
 372 495 l 1
 263 556 l 1
 155 495 l 1
 108 495 l 1
 216 629 l 1
 310 629 l 1
EndSplineSet
Substitution2: "'smcp' Lowercase to Small Capitals in Latin lookup 0 subtable" ccircumflex.sc
EndChar

StartChar: Cdotaccent
Encoding: 266 266 202
Width: 742
GlyphClass: 2
Flags: MW
HStem: -9 28<345.5 450.5> 0 21G<667 700 667 667> 675 20G<648 682 682 682> 676 28<356 459.5 356 479.5> 764 117<396.5 421>
VStem: 42 157<310 393.5> 352 123 638 26<467 467> 667 33<0 245>
LayerCount: 2
Fore
SplineSet
412 764 m 0x0a
 381 764 352 790 352 821 c 0
 352 853 381 881 412 881 c 0
 446 881 476 855 476 821 c 0
 476 806 470 792 458 780 c 0
 444 769 430 764 412 764 c 0x0a
414 704 m 0x9580
 505 704 557 679 621 639 c 1
 648 695 l 1
 682 695 l 1x2580
 664 467 l 1
 638 467 l 1
 615 565 537 676 422 676 c 0
 259 676 199 505 199 341 c 0
 199 170 264 19 426 19 c 0x9580
 562 19 639 130 670 245 c 1
 700 245 l 1
 700 0 l 1
 667 0 l 1x4580
 644 71 l 1
 578 18 498 -9 403 -9 c 0
 288 -9 201 27 141 85 c 0
 109 114 85 151 69 193 c 0
 51 235 42 284 42 336 c 0
 42 451 85 543 146 602 c 0
 206 662 298 704 414 704 c 0x9580
EndSplineSet
Substitution2: "'c2sc' Capitals to Small Capitals in Latin lookup 1 subtable" cdotaccent.sc
EndChar

StartChar: cdotaccent
Encoding: 267 267 203
Width: 454
GlyphClass: 2
Flags: MW
HStem: -4 28<232.5 295.5> 407 28<245.5 274> 505 136<258 295>
VStem: 31 124<177 265 175.5 266> 210 137
LayerCount: 2
Fore
SplineSet
276 24 m 0
 339 24 379 57 413 82 c 1
 426 67 l 1
 386 30 340 -4 251 -4 c 0
 183 -4 128 21 92 55 c 0
 56 90 31 142 31 212 c 0
 31 320 90 389 170 419 c 0
 199 430 228 435 263 435 c 0
 333 435 389 416 419 377 c 0
 428 365 432 353 432 340 c 0
 432 310 415 289 386 289 c 0
 355 289 339 308 325 330 c 0
 307 357 295 407 253 407 c 0
 179 407 155 307 155 223 c 0
 155 128 189 24 276 24 c 0
276 505 m 0
 240 505 210 535 210 572 c 0
 210 610 239 641 276 641 c 0
 315 641 346 611 346 572 c 0
 346 534 314 505 276 505 c 0
EndSplineSet
Substitution2: "'smcp' Lowercase to Small Capitals in Latin lookup 0 subtable" cdotaccent.sc
EndChar

StartChar: Ccaron
Encoding: 268 268 204
Width: 742
GlyphClass: 2
Flags: MW
HStem: -9 28<345.5 450.5> 0 21G<667 700 667 667> 675 20G<648 682 682 682> 676 28<356 459.5 356 479.5> 764 73<362 414 414 414 414 467>
VStem: 42 157<310 393.5> 250 328<881 881> 638 26<467 467> 667 33<0 245>
LayerCount: 2
Fore
SplineSet
362 764 m 1x0a
 250 881 l 1
 310 881 l 1
 414 837 l 1
 518 881 l 1
 578 881 l 1
 467 764 l 1
 362 764 l 1x0a
414 704 m 0x9580
 505 704 557 679 621 639 c 1
 648 695 l 1
 682 695 l 1x2580
 664 467 l 1
 638 467 l 1
 615 565 537 676 422 676 c 0
 259 676 199 505 199 341 c 0
 199 170 264 19 426 19 c 0x9580
 562 19 639 130 670 245 c 1
 700 245 l 1
 700 0 l 1
 667 0 l 1x4580
 644 71 l 1
 578 18 498 -9 403 -9 c 0
 288 -9 201 27 141 85 c 0
 109 114 85 151 69 193 c 0
 51 235 42 284 42 336 c 0
 42 451 85 543 146 602 c 0
 206 662 298 704 414 704 c 0x9580
EndSplineSet
Substitution2: "'c2sc' Capitals to Small Capitals in Latin lookup 1 subtable" ccaron.sc
EndChar

StartChar: ccaron
Encoding: 269 269 205
Width: 454
GlyphClass: 2
Flags: MW
HStem: -4 28<232.5 295.5> 407 28<245.5 274>
VStem: 31 124<177 265 175.5 266>
LayerCount: 2
Fore
SplineSet
276 24 m 0
 339 24 379 57 413 82 c 1
 426 67 l 1
 386 30 340 -4 251 -4 c 0
 183 -4 128 21 92 55 c 0
 56 90 31 142 31 212 c 0
 31 320 90 389 170 419 c 0
 199 430 228 435 263 435 c 0
 333 435 389 416 419 377 c 0
 428 365 432 353 432 340 c 0
 432 310 415 289 386 289 c 0
 355 289 339 308 325 330 c 0
 307 357 295 407 253 407 c 0
 179 407 155 307 155 223 c 0
 155 128 189 24 276 24 c 0
216 495 m 1
 108 629 l 1
 155 629 l 1
 263 568 l 1
 372 629 l 1
 418 629 l 1
 310 495 l 1
 216 495 l 1
EndSplineSet
Substitution2: "'smcp' Lowercase to Small Capitals in Latin lookup 0 subtable" ccaron.sc
EndChar

StartChar: Dcaron
Encoding: 270 270 206
Width: 829
GlyphClass: 2
Flags: MW
HStem: 0 20<32 32 32 408> 0 28<351 408> 667 28<269 274 274 387> 675 20<46 389> 764 73<358 410 410 410 410 463>
VStem: 126 133<123 131 131 572 572 599> 246 328<881 881> 637 151<281 393 281 404.5>
LayerCount: 2
Fore
SplineSet
358 764 m 1x0a
 246 881 l 1
 306 881 l 1
 410 837 l 1
 514 881 l 1
 574 881 l 1
 463 764 l 1
 358 764 l 1x0a
32 0 m 1x85
 32 20 l 1
 52 21 67 23 79 26 c 0
 123 33 126 71 126 123 c 2
 126 572 l 2
 126 626 125 655 87 669 c 0
 77 671 63 674 46 675 c 1
 46 695 l 1x95
 389 695 l 2
 511 695 609 653 675 593 c 0
 738 536 788 450 788 336 c 0
 788 226 741 149 682 94 c 0
 618 38 525 0 408 0 c 2x65
 32 0 l 1x85
392 28 m 0x65
 558 28 637 162 637 334 c 0
 637 475 589 603 491 646 c 0
 460 660 426 667 387 667 c 2
 274 667 l 2
 264 667 259 662 259 652 c 2
 259 131 l 2
 259 54 310 28 392 28 c 0x65
EndSplineSet
Substitution2: "'c2sc' Capitals to Small Capitals in Latin lookup 1 subtable" dcaron.sc
EndChar

StartChar: dcaron
Encoding: 271 271 207
Width: 558
GlyphClass: 2
Flags: MW
HStem: -8 26<213 269.5> 1 19<535 541> 406 29<213.5 265 203 291.5> 524 211<364 476 586 615.5 476 620 476 583> 682 20<271 285.5> 715 20G<476 476 586 615.5>
VStem: 31 121<175.5 245.5> 362 114<181 196 196 265 265 301.5 605 627> 551 101<678 696 677 697> 583 37<524 524>
LayerCount: 2
Fore
SplineSet
601 735 m 0x1080
 630 735 652 711 652 681 c 0x1080
 652 673 650 662 647 648 c 0
 639 609 627 566 620 524 c 1
 583 524 l 1x1040
 576 566 564 609 555 649 c 0
 552 663 551 674 551 682 c 0
 551 712 571 735 601 735 c 0x1080
236 435 m 0xaf
 294 435 334 417 361 382 c 1
 364 382 l 1
 364 524 l 2
 364 555 364 583 362 605 c 0
 362 649 364 664 335 674 c 0
 321 679 300 682 271 682 c 1
 271 702 l 1
 476 735 l 1
 476 196 l 2
 476 156 475 124 477 102 c 0
 477 81 478 65 481 53 c 0
 484 34 491 22 512 22 c 0
 520 20 529 20 541 20 c 1
 541 1 l 1x6f
 387 -8 l 1
 377 52 l 1
 375 52 l 1
 338 13 299 -8 240 -8 c 0
 174 -8 123 18 90 54 c 0
 55 91 31 140 31 211 c 0
 31 280 55 334 90 370 c 0
 122 407 170 435 236 435 c 0xaf
252 406 m 0
 175 406 152 300 152 212 c 0
 152 124 175 18 251 18 c 0xaf
 291 18 323 43 341 68 c 0
 358 98 362 129 362 181 c 2
 362 265 l 2
 362 338 331 406 252 406 c 0
EndSplineSet
Substitution2: "'smcp' Lowercase to Small Capitals in Latin lookup 0 subtable" dcaron.sc
EndChar

StartChar: Dcroat
Encoding: 272 272 208
Width: 829
GlyphClass: 2
Flags: MW
HStem: 0 20<32 32 32 408> 0 28<351 408> 350 31<48 48> 667 28<269 274 274 387> 675 20<46 389>
VStem: 126 133<123 131 131 572 572 599> 637 151<281 393 281 404.5>
LayerCount: 2
Fore
SplineSet
379 382 m 1x26
 379 351 l 1
 48 350 l 1
 48 381 l 1
 379 382 l 1x26
32 0 m 1x86
 32 20 l 1
 52 21 67 23 79 26 c 0
 123 33 126 71 126 123 c 2
 126 572 l 2
 126 626 125 655 87 669 c 0
 77 671 63 674 46 675 c 1
 46 695 l 1x8e
 389 695 l 2
 511 695 609 653 675 593 c 0
 738 536 788 450 788 336 c 0
 788 226 741 149 682 94 c 0
 618 38 525 0 408 0 c 2x56
 32 0 l 1x86
392 28 m 0x56
 558 28 637 162 637 334 c 0
 637 475 589 603 491 646 c 0
 460 660 426 667 387 667 c 2
 274 667 l 2
 264 667 259 662 259 652 c 2
 259 131 l 2
 259 54 310 28 392 28 c 0x56
EndSplineSet
Substitution2: "'c2sc' Capitals to Small Capitals in Latin lookup 1 subtable" dcroat.sc
EndChar

StartChar: dcroat
Encoding: 273 273 209
Width: 558
GlyphClass: 2
Flags: MW
HStem: -8 26<213 269.5> 1 19<535 541> 406 29<213.5 265 203 291.5> 515 31<293 530 293 293> 682 20<271 285.5> 715 20G<476 476>
VStem: 31 121<175.5 245.5> 362 114<181 196 196 265 265 301.5 605 627>
LayerCount: 2
Fore
SplineSet
530 545 m 1x3f
 530 515 l 1
 293 515 l 1
 293 546 l 1
 530 545 l 1x3f
236 435 m 0xaf
 294 435 334 417 361 382 c 1
 364 382 l 1
 364 524 l 2
 364 555 364 583 362 605 c 0
 362 649 364 664 335 674 c 0
 321 679 300 682 271 682 c 1
 271 702 l 1
 476 735 l 1
 476 196 l 2
 476 156 475 124 477 102 c 0
 477 81 478 65 481 53 c 0
 484 34 491 22 512 22 c 0
 520 20 529 20 541 20 c 1
 541 1 l 1x6f
 387 -8 l 1
 377 52 l 1
 375 52 l 1
 338 13 299 -8 240 -8 c 0
 174 -8 123 18 90 54 c 0
 55 91 31 140 31 211 c 0
 31 280 55 334 90 370 c 0
 122 407 170 435 236 435 c 0xaf
252 406 m 0
 175 406 152 300 152 212 c 0
 152 124 175 18 251 18 c 0xaf
 291 18 323 43 341 68 c 0
 358 98 362 129 362 181 c 2
 362 265 l 2
 362 338 331 406 252 406 c 0
EndSplineSet
Substitution2: "'smcp' Lowercase to Small Capitals in Latin lookup 0 subtable" dcroat.sc
EndChar

StartChar: Emacron
Encoding: 274 274 210
Width: 689
GlyphClass: 2
Flags: MW
HStem: 0 20<32 644 32 32> 0 28<387 444.5 387 644> 349 28<259 291> 667 28<278 293 293 395> 675 20<42 612> 764 58<199 455 199 455>
VStem: 126 133<123 131 131 349 377 572 572 598.5> 199 256<764 822 764 822> 447 27<230 495 230 495> 589 29<518 518> 632 26<207 207>
LayerCount: 2
Fore
SplineSet
199 764 m 1x05
 199 822 l 1
 455 822 l 1
 455 764 l 1
 199 764 l 1x05
293 667 m 2x32e0
 263 667 259 664 259 634 c 2
 259 377 l 1
 340 377 414 379 434 434 c 0
 439 448 444 471 447 495 c 1
 474 495 l 1
 474 230 l 1
 447 230 l 1
 440 273 433 313 403 330 c 0
 366 349 323 349 259 349 c 1
 259 131 l 2
 259 94 269 64 292 50 c 0
 321 31 361 28 413 28 c 0x72e0
 476 28 527 33 560 60 c 0
 595 88 621 152 632 207 c 1
 658 207 l 1
 644 0 l 1
 32 0 l 1
 32 20 l 1
 84 23 114 28 123 72 c 0
 126 86 126 102 126 123 c 2
 126 572 l 2
 126 625 123 656 85 669 c 0
 74 671 60 674 42 675 c 1
 42 695 l 1
 612 695 l 1xaae0
 618 518 l 1
 589 518 l 1
 578 588 546 649 477 661 c 0
 454 666 427 667 395 667 c 2
 293 667 l 2x32e0
EndSplineSet
Substitution2: "'c2sc' Capitals to Small Capitals in Latin lookup 1 subtable" emacron.sc
EndChar

StartChar: emacron
Encoding: 275 275 211
Width: 471
GlyphClass: 2
Flags: MW
HStem: -8 28<236.5 299.5> 252 30<163 288 288 304 163 416 158 288> 407 28<245 291.5> 495 58<134 390 134 390>
VStem: 30 123<192 221 168 262.5> 339 104<291 325.5>
LayerCount: 2
Fore
SplineSet
280 20 m 0
 347 20 388 58 422 89 c 1
 435 75 l 1
 386 22 346 -8 253 -8 c 0
 149 -8 77 45 46 120 c 0
 35 147 30 176 30 208 c 0
 30 317 91 385 170 418 c 0
 198 430 228 435 262 435 c 0
 374 435 443 382 443 271 c 0
 443 251 437 252 416 252 c 2
 158 252 l 1
 156 248 153 227 153 215 c 0
 153 121 193 20 280 20 c 0
339 303 m 0
 339 348 324 407 259 407 c 0
 193 407 172 333 163 282 c 1
 288 282 l 2
 320 282 339 279 339 303 c 0
134 495 m 1
 134 553 l 1
 390 553 l 1
 390 495 l 1
 134 495 l 1
EndSplineSet
Substitution2: "'smcp' Lowercase to Small Capitals in Latin lookup 0 subtable" emacron.sc
EndChar

StartChar: Ebreve
Encoding: 276 276 212
Width: 689
GlyphClass: 2
Flags: MW
HStem: 0 20<32 644 32 32> 0 28<387 444.5 387 644> 349 28<259 291> 667 28<278 293 293 395> 675 20<42 612> 764 80<306.5 345.5 306.5 365>
VStem: 126 133<123 131 131 349 377 572 572 598.5> 192 271 447 27<230 495 230 495> 589 29<518 518> 632 26<207 207>
LayerCount: 2
Fore
SplineSet
326 844 m 0x05
 365 844 413 855 424 881 c 1
 462 881 l 1
 458 810 402 764 328 764 c 0
 267 764 224 794 204 835 c 0
 196 849 192 864 192 881 c 1
 230 881 l 1
 241 855 287 844 326 844 c 0x05
293 667 m 2x32e0
 263 667 259 664 259 634 c 2
 259 377 l 1
 340 377 414 379 434 434 c 0
 439 448 444 471 447 495 c 1
 474 495 l 1
 474 230 l 1
 447 230 l 1
 440 273 433 313 403 330 c 0
 366 349 323 349 259 349 c 1
 259 131 l 2
 259 94 269 64 292 50 c 0
 321 31 361 28 413 28 c 0x72e0
 476 28 527 33 560 60 c 0
 595 88 621 152 632 207 c 1
 658 207 l 1
 644 0 l 1
 32 0 l 1
 32 20 l 1
 84 23 114 28 123 72 c 0
 126 86 126 102 126 123 c 2
 126 572 l 2
 126 625 123 656 85 669 c 0
 74 671 60 674 42 675 c 1
 42 695 l 1
 612 695 l 1xaae0
 618 518 l 1
 589 518 l 1
 578 588 546 649 477 661 c 0
 454 666 427 667 395 667 c 2
 293 667 l 2x32e0
EndSplineSet
Substitution2: "'c2sc' Capitals to Small Capitals in Latin lookup 1 subtable" ebreve.sc
EndChar

StartChar: ebreve
Encoding: 277 277 213
Width: 471
GlyphClass: 2
Flags: MW
HStem: -8 28<236.5 299.5> 252 30<163 288 288 304 163 416 158 288> 407 28<245 291.5> 495 80<241 272>
VStem: 30 123<192 221 168 262.5> 339 104<291 325.5>
LayerCount: 2
Fore
SplineSet
280 20 m 0
 347 20 388 58 422 89 c 1
 435 75 l 1
 386 22 346 -8 253 -8 c 0
 149 -8 77 45 46 120 c 0
 35 147 30 176 30 208 c 0
 30 317 91 385 170 418 c 0
 198 430 228 435 262 435 c 0
 374 435 443 382 443 271 c 0
 443 251 437 252 416 252 c 2
 158 252 l 1
 156 248 153 227 153 215 c 0
 153 121 193 20 280 20 c 0
339 303 m 0
 339 348 324 407 259 407 c 0
 193 407 172 333 163 282 c 1
 288 282 l 2
 320 282 339 279 339 303 c 0
262 575 m 0
 303 575 348 591 358 621 c 1
 398 621 l 1
 394 561 359 522 314 504 c 0
 298 499 282 495 262 495 c 0
 199 495 159 528 138 571 c 0
 132 586 128 603 126 621 c 1
 166 621 l 1
 176 592 220 575 262 575 c 0
EndSplineSet
Substitution2: "'smcp' Lowercase to Small Capitals in Latin lookup 0 subtable" ebreve.sc
EndChar

